RobotoMono-Thin.ufo
<glyph name="exclam" format="2">
  <advance width="1229"/>
  <unicode hex="0021"/>
  <outline>
    <contour>
      <point x="619" y="401" type="line"/>
      <point x="564" y="401" type="line"/>
      <point x="564" y="1456" type="line"/>
      <point x="619" y="1456" type="line"/>
    </contour>
    <contour>
      <point x="543" y="49" type="qcurve" smooth="yes"/>
      <point x="543" y="71"/>
      <point x="577" y="105"/>
      <point x="599" y="105" type="qcurve" smooth="yes"/>
      <point x="622" y="105"/>
      <point x="657" y="72"/>
      <point x="657" y="49" type="qcurve" smooth="yes"/>
      <point x="657" y="26"/>
      <point x="621" y="-6"/>
      <point x="599" y="-6" type="qcurve" smooth="yes"/>
      <point x="577" y="-6"/>
      <point x="543" y="26"/>
    </contour>
  </outline>
</glyph>
<glyph name="quotedbl" format="2">
  <advance width="1229"/>
  <unicode hex="0022"/>
  <outline>
    <contour>
      <point x="514" y="1393" type="line"/>
      <point x="503" y="1122" type="line"/>
      <point x="450" y="1122" type="line"/>
      <point x="458" y="1390" type="line"/>
      <point x="456" y="1536" type="line"/>
      <point x="516" y="1536" type="line"/>
    </contour>
    <contour>
      <point x="763" y="1393" type="line"/>
      <point x="752" y="1122" type="line"/>
      <point x="699" y="1122" type="line"/>
      <point x="708" y="1390" type="line"/>
      <point x="706" y="1536" type="line"/>
      <point x="765" y="1536" type="line"/>
    </contour>
  </outline>
</glyph>
<glyph name="numbersign" format="2">
  <advance width="1229"/>
  <unicode hex="0023"/>
  <outline>
    <contour>
      <point x="752" y="410" type="line"/>
      <point x="388" y="410" type="line"/>
      <point x="314" y="0" type="line"/>
      <point x="258" y="0" type="line"/>
      <point x="332" y="410" type="line"/>
      <point x="61" y="410" type="line"/>
      <point x="61" y="462" type="line"/>
      <point x="342" y="462" type="line"/>
      <point x="437" y="986" type="line"/>
      <point x="137" y="986" type="line"/>
      <point x="137" y="1040" type="line"/>
      <point x="447" y="1040" type="line"/>
      <point x="522" y="1456" type="line"/>
      <point x="578" y="1456" type="line"/>
      <point x="502" y="1040" type="line"/>
      <point x="867" y="1040" type="line"/>
      <point x="943" y="1456" type="line"/>
      <point x="999" y="1456" type="line"/>
      <point x="923" y="1040" type="line"/>
      <point x="1177" y="1040" type="line"/>
      <point x="1177" y="986" type="line"/>
      <point x="913" y="986" type="line"/>
      <point x="817" y="462" type="line"/>
      <point x="1102" y="462" type="line"/>
      <point x="1102" y="410" type="line"/>
      <point x="808" y="410" type="line"/>
      <point x="733" y="0" type="line"/>
      <point x="677" y="0" type="line"/>
    </contour>
    <contour>
      <point x="398" y="462" type="line"/>
      <point x="761" y="462" type="line"/>
      <point x="857" y="986" type="line"/>
      <point x="492" y="986" type="line"/>
    </contour>
  </outline>
</glyph>
<glyph name="dollar" format="2">
  <advance width="1229"/>
  <unicode hex="0024"/>
  <outline>
    <contour>
      <point x="1015" y="344" type="qcurve" smooth="yes"/>
      <point x="1016" y="426"/>
      <point x="948" y="541"/>
      <point x="894.5" y="582.0" type="qcurve" smooth="yes" name="inserted"/>
      <point x="841" y="623"/>
      <point x="710" y="679"/>
      <point x="647" y="702" type="qcurve" smooth="yes"/>
      <point x="573" y="728"/>
      <point x="429" y="791"/>
      <point x="371.0" y="837.5" type="qcurve" smooth="yes" name="inserted"/>
      <point x="313" y="884"/>
      <point x="242" y="1015"/>
      <point x="242" y="1110" type="qcurve" smooth="yes"/>
      <point x="242" y="1196"/>
      <point x="305" y="1329"/>
      <point x="358.0" y="1375.0" type="qcurve" smooth="yes" name="inserted"/>
      <point x="411" y="1421"/>
      <point x="549" y="1472"/>
      <point x="624" y="1476" type="qcurve"/>
      <point x="624" y="1663" type="line"/>
      <point x="680" y="1663" type="line"/>
      <point x="680" y="1476" type="line"/>
      <point x="768" y="1471"/>
      <point x="907" y="1406"/>
      <point x="955.5" y="1350.0" type="qcurve" smooth="yes" name="inserted"/>
      <point x="1004" y="1294"/>
      <point x="1058" y="1140"/>
      <point x="1061" y="1047" type="qcurve"/>
      <point x="1006" y="1047" type="line"/>
      <point x="1004" y="1130"/>
      <point x="952" y="1268"/>
      <point x="906.0" y="1318.0" type="qcurve" smooth="yes" name="inserted"/>
      <point x="860" y="1368"/>
      <point x="730" y="1424"/>
      <point x="650" y="1424" type="qcurve" smooth="yes"/>
      <point x="583" y="1424"/>
      <point x="457" y="1384"/>
      <point x="407.5" y="1345.0" type="qcurve" smooth="yes" name="inserted"/>
      <point x="358" y="1306"/>
      <point x="297" y="1189"/>
      <point x="296" y="1112" type="qcurve" smooth="yes"/>
      <point x="295" y="1028"/>
      <point x="361" y="912"/>
      <point x="414.0" y="871.5" type="qcurve" smooth="yes" name="inserted"/>
      <point x="467" y="831"/>
      <point x="599" y="777"/>
      <point x="664" y="754" type="qcurve" smooth="yes"/>
      <point x="737" y="728"/>
      <point x="881" y="665"/>
      <point x="939.0" y="618.0" type="qcurve" smooth="yes" name="inserted"/>
      <point x="997" y="571"/>
      <point x="1069" y="439"/>
      <point x="1069" y="346" type="qcurve" smooth="yes"/>
      <point x="1069" y="260"/>
      <point x="1006" y="129"/>
      <point x="954.0" y="83.0" type="qcurve" smooth="yes" name="inserted"/>
      <point x="902" y="37"/>
      <point x="766" y="-14"/>
      <point x="692" y="-19" type="qcurve"/>
      <point x="692" y="-208" type="line"/>
      <point x="636" y="-208" type="line"/>
      <point x="636" y="-21" type="line"/>
      <point x="542" y="-18"/>
      <point x="383" y="40"/>
      <point x="324.5" y="94.5" type="qcurve" smooth="yes" name="inserted"/>
      <point x="266" y="149"/>
      <point x="197" y="307"/>
      <point x="193" y="409" type="qcurve"/>
      <point x="248" y="409" type="line"/>
      <point x="251" y="317"/>
      <point x="316" y="175"/>
      <point x="371.0" y="127.5" type="qcurve" smooth="yes" name="inserted"/>
      <point x="426" y="80"/>
      <point x="573" y="31"/>
      <point x="657" y="32" type="qcurve" smooth="yes"/>
      <point x="721" y="32"/>
      <point x="849" y="73"/>
      <point x="900.0" y="113.0" type="qcurve" smooth="yes" name="inserted"/>
      <point x="951" y="153"/>
      <point x="1014" y="269"/>
    </contour>
  </outline>
</glyph>
<glyph name="percent" format="2">
  <advance width="1229"/>
  <unicode hex="0025"/>
  <outline>
    <contour>
      <point x="44" y="1176" type="line" smooth="yes"/>
      <point x="45" y="1228"/>
      <point x="75" y="1336"/>
      <point x="105.0" y="1379.0" type="qcurve" smooth="yes" name="inserted"/>
      <point x="135" y="1422"/>
      <point x="224" y="1477"/>
      <point x="284" y="1477" type="qcurve" smooth="yes"/>
      <point x="344" y="1477"/>
      <point x="433" y="1422"/>
      <point x="462.5" y="1378.5" type="qcurve" smooth="yes" name="inserted"/>
      <point x="492" y="1335"/>
      <point x="522" y="1228"/>
      <point x="523" y="1176" type="qcurve" smooth="yes"/>
      <point x="523" y="1099" type="line"/>
      <point x="522" y="1047"/>
      <point x="492" y="941"/>
      <point x="463.0" y="898.0" type="qcurve" smooth="yes" name="inserted"/>
      <point x="434" y="855"/>
      <point x="345" y="800"/>
      <point x="286" y="800" type="qcurve" smooth="yes"/>
      <point x="226" y="800"/>
      <point x="136" y="854"/>
      <point x="106.0" y="896.5" type="qcurve" smooth="yes" name="inserted"/>
      <point x="76" y="939"/>
      <point x="45" y="1046"/>
      <point x="44" y="1099" type="qcurve" smooth="yes"/>
    </contour>
    <contour>
      <point x="99" y="1099" type="line" smooth="yes"/>
      <point x="100" y="1057"/>
      <point x="122" y="970"/>
      <point x="144.5" y="934.5" type="qcurve" smooth="yes" name="inserted"/>
      <point x="167" y="899"/>
      <point x="237" y="855"/>
      <point x="286" y="855" type="qcurve" smooth="yes"/>
      <point x="334" y="855"/>
      <point x="403" y="901"/>
      <point x="425.0" y="936.0" type="qcurve" smooth="yes" name="inserted"/>
      <point x="447" y="971"/>
      <point x="468" y="1058"/>
      <point x="469" y="1099" type="qcurve" smooth="yes"/>
      <point x="469" y="1176" type="line" smooth="yes"/>
      <point x="468" y="1218"/>
      <point x="447" y="1305"/>
      <point x="424.5" y="1340.5" type="qcurve" smooth="yes" name="inserted"/>
      <point x="402" y="1376"/>
      <point x="333" y="1422"/>
      <point x="284" y="1422" type="qcurve" smooth="yes"/>
      <point x="236" y="1422"/>
      <point x="166" y="1376"/>
      <point x="143.5" y="1340.0" type="qcurve" smooth="yes" name="inserted"/>
      <point x="121" y="1304"/>
      <point x="100" y="1217"/>
      <point x="99" y="1176" type="qcurve"/>
    </contour>
    <contour>
      <point x="702" y="357" type="line" smooth="yes"/>
      <point x="703" y="409"/>
      <point x="733" y="516"/>
      <point x="763.0" y="559.0" type="qcurve" smooth="yes" name="inserted"/>
      <point x="793" y="602"/>
      <point x="881" y="657"/>
      <point x="941" y="657" type="qcurve" smooth="yes"/>
      <point x="1001" y="657"/>
      <point x="1090" y="603"/>
      <point x="1120.0" y="559.5" type="qcurve" smooth="yes" name="inserted"/>
      <point x="1150" y="516"/>
      <point x="1181" y="409"/>
      <point x="1182" y="357" type="qcurve" smooth="yes"/>
      <point x="1182" y="279" type="line"/>
      <point x="1181" y="227"/>
      <point x="1151" y="120"/>
      <point x="1121.0" y="77.0" type="qcurve" smooth="yes" name="inserted"/>
      <point x="1091" y="34"/>
      <point x="1003" y="-21"/>
      <point x="943" y="-21" type="qcurve" smooth="yes"/>
      <point x="883" y="-21"/>
      <point x="794" y="33"/>
      <point x="764.0" y="76.5" type="qcurve" smooth="yes" name="inserted"/>
      <point x="734" y="120"/>
      <point x="703" y="226"/>
      <point x="702" y="279" type="qcurve" smooth="yes"/>
    </contour>
    <contour>
      <point x="757" y="279" type="line" smooth="yes"/>
      <point x="758" y="237"/>
      <point x="779" y="150"/>
      <point x="801.5" y="114.5" type="qcurve" smooth="yes" name="inserted"/>
      <point x="824" y="79"/>
      <point x="894" y="34"/>
      <point x="943" y="34" type="qcurve" smooth="yes"/>
      <point x="992" y="34"/>
      <point x="1061" y="79"/>
      <point x="1083.0" y="114.5" type="qcurve" smooth="yes" name="inserted"/>
      <point x="1105" y="150"/>
      <point x="1126" y="237"/>
      <point x="1127" y="279" type="qcurve" smooth="yes"/>
      <point x="1127" y="357" type="line" smooth="yes"/>
      <point x="1126" y="400"/>
      <point x="1106" y="487"/>
      <point x="1083.5" y="522.0" type="qcurve" smooth="yes" name="inserted"/>
      <point x="1061" y="557"/>
      <point x="991" y="602"/>
      <point x="941" y="602" type="qcurve" smooth="yes"/>
      <point x="891" y="602"/>
      <point x="822" y="557"/>
      <point x="800.0" y="522.0" type="qcurve" smooth="yes" name="inserted"/>
      <point x="778" y="487"/>
      <point x="758" y="399"/>
      <point x="757" y="357" type="qcurve"/>
    </contour>
    <contour>
      <point x="316" y="131" type="line"/>
      <point x="273" y="162" type="line"/>
      <point x="895" y="1300" type="line"/>
      <point x="938" y="1269" type="line"/>
    </contour>
  </outline>
</glyph>
<glyph name="ampersand" format="2">
  <advance width="1229"/>
  <unicode hex="0026"/>
  <outline>
    <contour>
      <point x="164" y="352" type="qcurve" smooth="yes"/>
      <point x="164" y="415"/>
      <point x="206" y="530"/>
      <point x="239.5" y="581.0" type="qcurve" smooth="yes" name="inserted"/>
      <point x="273" y="632"/>
      <point x="359" y="723"/>
      <point x="404" y="762" type="qcurve" smooth="yes"/>
      <point x="451" y="802" type="line"/>
      <point x="420" y="842"/>
      <point x="364" y="928"/>
      <point x="343.0" y="973.5" type="qcurve" smooth="yes" name="inserted"/>
      <point x="322" y="1019"/>
      <point x="297" y="1116"/>
      <point x="297" y="1167" type="qcurve" smooth="yes"/>
      <point x="297" y="1230"/>
      <point x="337" y="1343"/>
      <point x="374.0" y="1385.0" type="qcurve" smooth="yes" name="inserted"/>
      <point x="411" y="1427"/>
      <point x="517" y="1477"/>
      <point x="583" y="1477" type="qcurve" smooth="yes"/>
      <point x="639" y="1477"/>
      <point x="735" y="1437"/>
      <point x="769.5" y="1401.5" type="qcurve" smooth="yes" name="inserted"/>
      <point x="804" y="1366"/>
      <point x="842" y="1269"/>
      <point x="842" y="1213" type="qcurve" smooth="yes"/>
      <point x="842" y="1168"/>
      <point x="809" y="1085"/>
      <point x="783.5" y="1048.0" type="qcurve" smooth="yes" name="inserted"/>
      <point x="758" y="1011"/>
      <point x="694" y="946"/>
      <point x="662" y="918" type="qcurve"/>
      <point x="521" y="797" type="line"/>
      <point x="959" y="263" type="line"/>
      <point x="1010" y="345"/>
      <point x="1064" y="537"/>
      <point x="1068" y="632" type="qcurve"/>
      <point x="1122" y="632" type="line"/>
      <point x="1122" y="519"/>
      <point x="1061" y="309"/>
      <point x="998" y="216" type="qcurve"/>
      <point x="1175" y="0" type="line"/>
      <point x="1110" y="0" type="line"/>
      <point x="965" y="175" type="line"/>
      <point x="925" y="133"/>
      <point x="837" y="62"/>
      <point x="787.5" y="36.0" type="qcurve" smooth="yes" name="inserted"/>
      <point x="738" y="10"/>
      <point x="630" y="-20"/>
      <point x="571" y="-20" type="qcurve" smooth="yes"/>
      <point x="487" y="-20"/>
      <point x="339" y="30"/>
      <point x="283.5" y="78.0" type="qcurve" smooth="yes" name="inserted"/>
      <point x="228" y="126"/>
      <point x="164" y="264"/>
    </contour>
    <contour>
      <point x="571" y="34" type="qcurve" smooth="yes"/>
      <point x="629" y="34"/>
      <point x="732" y="60"/>
      <point x="777.0" y="84.5" type="qcurve" smooth="yes" name="inserted"/>
      <point x="822" y="109"/>
      <point x="898" y="178"/>
      <point x="929" y="219" type="qcurve"/>
      <point x="481" y="763" type="line"/>
      <point x="435" y="723" type="line" smooth="yes"/>
      <point x="396" y="688"/>
      <point x="318" y="605"/>
      <point x="287.0" y="558.5" type="qcurve" smooth="yes" name="inserted"/>
      <point x="256" y="512"/>
      <point x="218" y="408"/>
      <point x="218" y="352" type="qcurve" smooth="yes"/>
      <point x="219" y="277"/>
      <point x="276" y="159"/>
      <point x="324.0" y="118.0" type="qcurve" smooth="yes" name="inserted"/>
      <point x="372" y="77"/>
      <point x="500" y="34"/>
    </contour>
    <contour>
      <point x="352" y="1169" type="qcurve" smooth="yes"/>
      <point x="352" y="1122"/>
      <point x="374" y="1033"/>
      <point x="393.0" y="991.0" type="qcurve" smooth="yes" name="inserted"/>
      <point x="412" y="949"/>
      <point x="462" y="871"/>
      <point x="490" y="835" type="qcurve"/>
      <point x="637" y="960" type="line"/>
      <point x="665" y="984"/>
      <point x="718" y="1040"/>
      <point x="739.0" y="1071.5" type="qcurve" smooth="yes" name="inserted"/>
      <point x="760" y="1103"/>
      <point x="786" y="1174"/>
      <point x="786" y="1213" type="qcurve" smooth="yes"/>
      <point x="786" y="1257"/>
      <point x="756" y="1333"/>
      <point x="729.0" y="1361.5" type="qcurve" smooth="yes" name="inserted"/>
      <point x="702" y="1390"/>
      <point x="627" y="1423"/>
      <point x="583" y="1423" type="qcurve" smooth="yes"/>
      <point x="529" y="1423"/>
      <point x="443" y="1382"/>
      <point x="413.5" y="1347.0" type="qcurve" smooth="yes" name="inserted"/>
      <point x="384" y="1312"/>
      <point x="352" y="1220"/>
    </contour>
  </outline>
</glyph>
<glyph name="parenleft" format="2">
  <advance width="1229"/>
  <unicode hex="0028"/>
  <outline>
    <contour>
      <point x="406" y="586" type="line" smooth="yes"/>
      <point x="406" y="673"/>
      <point x="425" y="866"/>
      <point x="445.0" y="964.0" type="qcurve" smooth="yes" name="inserted"/>
      <point x="465" y="1062"/>
      <point x="528" y="1253"/>
      <point x="574.0" y="1339.0" type="qcurve" smooth="yes" name="inserted"/>
      <point x="620" y="1425"/>
      <point x="742" y="1571"/>
      <point x="820" y="1623" type="qcurve"/>
      <point x="839" y="1580" type="line"/>
      <point x="767" y="1530"/>
      <point x="655" y="1390"/>
      <point x="613.0" y="1307.0" type="qcurve" smooth="yes" name="inserted"/>
      <point x="571" y="1224"/>
      <point x="513" y="1040"/>
      <point x="495.0" y="946.5" type="qcurve" smooth="yes" name="inserted"/>
      <point x="477" y="853"/>
      <point x="460" y="671"/>
      <point x="460" y="590" type="qcurve" smooth="yes"/>
      <point x="460" y="564" type="line" smooth="yes"/>
      <point x="461" y="483"/>
      <point x="477" y="301"/>
      <point x="495.0" y="207.5" type="qcurve" smooth="yes" name="inserted"/>
      <point x="513" y="114"/>
      <point x="571" y="-70"/>
      <point x="613.0" y="-153.0" type="qcurve" smooth="yes" name="inserted"/>
      <point x="655" y="-236"/>
      <point x="767" y="-377"/>
      <point x="839" y="-427" type="qcurve"/>
      <point x="820" y="-470" type="line"/>
      <point x="741" y="-417"/>
      <point x="618" y="-272"/>
      <point x="572.0" y="-186.0" type="qcurve" smooth="yes" name="inserted"/>
      <point x="526" y="-100"/>
      <point x="463" y="90"/>
      <point x="443.5" y="187.5" type="qcurve" smooth="yes" name="inserted"/>
      <point x="424" y="285"/>
      <point x="406" y="478"/>
      <point x="406" y="566" type="qcurve" smooth="yes"/>
    </contour>
  </outline>
</glyph>
<glyph name="hyphen" format="2">
  <advance width="1229"/>
  <unicode hex="002D"/>
  <outline>
    <contour>
      <point x="974" y="639" type="line"/>
      <point x="256" y="639" type="line"/>
      <point x="256" y="693" type="line"/>
      <point x="974" y="693" type="line"/>
    </contour>
  </outline>
</glyph>
<glyph name="slash" format="2">
  <advance width="1229"/>
  <unicode hex="002F"/>
  <unicode hex="2215"/>
  <outline>
    <contour>
      <point x="365" y="-125" type="line"/>
      <point x="306" y="-125" type="line"/>
      <point x="914" y="1456" type="line"/>
      <point x="973" y="1456" type="line"/>
    </contour>
  </outline>
</glyph>
<glyph name="zero" format="2">
  <advance width="1229"/>
  <unicode hex="0030"/>
  <outline>
    <contour>
      <point x="1063" y="594" type="line" smooth="yes"/>
      <point x="1063.0" y="487"/>
      <point x="1016.8565886981723" y="270.74692123206887"/>
      <point x="966" y="181" type="qcurve" smooth="yes"/>
      <point x="915.0383444353413" y="94.06541109558215"/>
      <point x="745.047420134783" y="-20.0"/>
      <point x="619" y="-20" type="qcurve" smooth="yes"/>
      <point x="536" y="-20"/>
      <point x="404" y="31"/>
      <point x="356" y="77" type="qcurve" smooth="yes" name="inserted"/>
      <point x="255" y="172"/>
      <point x="172" y="452"/>
      <point x="172" y="594" type="qcurve" smooth="yes"/>
      <point x="172" y="862" type="line" smooth="yes"/>
      <point x="172" y="968"/>
      <point x="220" y="1193"/>
      <point x="273" y="1281" type="qcurve" smooth="yes"/>
      <point x="326" y="1369"/>
      <point x="494" y="1477"/>
      <point x="617" y="1477" type="qcurve" smooth="yes"/>
      <point x="701" y="1477"/>
      <point x="837" y="1422"/>
      <point x="884" y="1378" type="qcurve" smooth="yes" name="inserted"/>
      <point x="979" y="1289"/>
      <point x="1061.0131464720614" y="1003.0666004836576"/>
      <point x="1063" y="862" type="qcurve" smooth="yes"/>
    </contour>
    <contour>
      <point x="250" y="384" type="qcurve"/>
      <point x="975" y="1115" type="line"/>
      <point x="957" y="1178"/>
      <point x="897" y="1290"/>
      <point x="854" y="1332" type="qcurve" smooth="yes" name="inserted"/>
      <point x="810" y="1374"/>
      <point x="693" y="1423"/>
      <point x="617" y="1423" type="qcurve" smooth="yes"/>
      <point x="503.9042430440357" y="1423.0"/>
      <point x="363" y="1327"/>
      <point x="312" y="1244" type="qcurve" smooth="yes"/>
      <point x="267" y="1171"/>
      <point x="226.0" y="956.628880440606"/>
      <point x="226" y="862" type="qcurve" smooth="yes"/>
      <point x="226" y="596" type="line" smooth="yes"/>
      <point x="226" y="544"/>
      <point x="237" y="437"/>
    </contour>
    <contour>
      <point x="1009" y="596" type="qcurve" smooth="yes"/>
      <point x="1009" y="862" type="line" smooth="yes"/>
      <point x="1008" y="910"/>
      <point x="999" y="1009"/>
      <point x="989" y="1058" type="qcurve"/>
      <point x="265" y="328" type="line"/>
      <point x="284" y="268"/>
      <point x="344" y="161"/>
      <point x="387" y="121" type="qcurve" smooth="yes" name="inserted"/>
      <point x="430" y="81"/>
      <point x="545" y="34"/>
      <point x="619" y="34" type="qcurve" smooth="yes"/>
      <point x="731.9488088773776" y="34.0"/>
      <point x="885.3311473782269" y="139.6622947564536"/>
      <point x="927" y="223" type="qcurve" smooth="yes"/>
      <point x="972.0" y="304.0"/>
      <point x="1008" y="503"/>
    </contour>
  </outline>
</glyph>
<glyph name="one" format="2">
  <advance width="1229"/>
  <unicode hex="0031"/>
  <outline>
    <contour>
      <point x="711" y="0" type="line"/>
      <point x="656" y="0" type="line"/>
      <point x="656" y="1386" type="line"/>
      <point x="230" y="1187" type="line"/>
      <point x="230" y="1247" type="line"/>
      <point x="692" y="1456" type="line"/>
      <point x="711" y="1456" type="line"/>
    </contour>
  </outline>
</glyph>
<glyph name="two" format="2">
  <advance width="1229"/>
  <unicode hex="0032"/>
  <outline>
    <contour>
      <point x="1019" y="0" type="line"/>
      <point x="148" y="0" type="line"/>
      <point x="148" y="54" type="line"/>
      <point x="625" y="604" type="line" smooth="yes"/>
      <point x="667" y="653"/>
      <point x="759" y="763"/>
      <point x="797.5" y="824.0" type="qcurve" smooth="yes" name="inserted"/>
      <point x="836" y="885"/>
      <point x="886" y="1016"/>
      <point x="886" y="1085" type="qcurve" smooth="yes"/>
      <point x="886" y="1164"/>
      <point x="833" y="1289"/>
      <point x="785.5" y="1332.5" type="qcurve" smooth="yes" name="inserted"/>
      <point x="738" y="1376"/>
      <point x="608" y="1422"/>
      <point x="531" y="1422" type="qcurve" smooth="yes"/>
      <point x="450" y="1422"/>
      <point x="318" y="1362"/>
      <point x="270.5" y="1310.5" type="qcurve" smooth="yes" name="inserted"/>
      <point x="223" y="1259"/>
      <point x="169" y="1122"/>
      <point x="166" y="1045" type="qcurve"/>
      <point x="112" y="1045" type="line"/>
      <point x="115" y="1133"/>
      <point x="178" y="1290"/>
      <point x="233.0" y="1348.5" type="qcurve" smooth="yes" name="inserted"/>
      <point x="288" y="1407"/>
      <point x="439" y="1476"/>
      <point x="531" y="1476" type="qcurve" smooth="yes"/>
      <point x="620" y="1476"/>
      <point x="770" y="1423"/>
      <point x="825.0" y="1372.0" type="qcurve" smooth="yes" name="inserted"/>
      <point x="880" y="1321"/>
      <point x="941" y="1176"/>
      <point x="941" y="1085" type="qcurve" smooth="yes"/>
      <point x="941" y="1007"/>
      <point x="882" y="861"/>
      <point x="838.0" y="793.0" type="qcurve" smooth="yes" name="inserted"/>
      <point x="794" y="725"/>
      <point x="689" y="601"/>
      <point x="641" y="546" type="qcurve" smooth="yes"/>
      <point x="219" y="54" type="line"/>
      <point x="1019" y="54" type="line"/>
    </contour>
  </outline>
</glyph>
<glyph name="four" format="2">
  <advance width="1229"/>
  <unicode hex="0034"/>
  <outline>
    <contour>
      <point x="853" y="451" type="line"/>
      <point x="1105" y="451" type="line"/>
      <point x="1105" y="397" type="line"/>
      <point x="853" y="397" type="line"/>
      <point x="853" y="0" type="line"/>
      <point x="799" y="0" type="line"/>
      <point x="799" y="397" type="line"/>
      <point x="93" y="397" type="line"/>
      <point x="93" y="427" type="line"/>
      <point x="788" y="1456" type="line"/>
      <point x="853" y="1456" type="line"/>
    </contour>
    <contour>
      <point x="177" y="451" type="line"/>
      <point x="799" y="451" type="line"/>
      <point x="799" y="1391" type="line"/>
      <point x="715" y="1253" type="line"/>
    </contour>
  </outline>
</glyph>
<glyph name="five" format="2">
  <advance width="1229"/>
  <unicode hex="0035"/>
  <outline>
    <contour>
      <point x="281" y="762" type="line"/>
      <point x="349" y="1456" type="line"/>
      <point x="1059" y="1456" type="line"/>
      <point x="1059" y="1403" type="line"/>
      <point x="398" y="1403" type="line"/>
      <point x="339" y="819" type="line"/>
      <point x="402" y="868"/>
      <point x="564" y="916"/>
      <point x="644" y="916" type="qcurve" smooth="yes"/>
      <point x="742" y="916"/>
      <point x="900" y="846"/>
      <point x="956.5" y="785.0" type="qcurve" smooth="yes" name="inserted"/>
      <point x="1013" y="724"/>
      <point x="1074" y="559"/>
      <point x="1074" y="464" type="qcurve" smooth="yes"/>
      <point x="1074" y="366"/>
      <point x="1026" y="191"/>
      <point x="975.5" y="124.5" type="qcurve" smooth="yes" name="inserted"/>
      <point x="925" y="58"/>
      <point x="770" y="-20"/>
      <point x="664" y="-20" type="qcurve" smooth="yes"/>
      <point x="572" y="-20"/>
      <point x="421" y="39"/>
      <point x="365.5" y="92.0" type="qcurve" smooth="yes" name="inserted"/>
      <point x="310" y="145"/>
      <point x="242" y="293"/>
      <point x="232" y="383" type="qcurve"/>
      <point x="287" y="383" type="line"/>
      <point x="296" y="303"/>
      <point x="355" y="175"/>
      <point x="403.0" y="129.0" type="qcurve" smooth="yes" name="inserted"/>
      <point x="451" y="83"/>
      <point x="582" y="34"/>
      <point x="664" y="34" type="qcurve" smooth="yes"/>
      <point x="758" y="34"/>
      <point x="893" y="103"/>
      <point x="936.0" y="161.5" type="qcurve" smooth="yes" name="inserted"/>
      <point x="979" y="220"/>
      <point x="1019" y="375"/>
      <point x="1019" y="462" type="qcurve" smooth="yes"/>
      <point x="1019" y="546"/>
      <point x="967" y="691"/>
      <point x="918.5" y="745.0" type="qcurve" smooth="yes" name="inserted"/>
      <point x="870" y="799"/>
      <point x="732" y="862"/>
      <point x="645" y="862" type="qcurve" smooth="yes"/>
      <point x="553" y="863"/>
      <point x="391" y="808"/>
      <point x="322" y="746" type="qcurve"/>
    </contour>
  </outline>
</glyph>
<glyph name="eight" format="2">
  <advance width="1229"/>
  <unicode hex="0038"/>
  <outline>
    <contour>
      <point x="1062" y="1086" type="qcurve" smooth="yes"/>
      <point x="1062" y="1021"/>
      <point x="1018" y="911"/>
      <point x="980.5" y="868.0" type="qcurve" smooth="yes" name="inserted"/>
      <point x="943" y="825"/>
      <point x="842" y="763"/>
      <point x="785" y="745" type="qcurve"/>
      <point x="849" y="728"/>
      <point x="965" y="663"/>
      <point x="1008.5" y="617.0" type="qcurve" smooth="yes" name="inserted"/>
      <point x="1052" y="571"/>
      <point x="1104" y="451"/>
      <point x="1104" y="379" type="qcurve" smooth="yes"/>
      <point x="1104" y="281"/>
      <point x="1028" y="132"/>
      <point x="963.5" y="81.5" type="qcurve" smooth="yes" name="inserted"/>
      <point x="899" y="31"/>
      <point x="731" y="-20"/>
      <point x="641" y="-20" type="qcurve" smooth="yes"/>
      <point x="550" y="-20"/>
      <point x="382" y="31"/>
      <point x="317.5" y="81.0" type="qcurve" smooth="yes" name="inserted"/>
      <point x="253" y="131"/>
      <point x="177" y="280"/>
      <point x="177" y="379" type="qcurve" smooth="yes"/>
      <point x="177" y="451"/>
      <point x="227" y="571"/>
      <point x="270.0" y="617.0" type="qcurve" smooth="yes" name="inserted"/>
      <point x="313" y="663"/>
      <point x="427" y="728"/>
      <point x="491" y="745" type="qcurve"/>
      <point x="434" y="763"/>
      <point x="335" y="824"/>
      <point x="298.0" y="867.5" type="qcurve" smooth="yes" name="inserted"/>
      <point x="261" y="911"/>
      <point x="218" y="1020"/>
      <point x="218" y="1086" type="qcurve" smooth="yes"/>
      <point x="218" y="1176"/>
      <point x="283" y="1321"/>
      <point x="340.0" y="1371.5" type="qcurve" smooth="yes" name="inserted"/>
      <point x="397" y="1422"/>
      <point x="550" y="1476"/>
      <point x="637" y="1476" type="qcurve" smooth="yes"/>
      <point x="723" y="1476"/>
      <point x="878" y="1422"/>
      <point x="936.0" y="1371.5" type="qcurve" smooth="yes" name="inserted"/>
      <point x="994" y="1321"/>
      <point x="1062" y="1176"/>
    </contour>
    <contour>
      <point x="1049" y="374" type="qcurve" smooth="yes"/>
      <point x="1049" y="457"/>
      <point x="978" y="585"/>
      <point x="920.0" y="629.0" type="qcurve" smooth="yes" name="inserted"/>
      <point x="862" y="673"/>
      <point x="715" y="718"/>
      <point x="639" y="718" type="qcurve" smooth="yes"/>
      <point x="563" y="718"/>
      <point x="417" y="673"/>
      <point x="359.5" y="629.5" type="qcurve" smooth="yes" name="inserted"/>
      <point x="302" y="586"/>
      <point x="231" y="457"/>
      <point x="231" y="374" type="qcurve" smooth="yes"/>
      <point x="231" y="289"/>
      <point x="301" y="161"/>
      <point x="359.0" y="118.5" type="qcurve" smooth="yes" name="inserted"/>
      <point x="417" y="76"/>
      <point x="564" y="34"/>
      <point x="641" y="34" type="qcurve" smooth="yes"/>
      <point x="718" y="34"/>
      <point x="865" y="77"/>
      <point x="922.0" y="119.5" type="qcurve" smooth="yes" name="inserted"/>
      <point x="979" y="162"/>
      <point x="1049" y="290"/>
    </contour>
    <contour>
      <point x="1008" y="1091" type="qcurve" smooth="yes"/>
      <point x="1008" y="1166"/>
      <point x="945" y="1289"/>
      <point x="893.5" y="1332.0" type="qcurve" smooth="yes" name="inserted"/>
      <point x="842" y="1375"/>
      <point x="708" y="1422"/>
      <point x="637" y="1422" type="qcurve" smooth="yes"/>
      <point x="564" y="1422"/>
      <point x="432" y="1376"/>
      <point x="381.5" y="1333.5" type="qcurve" smooth="yes" name="inserted"/>
      <point x="331" y="1291"/>
      <point x="272" y="1168"/>
      <point x="272" y="1091" type="qcurve" smooth="yes"/>
      <point x="272" y="1014"/>
      <point x="334" y="896"/>
      <point x="385.0" y="855.0" type="qcurve" smooth="yes" name="inserted"/>
      <point x="436" y="814"/>
      <point x="568" y="772"/>
      <point x="639" y="772" type="qcurve" smooth="yes"/>
      <point x="709" y="772"/>
      <point x="842" y="815"/>
      <point x="893.5" y="856.0" type="qcurve" smooth="yes" name="inserted"/>
      <point x="945" y="897"/>
      <point x="1008" y="1015"/>
    </contour>
  </outline>
</glyph>
<glyph name="nine" format="2">
  <advance width="1229"/>
  <unicode hex="0039"/>
  <outline>
    <contour>
      <point x="391" y="34" type="line" smooth="yes"/>
      <point x="545" y="35"/>
      <point x="772" y="141"/>
      <point x="848" y="233" type="qcurve" smooth="yes" name="inserted"/>
      <point x="923" y="324"/>
      <point x="997" y="573"/>
      <point x="998" y="718" type="qcurve"/>
      <point x="998" y="734" type="line"/>
      <point x="971" y="675"/>
      <point x="888" y="577"/>
      <point x="835" y="542" type="qcurve" smooth="yes" name="inserted"/>
      <point x="781" y="506"/>
      <point x="654" y="468"/>
      <point x="582" y="468" type="qcurve" smooth="yes"/>
      <point x="483" y="468"/>
      <point x="327" y="553"/>
      <point x="273" y="622" type="qcurve" smooth="yes" name="inserted"/>
      <point x="219" y="691"/>
      <point x="162" y="867"/>
      <point x="162" y="958" type="qcurve" smooth="yes"/>
      <point x="162" y="1051"/>
      <point x="218" y="1236"/>
      <point x="273" y="1310" type="qcurve" smooth="yes" name="inserted"/>
      <point x="327" y="1383"/>
      <point x="487" y="1475"/>
      <point x="590" y="1476" type="qcurve" smooth="yes"/>
      <point x="714.38910462383" y="1476.0"/>
      <point x="891" y="1381"/>
      <point x="942" y="1304" type="qcurve" smooth="yes"/>
      <point x="996" y="1223"/>
      <point x="1050.4862756855737" y="1013.5018749531273"/>
      <point x="1052" y="903" type="qcurve" smooth="yes"/>
      <point x="1052" y="740" type="line" smooth="yes"/>
      <point x="1052.0" y="581"/>
      <point x="972" y="304"/>
      <point x="891" y="202" type="qcurve" smooth="yes" name="inserted"/>
      <point x="810" y="100"/>
      <point x="562" y="-19"/>
      <point x="391" y="-20" type="qcurve" smooth="yes"/>
      <point x="357" y="-20" type="line"/>
      <point x="359" y="34" type="line"/>
    </contour>
    <contour>
      <point x="582" y="522" type="qcurve" smooth="yes"/>
      <point x="655" y="522"/>
      <point x="790" y="570"/>
      <point x="846" y="613" type="qcurve" smooth="yes" name="inserted"/>
      <point x="901" y="655"/>
      <point x="980" y="773"/>
      <point x="998" y="843" type="qcurve"/>
      <point x="998" y="902" type="line" smooth="yes"/>
      <point x="997" y="999"/>
      <point x="954" y="1186"/>
      <point x="906" y="1260" type="qcurve" smooth="yes" name="inserted"/>
      <point x="858" y="1333"/>
      <point x="705" y="1423"/>
      <point x="594" y="1422" type="qcurve" smooth="yes"/>
      <point x="500.488384235206" y="1420.4414730705869"/>
      <point x="355" y="1334"/>
      <point x="309" y="1264" type="qcurve" smooth="yes"/>
      <point x="264" y="1196"/>
      <point x="216.0" y="1035.986115808283"/>
      <point x="216" y="958" type="qcurve" smooth="yes"/>
      <point x="216" y="878"/>
      <point x="265" y="722"/>
      <point x="312" y="661" type="qcurve" smooth="yes" name="inserted"/>
      <point x="358" y="599"/>
      <point x="495" y="522"/>
    </contour>
  </outline>
</glyph>
<glyph name="equal" format="2">
  <advance width="1229"/>
  <unicode hex="003D"/>
  <outline>
    <contour>
      <point x="1066" y="843" type="line"/>
      <point x="175" y="843" type="line"/>
      <point x="175" y="897" type="line"/>
      <point x="1066" y="897" type="line"/>
    </contour>
    <contour>
      <point x="1066" y="436" type="line"/>
      <point x="175" y="436" type="line"/>
      <point x="175" y="490" type="line"/>
      <point x="1066" y="490" type="line"/>
    </contour>
  </outline>
</glyph>
<glyph name="greater" format="2">
  <advance width="1229"/>
  <unicode hex="003E"/>
  <outline>
    <contour>
      <point x="188" y="265" type="line"/>
      <point x="189" y="324" type="line"/>
      <point x="904" y="638" type="line"/>
      <point x="973" y="668" type="line"/>
      <point x="903" y="699" type="line"/>
      <point x="189" y="1013" type="line"/>
      <point x="188" y="1072" type="line"/>
      <point x="1053" y="694" type="line"/>
      <point x="1053" y="644" type="line"/>
    </contour>
  </outline>
</glyph>
<glyph name="question" format="2">
  <advance width="1229"/>
  <unicode hex="003F"/>
  <outline>
    <contour>
      <point x="569" y="400" type="line"/>
      <point x="572" y="455"/>
      <point x="594" y="547"/>
      <point x="615" y="588" type="qcurve" smooth="yes" name="inserted"/>
      <point x="635" y="629"/>
      <point x="696" y="703"/>
      <point x="737" y="740" type="qcurve" smooth="yes"/>
      <point x="780" y="779"/>
      <point x="856" y="859"/>
      <point x="884" y="903" type="qcurve" smooth="yes" name="inserted"/>
      <point x="912" y="947"/>
      <point x="943" y="1050"/>
      <point x="943" y="1112" type="qcurve" smooth="yes"/>
      <point x="943" y="1181"/>
      <point x="898" y="1295"/>
      <point x="858" y="1337" type="qcurve" smooth="yes" name="inserted"/>
      <point x="818" y="1378"/>
      <point x="704" y="1423"/>
      <point x="635" y="1423" type="qcurve" smooth="yes"/>
      <point x="565" y="1423"/>
      <point x="446" y="1380"/>
      <point x="403" y="1340" type="qcurve" smooth="yes" name="inserted"/>
      <point x="359" y="1300"/>
      <point x="307" y="1186"/>
      <point x="304" y="1116" type="qcurve"/>
      <point x="249" y="1116" type="line"/>
      <point x="254" y="1197"/>
      <point x="315" y="1329"/>
      <point x="366" y="1377" type="qcurve" smooth="yes" name="inserted"/>
      <point x="417" y="1424"/>
      <point x="554" y="1476"/>
      <point x="635" y="1476" type="qcurve" smooth="yes"/>
      <point x="715" y="1476"/>
      <point x="848" y="1422"/>
      <point x="896" y="1373" type="qcurve" smooth="yes" name="inserted"/>
      <point x="944" y="1324"/>
      <point x="997" y="1190"/>
      <point x="997" y="1110" type="qcurve" smooth="yes"/>
      <point x="997" y="1044"/>
      <point x="961" y="929"/>
      <point x="930" y="879" type="qcurve" smooth="yes" name="inserted"/>
      <point x="898" y="828"/>
      <point x="813" y="738"/>
      <point x="764" y="698" type="qcurve" smooth="yes"/>
      <point x="728" y="668"/>
      <point x="675" y="602"/>
      <point x="658" y="565" type="qcurve" smooth="yes"/>
      <point x="641" y="529"/>
      <point x="624" y="447"/>
      <point x="624" y="400" type="qcurve"/>
    </contour>
    <contour>
      <point x="544" y="49" type="qcurve" smooth="yes"/>
      <point x="544" y="72"/>
      <point x="579" y="105"/>
      <point x="601" y="105" type="qcurve" smooth="yes"/>
      <point x="623" y="105"/>
      <point x="659" y="72"/>
      <point x="659" y="49" type="qcurve" smooth="yes"/>
      <point x="659" y="26"/>
      <point x="623" y="-6"/>
      <point x="601" y="-6" type="qcurve" smooth="yes"/>
      <point x="579" y="-6"/>
      <point x="544" y="26"/>
    </contour>
  </outline>
</glyph>
<glyph name="at" format="2">
  <advance width="1229"/>
  <unicode hex="0040"/>
  <outline>
    <contour>
      <point x="1172" y="762" type="qcurve" smooth="yes"/>
      <point x="1170" y="688"/>
      <point x="1130" y="454"/>
      <point x="1076" y="372" type="qcurve" smooth="yes" name="inserted"/>
      <point x="1048" y="330"/>
      <point x="971" y="279"/>
      <point x="919" y="279" type="qcurve" smooth="yes"/>
      <point x="875" y="279"/>
      <point x="815" y="317"/>
      <point x="796" y="347" type="qcurve" smooth="yes" name="inserted"/>
      <point x="777" y="377"/>
      <point x="757" y="451"/>
      <point x="754" y="488" type="qcurve"/>
      <point x="736" y="449"/>
      <point x="691" y="374"/>
      <point x="663" y="345" type="qcurve" smooth="yes" name="inserted"/>
      <point x="635" y="315"/>
      <point x="567" y="279"/>
      <point x="528" y="279" type="qcurve" smooth="yes"/>
      <point x="459" y="279"/>
      <point x="376" y="373"/>
      <point x="361" y="435" type="qcurve" smooth="yes"/>
      <point x="341" y="518"/>
      <point x="338.0021040350605" y="651.5305085083768"/>
      <point x="341" y="695" type="qcurve" smooth="yes"/>
      <point x="348" y="782"/>
      <point x="394" y="952"/>
      <point x="435" y="1019" type="qcurve" smooth="yes" name="inserted"/>
      <point x="476" y="1086"/>
      <point x="599" y="1167"/>
      <point x="683" y="1167" type="qcurve" smooth="yes"/>
      <point x="734" y="1167"/>
      <point x="822" y="1115"/>
      <point x="857" y="1077" type="qcurve"/>
      <point x="806" y="572" type="line" smooth="yes"/>
      <point x="803" y="545"/>
      <point x="807" y="464"/>
      <point x="818" y="426" type="qcurve" smooth="yes" name="inserted"/>
      <point x="828" y="388"/>
      <point x="876" y="334"/>
      <point x="921" y="334" type="qcurve" smooth="yes"/>
      <point x="963" y="334"/>
      <point x="1024" y="382"/>
      <point x="1046" y="420" type="qcurve" smooth="yes" name="inserted"/>
      <point x="1088" y="495"/>
      <point x="1115" y="703"/>
      <point x="1117" y="762" type="qcurve" smooth="yes"/>
      <point x="1122" y="905"/>
      <point x="1080" y="1145"/>
      <point x="1029" y="1231" type="qcurve" smooth="yes" name="inserted"/>
      <point x="978" y="1317"/>
      <point x="811" y="1413"/>
      <point x="691" y="1413" type="qcurve" smooth="yes"/>
      <point x="581" y="1413"/>
      <point x="371" y="1314"/>
      <point x="288" y="1216" type="qcurve" smooth="yes"/>
      <point x="211" y="1125"/>
      <point x="115" y="855"/>
      <point x="109" y="677" type="qcurve" smooth="yes"/>
      <point x="104" y="558"/>
      <point x="151" y="307"/>
      <point x="220" y="215" type="qcurve" smooth="yes"/>
      <point x="279" y="136"/>
      <point x="479" y="41"/>
      <point x="628" y="41" type="qcurve" smooth="yes"/>
      <point x="661" y="41"/>
      <point x="734" y="54"/>
      <point x="771" y="65" type="qcurve" smooth="yes" name="inserted"/>
      <point x="808" y="76"/>
      <point x="875" y="105"/>
      <point x="902" y="121" type="qcurve"/>
      <point x="924" y="75" type="line"/>
      <point x="896" y="55"/>
      <point x="822" y="23"/>
      <point x="782" y="11" type="qcurve" smooth="yes" name="inserted"/>
      <point x="741" y="-1"/>
      <point x="660" y="-14"/>
      <point x="625" y="-14" type="qcurve" smooth="yes"/>
      <point x="459" y="-14"/>
      <point x="239" y="87"/>
      <point x="176" y="172" type="qcurve" smooth="yes"/>
      <point x="101" y="273"/>
      <point x="50" y="543"/>
      <point x="55" y="677" type="qcurve" smooth="yes"/>
      <point x="60" y="842"/>
      <point x="153" y="1149"/>
      <point x="240" y="1256" type="qcurve" smooth="yes"/>
      <point x="322" y="1356"/>
      <point x="545" y="1470"/>
      <point x="694" y="1470" type="qcurve" smooth="yes"/>
      <point x="844" y="1470"/>
      <point x="1032" y="1356"/>
      <point x="1084" y="1261" type="qcurve" smooth="yes"/>
      <point x="1140" y="1161"/>
      <point x="1175" y="896"/>
    </contour>
    <contour>
      <point x="394" y="695" type="qcurve" smooth="yes"/>
      <point x="391" y="663"/>
      <point x="394" y="509"/>
      <point x="408" y="457" type="qcurve" smooth="yes"/>
      <point x="420" y="411"/>
      <point x="474" y="333"/>
      <point x="526" y="333" type="qcurve" smooth="yes"/>
      <point x="574" y="333"/>
      <point x="647" y="395"/>
      <point x="675" y="441" type="qcurve" smooth="yes" name="inserted"/>
      <point x="702" y="486"/>
      <point x="743" y="591"/>
      <point x="759" y="633" type="qcurve"/>
      <point x="760" y="642" type="line"/>
      <point x="805" y="1052" type="line"/>
      <point x="778" y="1079"/>
      <point x="720" y="1112"/>
      <point x="680" y="1112" type="qcurve" smooth="yes"/>
      <point x="607" y="1112"/>
      <point x="507" y="1041"/>
      <point x="477" y="989" type="qcurve" smooth="yes"/>
      <point x="439" y="924"/>
      <point x="400.5546826273343" y="760.5468262733424"/>
    </contour>
  </outline>
</glyph>
<glyph name="A" format="2">
  <advance width="1229"/>
  <unicode hex="0041"/>
  <outline>
    <contour>
      <point x="939" y="435" type="line"/>
      <point x="320" y="435" type="line"/>
      <point x="178" y="0" type="line"/>
      <point x="122" y="0" type="line"/>
      <point x="599" y="1456" type="line"/>
      <point x="661" y="1456" type="line"/>
      <point x="1138" y="0" type="line"/>
      <point x="1082" y="0" type="line"/>
    </contour>
    <contour>
      <point x="337" y="489" type="line"/>
      <point x="922" y="489" type="line"/>
      <point x="630" y="1382" type="line"/>
    </contour>
  </outline>
</glyph>
<glyph name="B" format="2">
  <advance width="1229"/>
  <unicode hex="0042"/>
  <outline>
    <contour>
      <point x="217" y="0" type="line"/>
      <point x="217" y="1456" type="line"/>
      <point x="579" y="1456" type="line" smooth="yes"/>
      <point x="666" y="1455"/>
      <point x="829" y="1410"/>
      <point x="892.0" y="1365" type="qcurve" smooth="yes" name="inserted"/>
      <point x="955" y="1319"/>
      <point x="1031" y="1179"/>
      <point x="1031" y="1083" type="qcurve" smooth="yes"/>
      <point x="1031" y="1018"/>
      <point x="996" y="916"/>
      <point x="964" y="877" type="qcurve" smooth="yes" name="inserted"/>
      <point x="931" y="837"/>
      <point x="840" y="780"/>
      <point x="785" y="759" type="qcurve"/>
      <point x="786" y="754" type="line"/>
      <point x="850" y="740"/>
      <point x="962" y="678"/>
      <point x="1004" y="632.0" type="qcurve" smooth="yes" name="inserted"/>
      <point x="1045" y="586"/>
      <point x="1093" y="469"/>
      <point x="1093" y="401" type="qcurve" smooth="yes"/>
      <point x="1094" y="309"/>
      <point x="1027" y="163"/>
      <point x="969" y="111.0" type="qcurve" smooth="yes" name="inserted"/>
      <point x="910" y="59"/>
      <point x="754" y="2"/>
      <point x="667" y="0" type="qcurve" smooth="yes"/>
    </contour>
    <contour>
      <point x="270" y="719" type="line"/>
      <point x="270" y="54" type="line"/>
      <point x="667" y="54" type="line" smooth="yes"/>
      <point x="742" y="55"/>
      <point x="878" y="104"/>
      <point x="929.0" y="148.0" type="qcurve" smooth="yes" name="inserted"/>
      <point x="980" y="192"/>
      <point x="1040" y="319"/>
      <point x="1039" y="399" type="qcurve" smooth="yes"/>
      <point x="1039" y="474"/>
      <point x="977" y="592"/>
      <point x="927" y="633" type="qcurve" smooth="yes" name="inserted"/>
      <point x="876" y="673"/>
      <point x="746" y="717"/>
      <point x="676" y="719" type="qcurve" smooth="yes"/>
    </contour>
    <contour>
      <point x="270" y="773" type="line"/>
      <point x="599" y="773" type="line" smooth="yes"/>
      <point x="672" y="774"/>
      <point x="808" y="811"/>
      <point x="860.5" y="849.5" type="qcurve" smooth="yes" name="inserted"/>
      <point x="913" y="888"/>
      <point x="976" y="1005"/>
      <point x="976" y="1087" type="qcurve" smooth="yes"/>
      <point x="976" y="1171"/>
      <point x="908" y="1290"/>
      <point x="852.0" y="1327.5" type="qcurve" smooth="yes" name="inserted"/>
      <point x="796" y="1365"/>
      <point x="653" y="1401"/>
      <point x="579" y="1402" type="qcurve" smooth="yes"/>
      <point x="270" y="1402" type="line"/>
    </contour>
  </outline>
</glyph>
<glyph name="E" format="2">
  <advance width="1229"/>
  <unicode hex="0045"/>
  <outline>
    <contour>
      <point x="950" y="722" type="line"/>
      <point x="273" y="722" type="line"/>
      <point x="273" y="54" type="line"/>
      <point x="1045" y="54" type="line"/>
      <point x="1045" y="0" type="line"/>
      <point x="220" y="0" type="line"/>
      <point x="220" y="1456" type="line"/>
      <point x="1045" y="1456" type="line"/>
      <point x="1045" y="1402" type="line"/>
      <point x="273" y="1402" type="line"/>
      <point x="273" y="776" type="line"/>
      <point x="950" y="776" type="line"/>
    </contour>
  </outline>
</glyph>
<glyph name="F" format="2">
  <advance width="1229"/>
  <unicode hex="0046"/>
  <outline>
    <contour>
      <point x="964" y="716" type="line"/>
      <point x="282" y="716" type="line"/>
      <point x="282" y="0" type="line"/>
      <point x="230" y="0" type="line"/>
      <point x="230" y="1456" type="line"/>
      <point x="1057" y="1456" type="line"/>
      <point x="1057" y="1402" type="line"/>
      <point x="282" y="1402" type="line"/>
      <point x="282" y="772" type="line"/>
      <point x="964" y="772" type="line"/>
    </contour>
  </outline>
</glyph>
<glyph name="I" format="2">
  <advance width="1229"/>
  <unicode hex="0049"/>
  <outline>
    <contour>
      <point x="212" y="1456" type="line"/>
      <point x="1018" y="1456" type="line"/>
      <point x="1018" y="1400" type="line"/>
      <point x="637" y="1400" type="line"/>
      <point x="637" y="54" type="line"/>
      <point x="1018" y="54" type="line"/>
      <point x="1018" y="0" type="line"/>
      <point x="212" y="0" type="line"/>
      <point x="212" y="54" type="line"/>
      <point x="579" y="54" type="line"/>
      <point x="579" y="1400" type="line"/>
      <point x="212" y="1400" type="line"/>
    </contour>
  </outline>
</glyph>
<glyph name="L" format="2">
  <advance width="1229"/>
  <unicode hex="004C"/>
  <outline>
    <contour>
      <point x="297" y="54" type="line"/>
      <point x="1067" y="54" type="line"/>
      <point x="1067" y="0" type="line"/>
      <point x="242" y="0" type="line"/>
      <point x="242" y="1456" type="line"/>
      <point x="297" y="1456" type="line"/>
    </contour>
  </outline>
</glyph>
<glyph name="M" format="2">
  <advance width="1229"/>
  <unicode hex="004D"/>
  <outline>
    <contour>
      <point x="265" y="1456" type="line"/>
      <point x="614" y="541" type="line"/>
      <point x="983" y="1456" type="line"/>
      <point x="1067" y="1456" type="line"/>
      <point x="1067" y="0" type="line"/>
      <point x="1013" y="0" type="line"/>
      <point x="1013" y="708" type="line"/>
      <point x="1015" y="1383" type="line"/>
      <point x="638" y="470" type="line"/>
      <point x="588" y="470" type="line"/>
      <point x="239" y="1373" type="line"/>
      <point x="240" y="708" type="line"/>
      <point x="240" y="0" type="line"/>
      <point x="186" y="0" type="line"/>
      <point x="186" y="1456" type="line"/>
    </contour>
  </outline>
</glyph>
<glyph name="P" format="2">
  <advance width="1229"/>
  <unicode hex="0050"/>
  <outline>
    <contour>
      <point x="296" y="615" type="line"/>
      <point x="296" y="0" type="line"/>
      <point x="242" y="0" type="line"/>
      <point x="242" y="1456" type="line"/>
      <point x="686" y="1456" type="line" smooth="yes"/>
      <point x="779" y="1454"/>
      <point x="939" y="1393"/>
      <point x="998.0" y="1337.5" type="qcurve" smooth="yes" name="inserted"/>
      <point x="1057" y="1282"/>
      <point x="1124" y="1127"/>
      <point x="1124" y="1031" type="qcurve" smooth="yes"/>
      <point x="1124" y="935"/>
      <point x="1056" y="783"/>
      <point x="997.0" y="729.0" type="qcurve" smooth="yes" name="inserted"/>
      <point x="938" y="675"/>
      <point x="778" y="616"/>
      <point x="686" y="615" type="qcurve" smooth="yes"/>
    </contour>
    <contour>
      <point x="296" y="669" type="line"/>
      <point x="686" y="669" type="line" smooth="yes"/>
      <point x="765" y="670"/>
      <point x="905" y="721"/>
      <point x="957.0" y="767.5" type="qcurve" smooth="yes" name="inserted"/>
      <point x="1009" y="814"/>
      <point x="1070" y="946"/>
      <point x="1070" y="1029" type="qcurve" smooth="yes"/>
      <point x="1070" y="1113"/>
      <point x="1011" y="1249"/>
      <point x="959.5" y="1297.5" type="qcurve" smooth="yes" name="inserted"/>
      <point x="908" y="1346"/>
      <point x="767" y="1400"/>
      <point x="686" y="1402" type="qcurve" smooth="yes"/>
      <point x="296" y="1402" type="line"/>
    </contour>
  </outline>
</glyph>
<glyph name="W" format="2">
  <advance width="1229"/>
  <unicode hex="0057"/>
  <outline>
    <contour>
      <point x="330" y="0" type="line"/>
      <point x="97" y="1456" type="line"/>
      <point x="147" y="1456" type="line"/>
      <point x="329" y="330" type="line"/>
      <point x="357" y="146" type="line"/>
      <point x="387" y="330" type="line"/>
      <point x="612" y="1456" type="line"/>
      <point x="662" y="1456" type="line"/>
      <point x="885" y="330" type="line"/>
      <point x="914" y="144" type="line"/>
      <point x="944" y="330" type="line"/>
      <point x="1125" y="1456" type="line"/>
      <point x="1174" y="1456" type="line"/>
      <point x="941" y="0" type="line"/>
      <point x="891" y="0" type="line"/>
      <point x="656" y="1214" type="line"/>
      <point x="636" y="1320" type="line"/>
      <point x="617" y="1214" type="line"/>
      <point x="380" y="0" type="line"/>
    </contour>
  </outline>
</glyph>
<glyph name="X" format="2">
  <advance width="1229"/>
  <unicode hex="0058"/>
  <outline>
    <contour>
      <point x="633" y="785" type="line"/>
      <point x="1057" y="1456" type="line"/>
      <point x="1122" y="1456" type="line"/>
      <point x="667" y="743" type="line"/>
      <point x="1139" y="0" type="line"/>
      <point x="1076" y="0" type="line"/>
      <point x="633" y="701" type="line"/>
      <point x="190" y="0" type="line"/>
      <point x="128" y="0" type="line"/>
      <point x="600" y="743" type="line"/>
      <point x="145" y="1456" type="line"/>
      <point x="210" y="1456" type="line"/>
    </contour>
  </outline>
</glyph>
<glyph name="Y" format="2">
  <advance width="1229"/>
  <unicode hex="0059"/>
  <outline>
    <contour>
      <point x="597" y="602" type="line"/>
      <point x="1043" y="1456" type="line"/>
      <point x="1106" y="1456" type="line"/>
      <point x="624" y="553" type="line"/>
      <point x="624" y="0" type="line"/>
      <point x="572" y="0" type="line"/>
      <point x="571" y="553" type="line"/>
      <point x="90" y="1456" type="line"/>
      <point x="157" y="1456" type="line"/>
    </contour>
  </outline>
</glyph>
<glyph name="Z" format="2">
  <advance width="1229"/>
  <unicode hex="005A"/>
  <outline>
    <contour>
      <point x="212" y="54" type="line"/>
      <point x="1041" y="54" type="line"/>
      <point x="1041" y="0" type="line"/>
      <point x="144" y="0" type="line"/>
      <point x="143" y="44" type="line"/>
      <point x="944" y="1403" type="line"/>
      <point x="178" y="1403" type="line"/>
      <point x="178" y="1456" type="line"/>
      <point x="1014" y="1456" type="line"/>
      <point x="1015" y="1418" type="line"/>
    </contour>
  </outline>
</glyph>
<glyph name="bracketleft" format="2">
  <advance width="1229"/>
  <unicode hex="005B"/>
  <outline>
    <contour>
      <point x="774" y="1610" type="line"/>
      <point x="533" y="1610" type="line"/>
      <point x="533" y="-258" type="line"/>
      <point x="774" y="-258" type="line"/>
      <point x="774" y="-312" type="line"/>
      <point x="478" y="-312" type="line"/>
      <point x="478" y="1664" type="line"/>
      <point x="774" y="1664" type="line"/>
    </contour>
  </outline>
</glyph>
<glyph name="grave" format="2">
  <advance width="1229"/>
  <unicode hex="0060"/>
  <outline>
    <contour>
      <point x="737" y="1250" type="line"/>
      <point x="679" y="1250" type="line"/>
      <point x="492" y="1516" type="line"/>
      <point x="557" y="1516" type="line"/>
    </contour>
  </outline>
</glyph>
<glyph name="b" format="2">
  <advance width="1229"/>
  <unicode hex="0062"/>
  <outline>
    <contour>
      <point x="1053" y="531" type="line"/>
      <point x="1052" y="468"/>
      <point x="1032" y="337"/>
      <point x="1011.0" y="276.0" type="qcurve" smooth="yes" name="inserted"/>
      <point x="990" y="215"/>
      <point x="923" y="107"/>
      <point x="875.5" y="67.0" type="qcurve" smooth="yes" name="inserted"/>
      <point x="828" y="27"/>
      <point x="705" y="-20"/>
      <point x="627" y="-20" type="qcurve" smooth="yes"/>
      <point x="578" y="-20"/>
      <point x="478" y="4"/>
      <point x="431.5" y="27.0" type="qcurve" smooth="yes" name="inserted"/>
      <point x="385" y="50"/>
      <point x="306" y="117"/>
      <point x="278" y="160" type="qcurve"/>
      <point x="278" y="0" type="line"/>
      <point x="224" y="0" type="line"/>
      <point x="224" y="1536" type="line"/>
      <point x="278" y="1536" type="line"/>
      <point x="278" y="898" type="line"/>
      <point x="305" y="944"/>
      <point x="381" y="1020"/>
      <point x="426.0" y="1046.5" type="qcurve" smooth="yes" name="inserted"/>
      <point x="471" y="1073"/>
      <point x="572" y="1102"/>
      <point x="625" y="1102" type="qcurve" smooth="yes"/>
      <point x="704" y="1102"/>
      <point x="829" y="1056"/>
      <point x="876.0" y="1016.5" type="qcurve" smooth="yes" name="inserted"/>
      <point x="923" y="977"/>
      <point x="990" y="869"/>
      <point x="1011.5" y="808.0" type="qcurve" smooth="yes" name="inserted"/>
      <point x="1033" y="747"/>
      <point x="1052" y="616"/>
      <point x="1053" y="552" type="qcurve" smooth="yes"/>
    </contour>
    <contour>
      <point x="997" y="552" type="line" smooth="yes"/>
      <point x="996" y="607"/>
      <point x="980" y="724"/>
      <point x="962.5" y="779.0" type="qcurve" smooth="yes" name="inserted"/>
      <point x="945" y="834"/>
      <point x="889" y="932"/>
      <point x="847.5" y="968.5" type="qcurve" smooth="yes" name="inserted"/>
      <point x="806" y="1005"/>
      <point x="697" y="1048"/>
      <point x="626" y="1048" type="qcurve" smooth="yes"/>
      <point x="566" y="1048"/>
      <point x="456" y="1010"/>
      <point x="410.5" y="975.0" type="qcurve" smooth="yes" name="inserted"/>
      <point x="365" y="940"/>
      <point x="296" y="843"/>
      <point x="278" y="785" type="qcurve"/>
      <point x="278" y="261" type="line"/>
      <point x="297" y="206"/>
      <point x="372" y="121"/>
      <point x="419.0" y="92.0" type="qcurve" smooth="yes" name="inserted"/>
      <point x="466" y="63"/>
      <point x="574" y="34"/>
      <point x="628" y="34" type="qcurve" smooth="yes"/>
      <point x="698" y="34"/>
      <point x="808" y="77"/>
      <point x="848.5" y="114.0" type="qcurve" smooth="yes" name="inserted"/>
      <point x="889" y="151"/>
      <point x="946" y="249"/>
      <point x="963.5" y="304.0" type="qcurve" smooth="yes" name="inserted"/>
      <point x="981" y="359"/>
      <point x="996" y="475"/>
      <point x="997" y="531" type="qcurve" smooth="yes"/>
    </contour>
  </outline>
</glyph>
<glyph name="f" format="2">
  <advance width="1229"/>
  <unicode hex="0066"/>
  <outline>
    <contour>
      <point x="500" y="0" type="line"/>
      <point x="503" y="1027" type="line"/>
      <point x="210" y="1027" type="line"/>
      <point x="210" y="1082" type="line"/>
      <point x="503" y="1082" type="line"/>
      <point x="504" y="1177" type="line" smooth="yes"/>
      <point x="506" y="1295"/>
      <point x="580" y="1443"/>
      <point x="639" y="1485" type="qcurve" smooth="yes" name="inserted"/>
      <point x="698" y="1526"/>
      <point x="848" y="1557"/>
      <point x="926" y="1557" type="qcurve" smooth="yes"/>
      <point x="947" y="1557"/>
      <point x="988" y="1556"/>
      <point x="1008" y="1554" type="qcurve" smooth="yes"/>
      <point x="1034" y="1553"/>
      <point x="1086" y="1546"/>
      <point x="1112" y="1540" type="qcurve"/>
      <point x="1104" y="1488" type="line"/>
      <point x="1060" y="1497"/>
      <point x="973" y="1503"/>
      <point x="928" y="1503" type="qcurve" smooth="yes"/>
      <point x="849" y="1503"/>
      <point x="724" y="1477"/>
      <point x="672" y="1441" type="qcurve" smooth="yes"/>
      <point x="622" y="1404"/>
      <point x="559.0" y="1270"/>
      <point x="559" y="1177" type="qcurve" smooth="yes"/>
      <point x="559" y="1082" type="line"/>
      <point x="1004" y="1082" type="line"/>
      <point x="1004" y="1027" type="line"/>
      <point x="559" y="1027" type="line"/>
      <point x="563" y="0" type="line"/>
    </contour>
  </outline>
</glyph>
<glyph name="g" format="2">
  <advance width="1229"/>
  <unicode hex="0067"/>
  <outline>
    <contour>
      <point x="178" y="552" type="line" smooth="yes"/>
      <point x="178" y="643"/>
      <point x="219" y="828"/>
      <point x="266" y="909" type="qcurve" smooth="yes"/>
      <point x="315" y="991"/>
      <point x="481" y="1102"/>
      <point x="606" y="1102" type="qcurve" smooth="yes"/>
      <point x="658" y="1102"/>
      <point x="759" y="1073"/>
      <point x="804" y="1046" type="qcurve" smooth="yes" name="inserted"/>
      <point x="849" y="1019"/>
      <point x="925" y="943"/>
      <point x="952" y="897" type="qcurve"/>
      <point x="952" y="1082" type="line"/>
      <point x="1007" y="1082" type="line"/>
      <point x="1007" y="15" type="line" smooth="yes"/>
      <point x="1007" y="-78"/>
      <point x="952" y="-242"/>
      <point x="900" y="-303" type="qcurve" smooth="yes" name="inserted"/>
      <point x="848" y="-365"/>
      <point x="697" y="-436"/>
      <point x="598" y="-436" type="qcurve" smooth="yes"/>
      <point x="534" y="-436"/>
      <point x="418" y="-401"/>
      <point x="368" y="-369" type="qcurve" smooth="yes"/>
      <point x="334" y="-347"/>
      <point x="271" y="-289"/>
      <point x="244" y="-254" type="qcurve"/>
      <point x="282" y="-218" type="line"/>
      <point x="306" y="-247"/>
      <point x="359" y="-298"/>
      <point x="388" y="-318" type="qcurve" smooth="yes"/>
      <point x="432" y="-348"/>
      <point x="536" y="-383"/>
      <point x="596" y="-383" type="qcurve" smooth="yes"/>
      <point x="684" y="-383"/>
      <point x="817" y="-321"/>
      <point x="862" y="-267" type="qcurve" smooth="yes" name="inserted"/>
      <point x="906" y="-213"/>
      <point x="951" y="-68"/>
      <point x="952" y="15" type="qcurve" smooth="yes"/>
      <point x="952" y="160" type="line"/>
      <point x="924" y="117"/>
      <point x="845" y="50"/>
      <point x="799" y="27" type="qcurve" smooth="yes" name="inserted"/>
      <point x="753" y="4"/>
      <point x="653" y="-20"/>
      <point x="604" y="-20" type="qcurve" smooth="yes"/>
      <point x="489" y="-20"/>
      <point x="333" y="76"/>
      <point x="281" y="151" type="qcurve" smooth="yes"/>
      <point x="226" y="230"/>
      <point x="178" y="434"/>
      <point x="178" y="531" type="qcurve" smooth="yes"/>
    </contour>
    <contour>
      <point x="233" y="531" type="line" smooth="yes"/>
      <point x="234.5793294174325" y="444.1368820412136"/>
      <point x="275.65572800473007" y="256.8794748162952"/>
      <point x="322" y="186" type="qcurve" smooth="yes"/>
      <point x="362.38787698354747" y="118.6868716940874"/>
      <point x="504" y="34.0"/>
      <point x="603" y="34" type="qcurve" smooth="yes"/>
      <point x="657" y="34"/>
      <point x="765" y="64"/>
      <point x="813" y="93" type="qcurve" smooth="yes" name="inserted"/>
      <point x="860" y="122"/>
      <point x="933" y="207"/>
      <point x="952" y="262" type="qcurve"/>
      <point x="952" y="783" type="line"/>
      <point x="934" y="842"/>
      <point x="866" y="939"/>
      <point x="821" y="974" type="qcurve" smooth="yes" name="inserted"/>
      <point x="775" y="1009"/>
      <point x="665" y="1048"/>
      <point x="605" y="1048" type="qcurve" smooth="yes"/>
      <point x="493" y="1048"/>
      <point x="348" y="946"/>
      <point x="307" y="872" type="qcurve" smooth="yes"/>
      <point x="267" y="802"/>
      <point x="233" y="632"/>
      <point x="233" y="552" type="qcurve" smooth="yes"/>
    </contour>
  </outline>
</glyph>
<glyph name="j" format="2">
  <advance width="1229"/>
  <unicode hex="006A"/>
  <outline>
    <contour>
      <point x="303" y="1082" type="line"/>
      <point x="777" y="1082" type="line"/>
      <point x="777" y="6" type="line" smooth="yes"/>
      <point x="777" y="-93"/>
      <point x="724" y="-257"/>
      <point x="673.0" y="-315.0" type="qcurve" smooth="yes" name="inserted"/>
      <point x="622" y="-373"/>
      <point x="476" y="-437"/>
      <point x="383" y="-437" type="qcurve" smooth="yes"/>
      <point x="354" y="-437"/>
      <point x="304" y="-435"/>
      <point x="280.0" y="-433.0" type="qcurve" smooth="yes" name="inserted"/>
      <point x="256" y="-431"/>
      <point x="207" y="-425"/>
      <point x="179" y="-420" type="qcurve"/>
      <point x="183" y="-372" type="line"/>
      <point x="202" y="-375"/>
      <point x="257" y="-380"/>
      <point x="284.5" y="-381.5" type="qcurve" smooth="yes" name="inserted"/>
      <point x="312" y="-383"/>
      <point x="363" y="-384"/>
      <point x="379" y="-384" type="qcurve" smooth="yes"/>
      <point x="447" y="-384"/>
      <point x="572" y="-343"/>
      <point x="619.5" y="-296.5" type="qcurve" smooth="yes" name="inserted"/>
      <point x="667" y="-250"/>
      <point x="723" y="-102"/>
      <point x="723" y="6" type="qcurve" smooth="yes"/>
      <point x="723" y="1028" type="line"/>
      <point x="303" y="1028" type="line"/>
    </contour>
    <contour>
      <point x="670" y="1391" type="qcurve" smooth="yes"/>
      <point x="670" y="1422"/>
      <point x="701" y="1465"/>
      <point x="741" y="1465" type="qcurve" smooth="yes"/>
      <point x="780" y="1465"/>
      <point x="812.0" y="1421"/>
      <point x="812" y="1391" type="qcurve" smooth="yes"/>
      <point x="812" y="1364"/>
      <point x="781" y="1320"/>
      <point x="741" y="1320" type="qcurve" smooth="yes"/>
      <point x="699" y="1320"/>
      <point x="670" y="1364"/>
    </contour>
  </outline>
</glyph>
<glyph name="l" format="2">
  <advance width="1229"/>
  <unicode hex="006C"/>
  <outline>
    <contour>
      <point x="239" y="1536" type="line"/>
      <point x="694" y="1536" type="line"/>
      <point x="694" y="54" type="line"/>
      <point x="1074" y="54" type="line"/>
      <point x="1074" y="0" type="line"/>
      <point x="239" y="0" type="line"/>
      <point x="239" y="54" type="line"/>
      <point x="640" y="54" type="line"/>
      <point x="640" y="1482" type="line"/>
      <point x="239" y="1482" type="line"/>
    </contour>
  </outline>
</glyph>
<glyph name="m" format="2">
  <advance width="1229"/>
  <unicode hex="006D"/>
  <outline>
    <contour>
      <point x="135" y="1082" type="line"/>
      <point x="137" y="940" type="line"/>
      <point x="168" y="1010"/>
      <point x="291" y="1100"/>
      <point x="393" y="1102" type="qcurve" smooth="yes"/>
      <point x="447" y="1102"/>
      <point x="526" y="1075"/>
      <point x="554" y="1052" type="qcurve" smooth="yes" name="inserted"/>
      <point x="582" y="1029"/>
      <point x="616" y="968"/>
      <point x="625" y="935" type="qcurve"/>
      <point x="641" y="968"/>
      <point x="691" y="1028"/>
      <point x="726" y="1051" type="qcurve" smooth="yes" name="inserted"/>
      <point x="760" y="1074"/>
      <point x="846" y="1102"/>
      <point x="898" y="1102" type="qcurve" smooth="yes"/>
      <point x="978.5533879802318" y="1102.0"/>
      <point x="1079.611692750663" y="1040.7766144986742"/>
      <point x="1103" y="994" type="qcurve" smooth="yes"/>
      <point x="1128.931424929436" y="948.6200063734871"/>
      <point x="1145" y="845"/>
      <point x="1145" y="800" type="qcurve" smooth="yes"/>
      <point x="1143" y="0" type="line"/>
      <point x="1094" y="0" type="line"/>
      <point x="1092" y="800" type="line" smooth="yes"/>
      <point x="1092" y="835"/>
      <point x="1081" y="923"/>
      <point x="1061" y="962" type="qcurve" smooth="yes" name="inserted"/>
      <point x="1041" y="1000"/>
      <point x="963" y="1051"/>
      <point x="896" y="1049" type="qcurve" smooth="yes"/>
      <point x="830" y="1047"/>
      <point x="741" y="1007"/>
      <point x="712" y="976" type="qcurve" smooth="yes" name="inserted"/>
      <point x="683" y="945"/>
      <point x="650" y="871"/>
      <point x="639" y="836" type="qcurve"/>
      <point x="639" y="831"/>
      <point x="640" y="824"/>
      <point x="640" y="820" type="qcurve"/>
      <point x="638" y="0" type="line"/>
      <point x="589" y="0" type="line"/>
      <point x="587" y="820" type="line" smooth="yes"/>
      <point x="586" y="855"/>
      <point x="574" y="936"/>
      <point x="554" y="971" type="qcurve" smooth="yes" name="inserted"/>
      <point x="533" y="1005"/>
      <point x="456" y="1050"/>
      <point x="391" y="1049" type="qcurve" smooth="yes"/>
      <point x="321" y="1047"/>
      <point x="232" y="999"/>
      <point x="204" y="962" type="qcurve" smooth="yes" name="inserted"/>
      <point x="176" y="924"/>
      <point x="147" y="832"/>
      <point x="137" y="788" type="qcurve"/>
      <point x="135" y="0" type="line"/>
      <point x="86" y="0" type="line"/>
      <point x="86" y="1082" type="line"/>
    </contour>
  </outline>
</glyph>
<glyph name="n" format="2">
  <advance width="1229"/>
  <unicode hex="006E"/>
  <outline>
    <contour>
      <point x="212" y="0" type="line"/>
      <point x="212" y="1082" type="line"/>
      <point x="267" y="1082" type="line"/>
      <point x="267" y="822" type="line"/>
      <point x="293" y="882"/>
      <point x="372" y="985"/>
      <point x="423.5" y="1022.0" type="qcurve" smooth="yes" name="inserted"/>
      <point x="475" y="1059"/>
      <point x="599" y="1102"/>
      <point x="670" y="1102" type="qcurve" smooth="yes"/>
      <point x="763" y="1102"/>
      <point x="898" y="1042"/>
      <point x="942.0" y="988.5" type="qcurve" smooth="yes" name="inserted"/>
      <point x="986" y="935"/>
      <point x="1029" y="787"/>
      <point x="1029" y="700" type="qcurve" smooth="yes"/>
      <point x="1030" y="0" type="line"/>
      <point x="975" y="0" type="line"/>
      <point x="975" y="700" type="line" smooth="yes"/>
      <point x="974" y="776"/>
      <point x="939" y="905"/>
      <point x="902.0" y="951.5" type="qcurve" smooth="yes" name="inserted"/>
      <point x="865" y="998"/>
      <point x="749" y="1050"/>
      <point x="667" y="1049" type="qcurve" smooth="yes"/>
      <point x="594" y="1048"/>
      <point x="462" y="992"/>
      <point x="409.0" y="945.0" type="qcurve" smooth="yes" name="inserted"/>
      <point x="356" y="898"/>
      <point x="282" y="772"/>
      <point x="267" y="702" type="qcurve"/>
      <point x="267" y="0" type="line"/>
    </contour>
  </outline>
</glyph>
<glyph name="q" format="2">
  <advance width="1229"/>
  <unicode hex="0071"/>
  <outline>
    <contour>
      <point x="177" y="552" type="line" smooth="yes"/>
      <point x="177" y="649"/>
      <point x="222" y="837"/>
      <point x="276" y="928" type="qcurve" smooth="yes"/>
      <point x="323" y="1008"/>
      <point x="488" y="1102"/>
      <point x="605" y="1102" type="qcurve" smooth="yes"/>
      <point x="657" y="1102"/>
      <point x="758" y="1074"/>
      <point x="803" y="1048" type="qcurve" smooth="yes" name="inserted"/>
      <point x="848" y="1022"/>
      <point x="924" y="948"/>
      <point x="952" y="902" type="qcurve"/>
      <point x="952" y="1082" type="line"/>
      <point x="1006" y="1082" type="line"/>
      <point x="1006" y="-416" type="line"/>
      <point x="952" y="-416" type="line"/>
      <point x="952" y="157" type="line"/>
      <point x="923" y="115"/>
      <point x="843" y="49"/>
      <point x="797" y="27" type="qcurve" smooth="yes" name="inserted"/>
      <point x="751" y="4"/>
      <point x="651" y="-20"/>
      <point x="603" y="-20" type="qcurve" smooth="yes"/>
      <point x="487.2962871076295" y="-20.0"/>
      <point x="329.1689501717036" y="78.28095562984755"/>
      <point x="277" y="155" type="qcurve" smooth="yes"/>
      <point x="224.68209246919946" y="233.4768612962008"/>
      <point x="177.0" y="434.95602728743796"/>
      <point x="177" y="531" type="qcurve" smooth="yes"/>
    </contour>
    <contour>
      <point x="233" y="531" type="line" smooth="yes"/>
      <point x="233.0" y="447.14171113751775"/>
      <point x="271.41202640491423" y="267.6466226584762"/>
      <point x="315" y="195" type="qcurve" smooth="yes"/>
      <point x="357.350704240622" y="128.44889333616533"/>
      <point x="495.93914254956127" y="34.0"/>
      <point x="602" y="34" type="qcurve" smooth="yes"/>
      <point x="655" y="34"/>
      <point x="762" y="63"/>
      <point x="809" y="91" type="qcurve" smooth="yes" name="inserted"/>
      <point x="856" y="119"/>
      <point x="931" y="202"/>
      <point x="952" y="255" type="qcurve"/>
      <point x="952" y="791" type="line"/>
      <point x="932" y="848"/>
      <point x="862" y="942"/>
      <point x="816" y="976" type="qcurve" smooth="yes" name="inserted"/>
      <point x="770" y="1010"/>
      <point x="661" y="1048"/>
      <point x="604" y="1048" type="qcurve" smooth="yes"/>
      <point x="500" y="1048"/>
      <point x="362" y="959"/>
      <point x="318" y="891" type="qcurve" smooth="yes"/>
      <point x="268" y="813"/>
      <point x="233" y="637"/>
      <point x="233" y="552" type="qcurve" smooth="yes"/>
    </contour>
  </outline>
</glyph>
<glyph name="s" format="2">
  <advance width="1229"/>
  <unicode hex="0073"/>
  <outline>
    <contour>
      <point x="1003" y="265" type="qcurve" smooth="yes"/>
      <point x="1003" y="326"/>
      <point x="940" y="414"/>
      <point x="893" y="443" type="qcurve" smooth="yes"/>
      <point x="838" y="477"/>
      <point x="696" y="520"/>
      <point x="640" y="532" type="qcurve" smooth="yes"/>
      <point x="568" y="547"/>
      <point x="444" y="581"/>
      <point x="378" y="614" type="qcurve" smooth="yes"/>
      <point x="321" y="643"/>
      <point x="243" y="748"/>
      <point x="243" y="829" type="qcurve" smooth="yes"/>
      <point x="243" y="903"/>
      <point x="319" y="1008"/>
      <point x="380" y="1042" type="qcurve" smooth="yes"/>
      <point x="434" y="1072"/>
      <point x="573" y="1102"/>
      <point x="635" y="1102" type="qcurve" smooth="yes"/>
      <point x="711" y="1102"/>
      <point x="857" y="1068"/>
      <point x="916" y="1031" type="qcurve" smooth="yes" name="inserted"/>
      <point x="974" y="994"/>
      <point x="1050" y="877"/>
      <point x="1056" y="793" type="qcurve"/>
      <point x="1000" y="793" type="line"/>
      <point x="998" y="862"/>
      <point x="928" y="959"/>
      <point x="875" y="990" type="qcurve" smooth="yes" name="inserted"/>
      <point x="821" y="1020"/>
      <point x="694" y="1048"/>
      <point x="635" y="1048" type="qcurve" smooth="yes"/>
      <point x="585" y="1048"/>
      <point x="468" y="1027"/>
      <point x="417" y="1002" type="qcurve" smooth="yes" name="inserted"/>
      <point x="366" y="977"/>
      <point x="297" y="894"/>
      <point x="297" y="831" type="qcurve" smooth="yes"/>
      <point x="297" y="769"/>
      <point x="360" y="681"/>
      <point x="414" y="654" type="qcurve" smooth="yes"/>
      <point x="469" y="624"/>
      <point x="604" y="590"/>
      <point x="657" y="579" type="qcurve" smooth="yes"/>
      <point x="721" y="565"/>
      <point x="862" y="523"/>
      <point x="922" y="488" type="qcurve" smooth="yes" name="inserted"/>
      <point x="981" y="453"/>
      <point x="1057" y="345"/>
      <point x="1057" y="264" type="qcurve" smooth="yes"/>
      <point x="1057.0" y="195.61290322580646"/>
      <point x="994.4444444444445" y="95.11111111111113"/>
      <point x="950" y="64" type="qcurve" smooth="yes"/>
      <point x="883.9450091833029" y="17.516858314176005"/>
      <point x="718.4186475315234" y="-20.0"/>
      <point x="644" y="-20" type="qcurve" smooth="yes"/>
      <point x="570" y="-20"/>
      <point x="415" y="14"/>
      <point x="353" y="48" type="qcurve" smooth="yes"/>
      <point x="290" y="83"/>
      <point x="210" y="195"/>
      <point x="204" y="275" type="qcurve"/>
      <point x="259" y="275" type="line"/>
      <point x="267" y="204"/>
      <point x="344" y="111"/>
      <point x="399" y="84" type="qcurve" smooth="yes" name="inserted"/>
      <point x="453" y="56"/>
      <point x="583" y="34"/>
      <point x="644" y="34" type="qcurve" smooth="yes"/>
      <point x="713" y="34"/>
      <point x="855.3633505791519" y="69.00680614790703"/>
      <point x="915" y="108" type="qcurve" smooth="yes"/>
      <point x="956.2459761905819" y="137.46141156470142"/>
      <point x="1003" y="214"/>
    </contour>
  </outline>
</glyph>
<glyph name="t" format="2">
  <advance width="1229"/>
  <unicode hex="0074"/>
  <outline>
    <contour>
      <point x="573" y="1374" type="line"/>
      <point x="572" y="1082" type="line"/>
      <point x="962" y="1082" type="line"/>
      <point x="962" y="1027" type="line"/>
      <point x="572" y="1027" type="line"/>
      <point x="572" y="259" type="line" smooth="yes"/>
      <point x="574" y="196"/>
      <point x="615" y="111"/>
      <point x="651" y="85" type="qcurve" smooth="yes" name="inserted"/>
      <point x="687" y="58"/>
      <point x="784" y="34"/>
      <point x="842" y="34" type="qcurve" smooth="yes"/>
      <point x="869" y="34"/>
      <point x="921" y="36"/>
      <point x="947" y="38" type="qcurve" smooth="yes"/>
      <point x="960" y="39"/>
      <point x="988" y="42"/>
      <point x="1001" y="43" type="qcurve"/>
      <point x="1012" y="-8" type="line"/>
      <point x="998" y="-11"/>
      <point x="970" y="-15"/>
      <point x="956" y="-16" type="qcurve" smooth="yes"/>
      <point x="929" y="-19"/>
      <point x="875" y="-20"/>
      <point x="847" y="-20" type="qcurve" smooth="yes"/>
      <point x="775" y="-20"/>
      <point x="655" y="9"/>
      <point x="611" y="42" type="qcurve" smooth="yes" name="inserted"/>
      <point x="567" y="75"/>
      <point x="517" y="181"/>
      <point x="515" y="259" type="qcurve" smooth="yes"/>
      <point x="515" y="1027" type="line"/>
      <point x="197" y="1027" type="line"/>
      <point x="197" y="1082" type="line"/>
      <point x="515" y="1082" type="line"/>
      <point x="515" y="1374" type="line"/>
    </contour>
  </outline>
</glyph>
<glyph name="v" format="2">
  <advance width="1229"/>
  <unicode hex="0076"/>
  <outline>
    <contour>
      <point x="584" y="0" type="line"/>
      <point x="116" y="1082" type="line"/>
      <point x="177" y="1082" type="line"/>
      <point x="583" y="146" type="line"/>
      <point x="612" y="79" type="line"/>
      <point x="640" y="144" type="line"/>
      <point x="1047" y="1082" type="line"/>
      <point x="1108" y="1082" type="line"/>
      <point x="639" y="0" type="line"/>
    </contour>
  </outline>
</glyph>
<glyph name="w" format="2">
  <advance width="1229"/>
  <unicode hex="0077"/>
  <outline>
    <contour>
      <point x="326" y="0" type="line"/>
      <point x="77" y="1082" type="line"/>
      <point x="134" y="1082" type="line"/>
      <point x="310" y="313" type="line"/>
      <point x="352" y="100" type="line"/>
      <point x="405" y="313" type="line"/>
      <point x="598" y="1082" type="line"/>
      <point x="648" y="1082" type="line"/>
      <point x="841" y="313" type="line"/>
      <point x="893" y="100" type="line"/>
      <point x="936" y="313" type="line"/>
      <point x="1112" y="1082" type="line"/>
      <point x="1169" y="1082" type="line"/>
      <point x="920" y="0" type="line"/>
      <point x="871" y="0" type="line"/>
      <point x="658" y="813" type="line"/>
      <point x="623" y="985" type="line"/>
      <point x="585" y="813" type="line"/>
      <point x="375" y="0" type="line"/>
    </contour>
  </outline>
</glyph>
<glyph name="y" format="2">
  <advance width="1229"/>
  <unicode hex="0079"/>
  <outline>
    <contour>
      <point x="239" y="-437" type="qcurve" smooth="yes"/>
      <point x="217" y="-437" name="inserted"/>
      <point x="172" y="-431"/>
      <point x="149" y="-426" type="qcurve"/>
      <point x="147" y="-375" type="line"/>
      <point x="167" y="-378"/>
      <point x="209" y="-384"/>
      <point x="230" y="-384" type="qcurve" smooth="yes"/>
      <point x="284" y="-384"/>
      <point x="372" y="-353"/>
      <point x="407" y="-324" type="qcurve" smooth="yes" name="inserted"/>
      <point x="442" y="-296"/>
      <point x="496" y="-217"/>
      <point x="517" y="-170" type="qcurve"/>
      <point x="592" y="2" type="line"/>
      <point x="84" y="1082" type="line"/>
      <point x="147" y="1082" type="line"/>
      <point x="593" y="137" type="line"/>
      <point x="623" y="74" type="line"/>
      <point x="650" y="136" type="line"/>
      <point x="1076" y="1082" type="line"/>
      <point x="1141" y="1082" type="line"/>
      <point x="572" y="-180" type="line"/>
      <point x="547" y="-236"/>
      <point x="486" y="-329"/>
      <point x="447" y="-363" type="qcurve" smooth="yes" name="inserted"/>
      <point x="407" y="-398"/>
      <point x="305" y="-437"/>
    </contour>
  </outline>
</glyph>
<glyph name="z" format="2">
  <advance width="1229"/>
  <unicode hex="007A"/>
  <outline>
    <contour>
      <point x="217" y="54" type="line"/>
      <point x="1111" y="54" type="line"/>
      <point x="1111" y="0" type="line"/>
      <point x="137" y="0" type="line"/>
      <point x="138" y="44" type="line"/>
      <point x="963" y="1027" type="line"/>
      <point x="173" y="1027" type="line"/>
      <point x="173" y="1082" type="line"/>
      <point x="1043" y="1082" type="line"/>
      <point x="1042" y="1034" type="line"/>
    </contour>
  </outline>
</glyph>
<glyph name="braceleft" format="2">
  <advance width="1229"/>
  <unicode hex="007B"/>
  <outline>
    <contour>
      <point x="970" y="-441" type="line"/>
      <point x="884" y="-413"/>
      <point x="752" y="-328"/>
      <point x="708" y="-270" type="qcurve" smooth="yes"/>
      <point x="665" y="-214"/>
      <point x="619" y="-69"/>
      <point x="618" y="20" type="qcurve" smooth="yes"/>
      <point x="618" y="265" type="line" smooth="yes"/>
      <point x="616" y="399"/>
      <point x="470" y="538"/>
      <point x="339" y="543" type="qcurve"/>
      <point x="339" y="609" type="line"/>
      <point x="469" y="614"/>
      <point x="616" y="752"/>
      <point x="618" y="885" type="qcurve" smooth="yes"/>
      <point x="618" y="1132" type="line" smooth="yes"/>
      <point x="619" y="1220"/>
      <point x="664" y="1366"/>
      <point x="707" y="1423" type="qcurve" smooth="yes"/>
      <point x="751" y="1482"/>
      <point x="884" y="1569"/>
      <point x="969" y="1597" type="qcurve"/>
      <point x="985" y="1552" type="line"/>
      <point x="907" y="1526"/>
      <point x="787" y="1443"/>
      <point x="747" y="1387" type="qcurve" smooth="yes"/>
      <point x="710" y="1336"/>
      <point x="672" y="1208"/>
      <point x="672" y="1132" type="qcurve" smooth="yes"/>
      <point x="672" y="885" type="line" smooth="yes"/>
      <point x="672" y="754"/>
      <point x="536" y="599"/>
      <point x="423" y="576" type="qcurve"/>
      <point x="536" y="552"/>
      <point x="670" y="395"/>
      <point x="672" y="265" type="qcurve" smooth="yes"/>
      <point x="672" y="20" type="line" smooth="yes"/>
      <point x="673" y="-60"/>
      <point x="718" y="-190"/>
      <point x="759" y="-241" type="qcurve" smooth="yes" name="inserted"/>
      <point x="800" y="-293"/>
      <point x="917" y="-370"/>
      <point x="990" y="-395" type="qcurve"/>
    </contour>
  </outline>
</glyph>
<glyph name="bar" format="2">
  <advance width="1229"/>
  <unicode hex="007C"/>
  <outline>
    <contour>
      <point x="642" y="-270" type="line"/>
      <point x="588" y="-270" type="line"/>
      <point x="588" y="1456" type="line"/>
      <point x="642" y="1456" type="line"/>
    </contour>
  </outline>
</glyph>
<glyph name="braceright" format="2">
  <advance width="1229"/>
  <unicode hex="007D"/>
  <outline>
    <contour>
      <point x="338" y="-395" type="line"/>
      <point x="411" y="-370"/>
      <point x="527" y="-293"/>
      <point x="568" y="-241" type="qcurve" smooth="yes" name="inserted"/>
      <point x="609" y="-189"/>
      <point x="654" y="-59"/>
      <point x="655" y="20" type="qcurve" smooth="yes"/>
      <point x="655" y="265" type="line" smooth="yes"/>
      <point x="656" y="337"/>
      <point x="698" y="449"/>
      <point x="736" y="489" type="qcurve" smooth="yes"/>
      <point x="767" y="521"/>
      <point x="853" y="565"/>
      <point x="904" y="576" type="qcurve"/>
      <point x="854" y="586"/>
      <point x="770" y="629"/>
      <point x="738" y="660" type="qcurve" smooth="yes"/>
      <point x="699" y="699"/>
      <point x="656" y="812"/>
      <point x="655" y="885" type="qcurve" smooth="yes"/>
      <point x="655" y="1132" type="line" smooth="yes"/>
      <point x="654" y="1223"/>
      <point x="599" y="1372"/>
      <point x="547" y="1427" type="qcurve" smooth="yes"/>
      <point x="509" y="1468"/>
      <point x="406" y="1531"/>
      <point x="343" y="1552" type="qcurve"/>
      <point x="358" y="1597" type="line"/>
      <point x="429" y="1574"/>
      <point x="544" y="1506"/>
      <point x="586" y="1463" type="qcurve" smooth="yes"/>
      <point x="645" y="1402"/>
      <point x="708" y="1237"/>
      <point x="709" y="1132" type="qcurve" smooth="yes"/>
      <point x="709" y="885" type="line" smooth="yes"/>
      <point x="710" y="823"/>
      <point x="744" y="726"/>
      <point x="775" y="692" type="qcurve" smooth="yes"/>
      <point x="811" y="653"/>
      <point x="919" y="612"/>
      <point x="988" y="609" type="qcurve"/>
      <point x="988" y="543" type="line"/>
      <point x="917" y="540"/>
      <point x="807" y="496"/>
      <point x="772" y="456" type="qcurve" smooth="yes"/>
      <point x="742" y="421"/>
      <point x="709.0" y="326"/>
      <point x="709" y="265" type="qcurve" smooth="yes"/>
      <point x="709" y="20" type="line" smooth="yes"/>
      <point x="709.0" y="-74"/>
      <point x="657" y="-226"/>
      <point x="608" y="-284" type="qcurve" smooth="yes"/>
      <point x="564" y="-337"/>
      <point x="437" y="-415"/>
      <point x="357" y="-441" type="qcurve"/>
    </contour>
  </outline>
</glyph>
<glyph name="cent" format="2">
  <advance width="1229"/>
  <unicode hex="00A2"/>
  <outline>
    <contour>
      <point x="635" y="34" type="qcurve" smooth="yes"/>
      <point x="704" y="34"/>
      <point x="827" y="72"/>
      <point x="874.5" y="109.5" type="qcurve" smooth="yes" name="inserted"/>
      <point x="922" y="147"/>
      <point x="982" y="257"/>
      <point x="990" y="328" type="qcurve"/>
      <point x="1044" y="328" type="line"/>
      <point x="1037" y="252"/>
      <point x="974" y="129"/>
      <point x="925.0" y="84.5" type="qcurve" smooth="yes" name="inserted"/>
      <point x="876" y="40"/>
      <point x="748" y="-12"/>
      <point x="675" y="-18" type="qcurve"/>
      <point x="675" y="-245" type="line"/>
      <point x="619" y="-245" type="line"/>
      <point x="619" y="-19" type="line"/>
      <point x="509" y="-16"/>
      <point x="346" y="78"/>
      <point x="292.0" y="153.0" type="qcurve" smooth="yes" name="inserted"/>
      <point x="238" y="228"/>
      <point x="185" y="419"/>
      <point x="184" y="520" type="qcurve" smooth="yes"/>
      <point x="184" y="562" type="line" smooth="yes"/>
      <point x="185" y="663"/>
      <point x="238" y="854"/>
      <point x="292.0" y="929.0" type="qcurve" smooth="yes" name="inserted"/>
      <point x="346" y="1004"/>
      <point x="509" y="1098"/>
      <point x="619" y="1101" type="qcurve"/>
      <point x="619" y="1318" type="line"/>
      <point x="675" y="1318" type="line"/>
      <point x="675" y="1100" type="line"/>
      <point x="752" y="1093"/>
      <point x="882" y="1034"/>
      <point x="930.0" y="985.0" type="qcurve" smooth="yes" name="inserted"/>
      <point x="978" y="936"/>
      <point x="1038" y="804"/>
      <point x="1044" y="725" type="qcurve"/>
      <point x="990" y="725" type="line"/>
      <point x="984" y="798"/>
      <point x="926" y="917"/>
      <point x="878.5" y="959.5" type="qcurve" smooth="yes" name="inserted"/>
      <point x="831" y="1002"/>
      <point x="706" y="1048"/>
      <point x="633" y="1048" type="qcurve" smooth="yes"/>
      <point x="530" y="1048"/>
      <point x="382" y="965"/>
      <point x="333.5" y="896.5" type="qcurve" smooth="yes" name="inserted"/>
      <point x="285" y="828"/>
      <point x="239" y="653"/>
      <point x="238" y="562" type="qcurve"/>
      <point x="238" y="520" type="line" smooth="yes"/>
      <point x="239" y="427"/>
      <point x="285" y="253"/>
      <point x="333.5" y="185.0" type="qcurve" smooth="yes" name="inserted"/>
      <point x="382" y="117"/>
      <point x="531" y="34"/>
    </contour>
  </outline>
</glyph>
<glyph name="currency" format="2">
  <advance width="1229"/>
  <unicode hex="00A4"/>
  <outline>
    <contour>
      <point x="982" y="152" type="line"/>
      <point x="919" y="74"/>
      <point x="745" y="-20"/>
      <point x="634" y="-20" type="qcurve" smooth="yes"/>
      <point x="524" y="-20"/>
      <point x="350" y="74"/>
      <point x="286" y="151" type="qcurve"/>
      <point x="137" y="-26" type="line"/>
      <point x="99" y="13" type="line"/>
      <point x="253" y="195" type="line"/>
      <point x="190.84203070227338" y="285.2293102708935"/>
      <point x="128.0" y="502.2687072671364"/>
      <point x="128" y="608" type="qcurve" smooth="yes"/>
      <point x="128.0" y="716.0"/>
      <point x="195.0" y="942.0000000000001"/>
      <point x="261" y="1032" type="qcurve"/>
      <point x="99" y="1225" type="line"/>
      <point x="137" y="1264" type="line"/>
      <point x="296" y="1075" type="line"/>
      <point x="359" y="1147"/>
      <point x="528" y="1234"/>
      <point x="634" y="1234" type="qcurve" smooth="yes"/>
      <point x="740" y="1234"/>
      <point x="909" y="1146"/>
      <point x="972" y="1074" type="qcurve"/>
      <point x="1134" y="1265" type="line"/>
      <point x="1173" y="1225" type="line"/>
      <point x="1008" y="1029" type="line"/>
      <point x="1073" y="938"/>
      <point x="1139" y="717"/>
      <point x="1139" y="608" type="qcurve" smooth="yes"/>
      <point x="1139" y="503"/>
      <point x="1077" y="289"/>
      <point x="1016" y="198" type="qcurve"/>
      <point x="1173" y="13" type="line"/>
      <point x="1134" y="-27" type="line"/>
    </contour>
    <contour>
      <point x="183" y="608" type="qcurve" smooth="yes"/>
      <point x="183.0" y="507.3771851094715"/>
      <point x="248.55402024096895" y="294.42633603504225"/>
      <point x="309" y="212" type="qcurve" smooth="yes"/>
      <point x="364.5669478628477" y="133.55254419362666"/>
      <point x="528.8221879415178" y="33.0"/>
      <point x="634" y="33" type="qcurve" smooth="yes"/>
      <point x="741" y="33"/>
      <point x="906" y="138"/>
      <point x="963" y="217" type="qcurve" smooth="yes"/>
      <point x="1023" y="300"/>
      <point x="1085" y="509"/>
      <point x="1085" y="608" type="qcurve" smooth="yes"/>
      <point x="1085" y="710"/>
      <point x="1016" y="932"/>
      <point x="948" y="1018" type="qcurve" smooth="yes"/>
      <point x="892" y="1089"/>
      <point x="734" y="1181"/>
      <point x="634" y="1181" type="qcurve" smooth="yes"/>
      <point x="532" y="1181"/>
      <point x="375" y="1087"/>
      <point x="318" y="1016" type="qcurve" smooth="yes"/>
      <point x="252" y="928"/>
      <point x="183" y="711"/>
    </contour>
  </outline>
</glyph>
<glyph name="yen" format="2">
  <advance width="1229"/>
  <unicode hex="00A5"/>
  <outline>
    <contour>
      <point x="587" y="0" type="line"/>
      <point x="587" y="326" type="line"/>
      <point x="139" y="326" type="line"/>
      <point x="139" y="381" type="line"/>
      <point x="587" y="381" type="line"/>
      <point x="587" y="621" type="line"/>
      <point x="139" y="621" type="line"/>
      <point x="139" y="676" type="line"/>
      <point x="558" y="676" type="line"/>
      <point x="73" y="1456" type="line"/>
      <point x="138" y="1456" type="line"/>
      <point x="589" y="738" type="line"/>
      <point x="612" y="687" type="line"/>
      <point x="617" y="687" type="line"/>
      <point x="641" y="738" type="line"/>
      <point x="1091" y="1456" type="line"/>
      <point x="1157" y="1456" type="line"/>
      <point x="669" y="676" type="line"/>
      <point x="1092" y="676" type="line"/>
      <point x="1092" y="621" type="line"/>
      <point x="641" y="621" type="line"/>
      <point x="641" y="381" type="line"/>
      <point x="1092" y="381" type="line"/>
      <point x="1092" y="326" type="line"/>
      <point x="641" y="326" type="line"/>
      <point x="641" y="0" type="line"/>
    </contour>
  </outline>
</glyph>
<glyph name="section" format="2">
  <advance width="1229"/>
  <unicode hex="00A7"/>
  <outline>
    <contour>
      <point x="1102" y="431" type="qcurve"/>
      <point x="1101" y="364"/>
      <point x="1047" y="269"/>
      <point x="1004" y="238" type="qcurve" smooth="yes" name="inserted"/>
      <point x="961" y="206"/>
      <point x="851" y="170"/>
      <point x="795" y="163" type="qcurve"/>
      <point x="847" y="143"/>
      <point x="943" y="89"/>
      <point x="979" y="52" type="qcurve" smooth="yes" name="inserted"/>
      <point x="1015" y="15"/>
      <point x="1058" y="-84"/>
      <point x="1058" y="-149" type="qcurve" smooth="yes"/>
      <point x="1058" y="-241"/>
      <point x="978" y="-372"/>
      <point x="914" y="-414" type="qcurve" smooth="yes" name="inserted"/>
      <point x="849" y="-456"/>
      <point x="689" y="-495"/>
      <point x="608" y="-495" type="qcurve" smooth="yes"/>
      <point x="507" y="-495"/>
      <point x="332" y="-439"/>
      <point x="268" y="-384" type="qcurve" smooth="yes" name="inserted"/>
      <point x="203" y="-330"/>
      <point x="127" y="-169"/>
      <point x="124" y="-64" type="qcurve"/>
      <point x="178" y="-62" type="line"/>
      <point x="181" y="-155"/>
      <point x="250" y="-297"/>
      <point x="308" y="-345" type="qcurve" smooth="yes" name="inserted"/>
      <point x="365" y="-393"/>
      <point x="519" y="-441"/>
      <point x="608" y="-441" type="qcurve" smooth="yes"/>
      <point x="676" y="-441"/>
      <point x="816" y="-409"/>
      <point x="873" y="-374" type="qcurve" smooth="yes" name="inserted"/>
      <point x="930" y="-340"/>
      <point x="1002" y="-230"/>
      <point x="1003" y="-151" type="qcurve" smooth="yes"/>
      <point x="1004" y="-72"/>
      <point x="930" y="35"/>
      <point x="873" y="71" type="qcurve" smooth="yes" name="inserted"/>
      <point x="816" y="106"/>
      <point x="679" y="149"/>
      <point x="615" y="166" type="qcurve" smooth="yes"/>
      <point x="564" y="179"/>
      <point x="453" y="210"/>
      <point x="399" y="232" type="qcurve" smooth="yes" name="inserted"/>
      <point x="345" y="253"/>
      <point x="247" y="309"/>
      <point x="210" y="348" type="qcurve" smooth="yes" name="inserted"/>
      <point x="173" y="386"/>
      <point x="129" y="486"/>
      <point x="130" y="551" type="qcurve" smooth="yes"/>
      <point x="130" y="616"/>
      <point x="178" y="712"/>
      <point x="217" y="745" type="qcurve" smooth="yes" name="inserted"/>
      <point x="256" y="778"/>
      <point x="357" y="817"/>
      <point x="412" y="826" type="qcurve"/>
      <point x="363" y="846"/>
      <point x="277" y="900"/>
      <point x="245" y="937" type="qcurve" smooth="yes" name="inserted"/>
      <point x="212" y="973"/>
      <point x="175" y="1067"/>
      <point x="175" y="1129" type="qcurve" smooth="yes"/>
      <point x="175" y="1220"/>
      <point x="256" y="1352"/>
      <point x="321" y="1394" type="qcurve" smooth="yes" name="inserted"/>
      <point x="386" y="1436"/>
      <point x="546" y="1476"/>
      <point x="626" y="1476" type="qcurve" smooth="yes"/>
      <point x="727" y="1476"/>
      <point x="892" y="1417"/>
      <point x="951" y="1362" type="qcurve" smooth="yes" name="inserted"/>
      <point x="1010" y="1306"/>
      <point x="1077" y="1146"/>
      <point x="1080" y="1045" type="qcurve"/>
      <point x="1026" y="1045" type="line"/>
      <point x="1023" y="1130"/>
      <point x="962" y="1269"/>
      <point x="909" y="1319" type="qcurve" smooth="yes" name="inserted"/>
      <point x="855" y="1368"/>
      <point x="711" y="1422"/>
      <point x="626" y="1422" type="qcurve" smooth="yes"/>
      <point x="553.5292295436013" y="1422.0"/>
      <point x="405.493082118299" y="1386.5909555970425"/>
      <point x="348" y="1351" type="qcurve" smooth="yes"/>
      <point x="295.7524471717498" y="1312.68512792595"/>
      <point x="229.0" y="1206.3436840714282"/>
      <point x="229" y="1132" type="qcurve" smooth="yes"/>
      <point x="229" y="1078"/>
      <point x="262" y="994"/>
      <point x="292" y="962" type="qcurve" smooth="yes" name="inserted"/>
      <point x="321" y="929"/>
      <point x="400" y="881"/>
      <point x="444" y="863" type="qcurve" smooth="yes" name="inserted"/>
      <point x="488" y="844"/>
      <point x="580" y="816"/>
      <point x="624" y="804" type="qcurve" smooth="yes"/>
      <point x="674" y="790"/>
      <point x="784" y="760"/>
      <point x="837" y="740" type="qcurve" smooth="yes" name="inserted"/>
      <point x="890" y="720"/>
      <point x="987" y="667"/>
      <point x="1024" y="630" type="qcurve" smooth="yes" name="inserted"/>
      <point x="1060" y="593"/>
      <point x="1102" y="495"/>
    </contour>
    <contour>
      <point x="598" y="766" type="qcurve" smooth="yes"/>
      <point x="572" y="773"/>
      <point x="521" y="788"/>
      <point x="495" y="796" type="qcurve"/>
      <point x="439" y="792"/>
      <point x="329" y="764"/>
      <point x="284.5" y="736.0" type="qcurve" smooth="yes" name="inserted"/>
      <point x="240" y="708"/>
      <point x="185" y="618"/>
      <point x="184" y="553" type="qcurve" smooth="yes"/>
      <point x="183" y="495"/>
      <point x="224" y="406"/>
      <point x="259.0" y="373.0" type="qcurve" smooth="yes" name="inserted"/>
      <point x="294" y="340"/>
      <point x="386" y="291"/>
      <point x="436.0" y="273.0" type="qcurve" smooth="yes" name="inserted"/>
      <point x="486.0" y="255.0"/>
      <point x="603.790624470972" y="223.24581746233127"/>
      <point x="697" y="196" type="qcurve"/>
      <point x="751" y="198"/>
      <point x="873" y="220"/>
      <point x="925.0" y="246.5" type="qcurve" smooth="yes" name="inserted"/>
      <point x="977" y="273"/>
      <point x="1047" y="361"/>
      <point x="1048" y="428" type="qcurve" smooth="yes"/>
      <point x="1049" y="485"/>
      <point x="1007" y="572"/>
      <point x="971.5" y="606.0" type="qcurve" smooth="yes" name="inserted"/>
      <point x="936" y="640"/>
      <point x="843" y="689"/>
      <point x="792.5" y="708.0" type="qcurve" smooth="yes" name="inserted"/>
      <point x="742" y="727"/>
      <point x="641" y="754"/>
    </contour>
  </outline>
</glyph>
<glyph name="copyright" format="2">
  <advance width="1229"/>
  <unicode hex="00A9"/>
  <outline>
    <contour>
      <point x="845" y="456" type="line"/>
      <point x="846" y="418"/>
      <point x="824" y="335"/>
      <point x="797" y="301" type="qcurve" smooth="yes" name="inserted"/>
      <point x="770" y="266"/>
      <point x="681" y="222"/>
      <point x="617" y="222" type="qcurve" smooth="yes"/>
      <point x="556" y="222"/>
      <point x="462" y="274"/>
      <point x="432" y="319" type="qcurve" smooth="yes"/>
      <point x="401" y="366"/>
      <point x="371" y="484"/>
      <point x="371" y="529" type="qcurve" smooth="yes"/>
      <point x="371" y="577" type="line" smooth="yes"/>
      <point x="371" y="618"/>
      <point x="393" y="721"/>
      <point x="421" y="764" type="qcurve" smooth="yes"/>
      <point x="446" y="809"/>
      <point x="543" y="875"/>
      <point x="617" y="875" type="qcurve" smooth="yes"/>
      <point x="681" y="875"/>
      <point x="770" y="834"/>
      <point x="797" y="802" type="qcurve" smooth="yes" name="inserted"/>
      <point x="824" y="769"/>
      <point x="847" y="689"/>
      <point x="846" y="651" type="qcurve"/>
      <point x="798" y="651" type="line"/>
      <point x="794" y="678"/>
      <point x="778" y="738"/>
      <point x="759" y="764" type="qcurve" smooth="yes" name="inserted"/>
      <point x="740" y="789"/>
      <point x="672" y="822"/>
      <point x="617" y="822" type="qcurve" smooth="yes"/>
      <point x="558" y="822"/>
      <point x="484" y="769"/>
      <point x="463" y="731" type="qcurve" smooth="yes" name="inserted"/>
      <point x="441" y="693"/>
      <point x="425" y="609"/>
      <point x="425" y="578" type="qcurve" smooth="yes"/>
      <point x="425" y="529" type="line" smooth="yes"/>
      <point x="426" y="493"/>
      <point x="444" y="397"/>
      <point x="475" y="351" type="qcurve" smooth="yes"/>
      <point x="496" y="319"/>
      <point x="566" y="278"/>
      <point x="617" y="277" type="qcurve" smooth="yes"/>
      <point x="672" y="276"/>
      <point x="740" y="312"/>
      <point x="759" y="339" type="qcurve" smooth="yes" name="inserted"/>
      <point x="778" y="366"/>
      <point x="794" y="429"/>
      <point x="797" y="456" type="qcurve"/>
    </contour>
    <contour>
      <point x="139" y="551" type="qcurve" smooth="yes"/>
      <point x="139" y="469"/>
      <point x="196" y="285"/>
      <point x="249" y="215" type="qcurve" smooth="yes"/>
      <point x="311" y="133"/>
      <point x="492" y="34"/>
      <point x="623" y="34" type="qcurve" smooth="yes"/>
      <point x="734" y="34"/>
      <point x="908" y="113"/>
      <point x="964" y="177" type="qcurve" smooth="yes"/>
      <point x="1036" y="254"/>
      <point x="1106" y="458"/>
      <point x="1106" y="551" type="qcurve" smooth="yes"/>
      <point x="1106" y="640"/>
      <point x="1038" y="837"/>
      <point x="964" y="913" type="qcurve" smooth="yes"/>
      <point x="905" y="972"/>
      <point x="735" y="1051"/>
      <point x="623" y="1051" type="qcurve" smooth="yes"/>
      <point x="494.2831791811457" y="1051.0"/>
      <point x="310" y="954"/>
      <point x="251" y="878" type="qcurve" smooth="yes"/>
      <point x="193" y="803"/>
      <point x="139.0" y="630.0451847700889"/>
    </contour>
    <contour>
      <point x="84" y="551" type="qcurve" smooth="yes"/>
      <point x="84.0" y="643.8108423167712"/>
      <point x="146" y="837"/>
      <point x="213" y="920" type="qcurve" smooth="yes"/>
      <point x="278" y="1001"/>
      <point x="483.1360108557983" y="1106.0"/>
      <point x="623" y="1106" type="qcurve" smooth="yes"/>
      <point x="747" y="1106"/>
      <point x="936" y="1024"/>
      <point x="1004" y="952" type="qcurve" smooth="yes"/>
      <point x="1083" y="871"/>
      <point x="1161" y="653"/>
      <point x="1161" y="551" type="qcurve" smooth="yes"/>
      <point x="1161" y="444"/>
      <point x="1081" y="220"/>
      <point x="1003" y="135" type="qcurve" smooth="yes"/>
      <point x="937" y="65"/>
      <point x="748" y="-21"/>
      <point x="623" y="-21" type="qcurve" smooth="yes"/>
      <point x="480" y="-21"/>
      <point x="271" y="91"/>
      <point x="208" y="177" type="qcurve" smooth="yes"/>
      <point x="146" y="258"/>
      <point x="84" y="457"/>
    </contour>
  </outline>
</glyph>
<glyph name="plusminus" format="2">
  <advance width="1229"/>
  <unicode hex="00B1"/>
  <outline>
    <contour>
      <point x="653" y="805" type="line"/>
      <point x="1072" y="805" type="line"/>
      <point x="1072" y="751" type="line"/>
      <point x="653" y="751" type="line"/>
      <point x="653" y="289" type="line"/>
      <point x="599" y="289" type="line"/>
      <point x="599" y="751" type="line"/>
      <point x="156" y="751" type="line"/>
      <point x="156" y="805" type="line"/>
      <point x="599" y="805" type="line"/>
      <point x="599" y="1267" type="line"/>
      <point x="653" y="1267" type="line"/>
    </contour>
    <contour>
      <point x="1047" y="-1" type="line"/>
      <point x="212" y="-1" type="line"/>
      <point x="212" y="53" type="line"/>
      <point x="1047" y="53" type="line"/>
    </contour>
  </outline>
</glyph>
<glyph name="periodcentered" format="2">
  <advance width="1229"/>
  <unicode hex="00B7"/>
  <outline>
    <contour>
      <point x="565" y="706" type="qcurve" smooth="yes"/>
      <point x="565" y="728"/>
      <point x="598" y="762"/>
      <point x="620" y="762" type="qcurve" smooth="yes"/>
      <point x="642" y="762"/>
      <point x="676" y="728"/>
      <point x="676" y="706" type="qcurve" smooth="yes"/>
      <point x="676" y="684"/>
      <point x="642" y="651"/>
      <point x="620" y="651" type="qcurve" smooth="yes"/>
      <point x="598" y="651"/>
      <point x="565" y="684"/>
    </contour>
  </outline>
</glyph>
<glyph name="onequarter" format="2">
  <advance width="1229"/>
  <unicode hex="00BC"/>
  <outline>
    <contour>
      <point x="333.20000000000005" y="751.0" type="line"/>
      <point x="284.6" y="751.0" type="line"/>
      <point x="284.6" y="1400.8000000000002" type="line"/>
      <point x="61.400000000000034" y="1327.9" type="line"/>
      <point x="61.400000000000034" y="1375.6" type="line"/>
      <point x="325.1" y="1462.9" type="line"/>
      <point x="333.20000000000005" y="1462.9" type="line"/>
    </contour>
    <contour>
      <point x="1010.1" y="227.70000000000002" type="line"/>
      <point x="1142.4" y="227.70000000000002" type="line"/>
      <point x="1142.4" y="183.6" type="line"/>
      <point x="1010.1" y="183.6" type="line"/>
      <point x="1010.1" y="0.0" type="line"/>
      <point x="962.4" y="0.0" type="line"/>
      <point x="962.4" y="183.6" type="line"/>
      <point x="581.7" y="183.6" type="line"/>
      <point x="580.8" y="212.4" type="line"/>
      <point x="956.1" y="710.1" type="line"/>
      <point x="1010.1" y="710.1" type="line"/>
    </contour>
    <contour>
      <point x="643.8" y="227.70000000000002" type="line"/>
      <point x="962.4" y="227.70000000000002" type="line"/>
      <point x="962.4" y="654.3000000000001" type="line"/>
      <point x="922.8000000000001" y="590.4" type="line"/>
    </contour>
    <component base="fraction" xOffset="-36" yOffset="8"/>
  </outline>
</glyph>
<glyph name="onehalf" format="2">
  <advance width="1229"/>
  <unicode hex="00BD"/>
  <outline>
    <contour>
      <point x="341.20000000000005" y="747.0" type="line"/>
      <point x="292.6" y="747.0" type="line"/>
      <point x="292.6" y="1396.8000000000002" type="line"/>
      <point x="69.40000000000003" y="1323.9" type="line"/>
      <point x="69.40000000000003" y="1371.6" type="line"/>
      <point x="333.1" y="1458.9" type="line"/>
      <point x="341.20000000000005" y="1458.9" type="line"/>
    </contour>
    <contour>
      <point x="1154.3000000000002" y="0.0" type="line"/>
      <point x="665.6" y="0.0" type="line"/>
      <point x="665.6" y="39.6" type="line"/>
      <point x="926.6" y="305.1" type="line" smooth="yes"/>
      <point x="948.2" y="326.7"/>
      <point x="995.9" y="376.2"/>
      <point x="1016.6" y="403.65000000000003" type="qcurve" smooth="yes" name="inserted"/>
      <point x="1037.3000000000002" y="431.1"/>
      <point x="1064.3000000000002" y="491.40000000000003"/>
      <point x="1064.3000000000002" y="524.7" type="qcurve" smooth="yes"/>
      <point x="1064.3000000000002" y="562.5"/>
      <point x="1036.4" y="619.2"/>
      <point x="1012.1" y="638.1" type="qcurve" smooth="yes" name="inserted"/>
      <point x="987.8000000000001" y="657.0"/>
      <point x="923.9" y="675.9"/>
      <point x="888.8000000000001" y="675.9" type="qcurve" smooth="yes"/>
      <point x="848.3" y="675.9"/>
      <point x="779.0" y="653.4"/>
      <point x="753.35" y="631.8000000000001" type="qcurve" smooth="yes" name="inserted"/>
      <point x="727.7" y="610.2"/>
      <point x="697.1" y="547.2"/>
      <point x="694.4000000000001" y="505.8" type="qcurve"/>
      <point x="645.8" y="505.8" type="line"/>
      <point x="648.5" y="555.3000000000001"/>
      <point x="688.1" y="635.4"/>
      <point x="720.95" y="662.85" type="qcurve" smooth="yes" name="inserted"/>
      <point x="753.8" y="690.3000000000001"/>
      <point x="840.2" y="720.0"/>
      <point x="888.8000000000001" y="720.0" type="qcurve" smooth="yes"/>
      <point x="932.9" y="720.0"/>
      <point x="1013.9" y="694.8000000000001"/>
      <point x="1044.95" y="670.5" type="qcurve" smooth="yes" name="inserted"/>
      <point x="1076.0" y="646.2"/>
      <point x="1112.9" y="573.3000000000001"/>
      <point x="1112.9" y="525.6" type="qcurve" smooth="yes"/>
      <point x="1112.9" y="486.90000000000003"/>
      <point x="1080.5" y="415.8"/>
      <point x="1056.65" y="383.40000000000003" type="qcurve" smooth="yes" name="inserted"/>
      <point x="1032.8000000000002" y="351.0"/>
      <point x="977.0" y="292.5"/>
      <point x="951.8000000000001" y="267.3" type="qcurve" smooth="yes"/>
      <point x="725.9000000000001" y="44.1" type="line"/>
      <point x="1154.3000000000002" y="44.1" type="line"/>
    </contour>
    <component base="fraction" xOffset="-61" yOffset="8"/>
  </outline>
</glyph>
<glyph name="threequarters" format="2">
  <advance width="1229"/>
  <unicode hex="00BE"/>
  <outline>
    <contour>
      <point x="1034.1" y="228.70000000000002" type="line"/>
      <point x="1166.4" y="228.70000000000002" type="line"/>
      <point x="1166.4" y="184.6" type="line"/>
      <point x="1034.1" y="184.6" type="line"/>
      <point x="1034.1" y="1.0" type="line"/>
      <point x="986.4" y="1.0" type="line"/>
      <point x="986.4" y="184.6" type="line"/>
      <point x="605.7" y="184.6" type="line"/>
      <point x="604.8" y="213.4" type="line"/>
      <point x="980.1" y="711.1" type="line"/>
      <point x="1034.1" y="711.1" type="line"/>
    </contour>
    <contour>
      <point x="667.8" y="228.70000000000002" type="line"/>
      <point x="986.4" y="228.70000000000002" type="line"/>
      <point x="986.4" y="655.3000000000001" type="line"/>
      <point x="946.8000000000001" y="591.4" type="line"/>
    </contour>
    <contour>
      <point x="232.40000000000003" y="1127.4" type="line"/>
      <point x="296.30000000000007" y="1127.4" type="line" smooth="yes"/>
      <point x="329.6" y="1128.3"/>
      <point x="399.80000000000007" y="1142.7"/>
      <point x="429.05000000000007" y="1159.8" type="qcurve" smooth="yes" name="inserted"/>
      <point x="458.30000000000007" y="1176.9"/>
      <point x="497.0" y="1230.9"/>
      <point x="497.0" y="1270.5" type="qcurve" smooth="yes"/>
      <point x="497.0" y="1308.3000000000002"/>
      <point x="466.4" y="1365.0"/>
      <point x="440.75" y="1383.45" type="qcurve" smooth="yes" name="inserted"/>
      <point x="415.1" y="1401.9"/>
      <point x="349.4" y="1419.9"/>
      <point x="315.20000000000005" y="1419.9" type="qcurve" smooth="yes"/>
      <point x="278.30000000000007" y="1419.9"/>
      <point x="212.60000000000002" y="1401.0"/>
      <point x="186.95" y="1382.1" type="qcurve" smooth="yes" name="inserted"/>
      <point x="161.3" y="1363.2"/>
      <point x="128.0" y="1305.6"/>
      <point x="124.40000000000003" y="1267.8000000000002" type="qcurve"/>
      <point x="76.69999999999999" y="1267.8000000000002" type="line"/>
      <point x="80.30000000000001" y="1315.5"/>
      <point x="121.69999999999999" y="1388.4"/>
      <point x="154.10000000000002" y="1413.6" type="qcurve" smooth="yes" name="inserted"/>
      <point x="186.5" y="1438.8000000000002"/>
      <point x="269.3" y="1464.0"/>
      <point x="315.20000000000005" y="1464.0" type="qcurve" smooth="yes"/>
      <point x="359.30000000000007" y="1464.0"/>
      <point x="443.0" y="1439.7"/>
      <point x="475.4" y="1414.95" type="qcurve" smooth="yes" name="inserted"/>
      <point x="507.80000000000007" y="1390.2"/>
      <point x="545.6" y="1316.4"/>
      <point x="545.6" y="1267.8000000000002" type="qcurve" smooth="yes"/>
      <point x="545.6" y="1235.4"/>
      <point x="521.3000000000001" y="1183.2"/>
      <point x="501.05000000000007" y="1163.4" type="qcurve" smooth="yes" name="inserted"/>
      <point x="480.80000000000007" y="1143.6"/>
      <point x="428.6" y="1115.7"/>
      <point x="399.80000000000007" y="1106.7" type="qcurve"/>
      <point x="432.20000000000005" y="1099.5"/>
      <point x="491.6" y="1072.5"/>
      <point x="513.65" y="1051.35" type="qcurve" smooth="yes" name="inserted"/>
      <point x="535.7" y="1030.2"/>
      <point x="562.7" y="972.6"/>
      <point x="562.7" y="933.9" type="qcurve" smooth="yes"/>
      <point x="562.7" y="883.5"/>
      <point x="520.4" y="808.8"/>
      <point x="486.20000000000005" y="783.6" type="qcurve" smooth="yes" name="inserted"/>
      <point x="452.0" y="758.4"/>
      <point x="364.70000000000005" y="734.1"/>
      <point x="319.70000000000005" y="734.1" type="qcurve" smooth="yes"/>
      <point x="271.1" y="734.1"/>
      <point x="181.10000000000002" y="759.3"/>
      <point x="146.0" y="784.95" type="qcurve" smooth="yes" name="inserted"/>
      <point x="110.90000000000003" y="810.6"/>
      <point x="65.0" y="888.0"/>
      <point x="61.400000000000034" y="939.3" type="qcurve"/>
      <point x="110.0" y="939.3" type="line"/>
      <point x="113.60000000000002" y="897.9"/>
      <point x="150.5" y="837.6"/>
      <point x="179.75" y="817.35" type="qcurve" smooth="yes" name="inserted"/>
      <point x="209.0" y="797.1"/>
      <point x="281.0" y="777.3"/>
      <point x="319.70000000000005" y="777.3" type="qcurve" smooth="yes"/>
      <point x="355.70000000000005" y="777.3"/>
      <point x="425.9" y="795.3"/>
      <point x="453.35" y="814.2" type="qcurve" smooth="yes" name="inserted"/>
      <point x="480.80000000000007" y="833.1"/>
      <point x="514.1" y="892.5"/>
      <point x="514.1" y="933.0" type="qcurve" smooth="yes"/>
      <point x="514.1" y="978.0"/>
      <point x="473.6" y="1035.6"/>
      <point x="441.65" y="1052.25" type="qcurve" smooth="yes" name="inserted"/>
      <point x="409.70000000000005" y="1068.9"/>
      <point x="333.20000000000005" y="1082.4"/>
      <point x="296.30000000000007" y="1083.3" type="qcurve" smooth="yes"/>
      <point x="232.40000000000003" y="1083.3" type="line"/>
    </contour>
    <component base="fraction" xOffset="41"/>
  </outline>
</glyph>
<glyph name="questiondown" format="2">
  <advance width="1229"/>
  <unicode hex="00BF"/>
  <outline>
    <contour>
      <point x="667" y="695" type="line"/>
      <point x="666" y="646"/>
      <point x="654" y="568"/>
      <point x="639.5" y="534.0" type="qcurve" smooth="yes" name="inserted"/>
      <point x="625" y="500"/>
      <point x="578" y="437"/>
      <point x="542" y="403" type="qcurve" smooth="yes"/>
      <point x="495" y="358"/>
      <point x="412" y="267"/>
      <point x="381.0" y="217.0" type="qcurve" smooth="yes" name="inserted"/>
      <point x="350" y="167"/>
      <point x="315" y="52"/>
      <point x="315" y="-17" type="qcurve" smooth="yes"/>
      <point x="315" y="-85"/>
      <point x="357" y="-200"/>
      <point x="395.5" y="-241.0" type="qcurve" smooth="yes" name="inserted"/>
      <point x="434" y="-282"/>
      <point x="544" y="-328"/>
      <point x="614" y="-328" type="qcurve" smooth="yes"/>
      <point x="683" y="-328"/>
      <point x="792" y="-282"/>
      <point x="830.0" y="-241.0" type="qcurve" smooth="yes" name="inserted"/>
      <point x="868" y="-200"/>
      <point x="911" y="-87"/>
      <point x="915" y="-21" type="qcurve"/>
      <point x="969" y="-21" type="line"/>
      <point x="966" y="-99"/>
      <point x="915" y="-231"/>
      <point x="869.5" y="-279.0" type="qcurve" smooth="yes" name="inserted"/>
      <point x="824" y="-327"/>
      <point x="695" y="-381"/>
      <point x="614" y="-381" type="qcurve" smooth="yes"/>
      <point x="534" y="-381"/>
      <point x="403" y="-325"/>
      <point x="357.0" y="-276.0" type="qcurve" smooth="yes" name="inserted"/>
      <point x="311" y="-227"/>
      <point x="261" y="-93"/>
      <point x="261" y="-15" type="qcurve" smooth="yes"/>
      <point x="261" y="57"/>
      <point x="301" y="185"/>
      <point x="335.5" y="241.5" type="qcurve" smooth="yes" name="inserted"/>
      <point x="370" y="298"/>
      <point x="462" y="399"/>
      <point x="514" y="445" type="qcurve" smooth="yes"/>
      <point x="545" y="473"/>
      <point x="584" y="527"/>
      <point x="595.0" y="557.0" type="qcurve" smooth="yes" name="inserted"/>
      <point x="606" y="587"/>
      <point x="613" y="654"/>
      <point x="613" y="695" type="qcurve"/>
    </contour>
    <contour>
      <point x="580" y="1046" type="qcurve" smooth="yes"/>
      <point x="580" y="1068"/>
      <point x="614" y="1101"/>
      <point x="636" y="1101" type="qcurve" smooth="yes"/>
      <point x="658" y="1101"/>
      <point x="691" y="1068"/>
      <point x="691" y="1046" type="qcurve" smooth="yes"/>
      <point x="691" y="1024"/>
      <point x="658" y="990"/>
      <point x="636" y="990" type="qcurve" smooth="yes"/>
      <point x="614" y="990"/>
      <point x="580" y="1024"/>
    </contour>
  </outline>
</glyph>
<glyph name="AE" format="2">
  <advance width="1229"/>
  <unicode hex="00C6"/>
  <outline>
    <contour>
      <point x="1148" y="0" type="line"/>
      <point x="672" y="0" type="line"/>
      <point x="661" y="425" type="line"/>
      <point x="289" y="425" type="line"/>
      <point x="131" y="0" type="line"/>
      <point x="78" y="0" type="line"/>
      <point x="622" y="1456" type="line"/>
      <point x="1110" y="1456" type="line"/>
      <point x="1110" y="1402" type="line"/>
      <point x="683" y="1402" type="line"/>
      <point x="699" y="786" type="line"/>
      <point x="1060" y="786" type="line"/>
      <point x="1060" y="732" type="line"/>
      <point x="701" y="732" type="line"/>
      <point x="718" y="54" type="line"/>
      <point x="1148" y="54" type="line"/>
    </contour>
    <contour>
      <point x="309" y="478" type="line"/>
      <point x="660" y="478" type="line"/>
      <point x="637" y="1358" type="line"/>
    </contour>
  </outline>
</glyph>
<glyph name="Eth" format="2">
  <advance width="1259"/>
  <unicode hex="00D0"/>
  <outline>
    <contour>
      <point x="230" y="0" type="line"/>
      <point x="230" y="713" type="line"/>
      <point x="-45" y="713" type="line"/>
      <point x="-45" y="767" type="line"/>
      <point x="230" y="767" type="line"/>
      <point x="230" y="1456" type="line"/>
      <point x="596" y="1456" type="line" smooth="yes"/>
      <point x="711.3528482036456" y="1452.8823554539556"/>
      <point x="897" y="1363"/>
      <point x="974" y="1278" type="qcurve" smooth="yes"/>
      <point x="1048" y="1197"/>
      <point x="1138" y="946"/>
      <point x="1140" y="817" type="qcurve" smooth="yes"/>
      <point x="1140" y="639" type="line" smooth="yes"/>
      <point x="1140" y="516"/>
      <point x="1058" y="280"/>
      <point x="983" y="189" type="qcurve" smooth="yes"/>
      <point x="912" y="103"/>
      <point x="717" y="3"/>
      <point x="596" y="0" type="qcurve" smooth="yes"/>
    </contour>
    <contour>
      <point x="542" y="713" type="line"/>
      <point x="282" y="713" type="line"/>
      <point x="282" y="54" type="line"/>
      <point x="596" y="54" type="line" smooth="yes"/>
      <point x="707" y="57"/>
      <point x="884" y="151"/>
      <point x="943" y="225" type="qcurve" smooth="yes"/>
      <point x="1011" y="310"/>
      <point x="1084" y="524"/>
      <point x="1086" y="639" type="qcurve" smooth="yes"/>
      <point x="1086" y="820" type="line" smooth="yes"/>
      <point x="1084" y="935"/>
      <point x="1008" y="1150"/>
      <point x="936" y="1239" type="qcurve" smooth="yes"/>
      <point x="885" y="1302"/>
      <point x="706" y="1402.0"/>
      <point x="596" y="1402" type="qcurve" smooth="yes"/>
      <point x="282" y="1402" type="line"/>
      <point x="282" y="767" type="line"/>
      <point x="542" y="767" type="line"/>
    </contour>
  </outline>
</glyph>
<glyph name="multiply" format="2">
  <advance width="1229"/>
  <unicode hex="00D7"/>
  <outline>
    <contour>
      <point x="212" y="272" type="line"/>
      <point x="596" y="665" type="line"/>
      <point x="239" y="1029" type="line"/>
      <point x="278" y="1068" type="line"/>
      <point x="634" y="704" type="line"/>
      <point x="991" y="1068" type="line"/>
      <point x="1030" y="1029" type="line"/>
      <point x="673" y="665" type="line"/>
      <point x="1058" y="272" type="line"/>
      <point x="1019" y="235" type="line"/>
      <point x="635" y="626" type="line"/>
      <point x="251" y="235" type="line"/>
    </contour>
  </outline>
</glyph>
<glyph name="Oslash" format="2">
  <advance width="1229"/>
  <unicode hex="00D8"/>
  <outline>
    <contour>
      <point x="1074" y="619" type="line" smooth="yes"/>
      <point x="1074.0" y="512"/>
      <point x="1022" y="283"/>
      <point x="962" y="191" type="qcurve" smooth="yes"/>
      <point x="907" y="100"/>
      <point x="728" y="-20"/>
      <point x="604" y="-20" type="qcurve" smooth="yes"/>
      <point x="513" y="-20"/>
      <point x="369" y="45"/>
      <point x="315" y="100" type="qcurve"/>
      <point x="213" y="-75" type="line"/>
      <point x="149" y="-75" type="line"/>
      <point x="277" y="144" type="line"/>
      <point x="239" y="192"/>
      <point x="185" y="307"/>
      <point x="167" y="369" type="qcurve" smooth="yes" name="inserted"/>
      <point x="149" y="431"/>
      <point x="131" y="558"/>
      <point x="130" y="619" type="qcurve" smooth="yes"/>
      <point x="130" y="837" type="line" smooth="yes"/>
      <point x="131.4915451767474" y="942.8997075490647"/>
      <point x="184.38078196777747" y="1168.9679699462956"/>
      <point x="239" y="1260" type="qcurve" smooth="yes"/>
      <point x="294.19242231174536" y="1352.9556586303083"/>
      <point x="473.90237132367747" y="1476.0"/>
      <point x="602" y="1476" type="qcurve" smooth="yes"/>
      <point x="660" y="1476"/>
      <point x="762" y="1448"/>
      <point x="805" y="1423" type="qcurve" smooth="yes" name="inserted"/>
      <point x="847" y="1398"/>
      <point x="918" y="1329"/>
      <point x="947" y="1287" type="qcurve"/>
      <point x="1069" y="1495" type="line"/>
      <point x="1133" y="1495" type="line"/>
      <point x="979" y="1233" type="line"/>
      <point x="1027" y="1143"/>
      <point x="1072" y="936"/>
      <point x="1074" y="837" type="qcurve" smooth="yes"/>
    </contour>
    <contour>
      <point x="185" y="619" type="line" smooth="yes"/>
      <point x="185" y="565"/>
      <point x="200" y="452"/>
      <point x="215" y="397" type="qcurve" smooth="yes" name="inserted"/>
      <point x="229" y="341"/>
      <point x="274" y="237"/>
      <point x="306" y="192" type="qcurve"/>
      <point x="918" y="1237" type="line"/>
      <point x="893" y="1277"/>
      <point x="829" y="1345"/>
      <point x="790" y="1370" type="qcurve" smooth="yes" name="inserted"/>
      <point x="751" y="1395"/>
      <point x="657" y="1422"/>
      <point x="602" y="1422" type="qcurve" smooth="yes"/>
      <point x="485.87887192472283" y="1422.0"/>
      <point x="326.3082205893734" y="1307.933649818239"/>
      <point x="280" y="1224" type="qcurve" smooth="yes"/>
      <point x="231.4006309691436" y="1138.9511041960013"/>
      <point x="185.0" y="932.9208438680482"/>
      <point x="185" y="839" type="qcurve" smooth="yes"/>
    </contour>
    <contour>
      <point x="1021" y="839" type="line" smooth="yes"/>
      <point x="1020" y="923"/>
      <point x="986" y="1101"/>
      <point x="948" y="1180" type="qcurve"/>
      <point x="343" y="147" type="line"/>
      <point x="391" y="95"/>
      <point x="519" y="34"/>
      <point x="604" y="34" type="qcurve" smooth="yes"/>
      <point x="715" y="34.0"/>
      <point x="869" y="140"/>
      <point x="920" y="220" type="qcurve" smooth="yes"/>
      <point x="970" y="307"/>
      <point x="1019" y="519"/>
      <point x="1021" y="619" type="qcurve" smooth="yes"/>
    </contour>
  </outline>
</glyph>
<glyph name="ae" format="2">
  <advance width="1229"/>
  <unicode hex="00E6"/>
  <outline>
    <contour>
      <point x="893" y="-20" type="qcurve" smooth="yes"/>
      <point x="833" y="-20"/>
      <point x="740" y="13"/>
      <point x="705" y="41" type="qcurve" smooth="yes" name="inserted"/>
      <point x="670" y="69"/>
      <point x="619" y="143"/>
      <point x="603" y="184" type="qcurve"/>
      <point x="583" y="140"/>
      <point x="525" y="66"/>
      <point x="488" y="39" type="qcurve" smooth="yes" name="inserted"/>
      <point x="450" y="11"/>
      <point x="362" y="-20"/>
      <point x="312" y="-20" type="qcurve" smooth="yes"/>
      <point x="247" y="-20"/>
      <point x="150" y="30"/>
      <point x="118" y="72" type="qcurve" smooth="yes" name="inserted"/>
      <point x="85" y="114"/>
      <point x="52" y="224"/>
      <point x="52" y="284" type="qcurve" smooth="yes"/>
      <point x="52" y="356"/>
      <point x="94" y="481"/>
      <point x="134" y="528" type="qcurve" smooth="yes" name="inserted"/>
      <point x="173" y="574"/>
      <point x="290" y="629"/>
      <point x="365" y="630" type="qcurve" smooth="yes"/>
      <point x="564" y="630" type="line"/>
      <point x="563" y="820" type="line" smooth="yes"/>
      <point x="563" y="856"/>
      <point x="550" y="936"/>
      <point x="528" y="970" type="qcurve" smooth="yes" name="inserted"/>
      <point x="506" y="1004"/>
      <point x="423" y="1048"/>
      <point x="353" y="1048" type="qcurve" smooth="yes"/>
      <point x="296" y="1048"/>
      <point x="208" y="1014"/>
      <point x="179" y="985" type="qcurve" smooth="yes" name="inserted"/>
      <point x="149" y="955"/>
      <point x="120" y="876"/>
      <point x="122" y="831" type="qcurve"/>
      <point x="70" y="831" type="line"/>
      <point x="68" y="892"/>
      <point x="109" y="993"/>
      <point x="147" y="1028" type="qcurve" smooth="yes" name="inserted"/>
      <point x="185" y="1063"/>
      <point x="291" y="1102"/>
      <point x="353" y="1102" type="qcurve" smooth="yes"/>
      <point x="419" y="1102"/>
      <point x="510" y="1067"/>
      <point x="540" y="1039" type="qcurve" smooth="yes" name="inserted"/>
      <point x="570" y="1010"/>
      <point x="603" y="935"/>
      <point x="610" y="896" type="qcurve"/>
      <point x="626" y="938"/>
      <point x="675" y="1013"/>
      <point x="708" y="1041" type="qcurve" smooth="yes" name="inserted"/>
      <point x="741" y="1069"/>
      <point x="828" y="1102"/>
      <point x="882" y="1102" type="qcurve" smooth="yes"/>
      <point x="969.3921694719533" y="1102.0"/>
      <point x="1083.2935383313982" y="1028.4929792457667"/>
      <point x="1116" y="972" type="qcurve" smooth="yes"/>
      <point x="1150.3200832036168" y="915.8398638486271"/>
      <point x="1177" y="782"/>
      <point x="1176" y="720" type="qcurve" smooth="yes"/>
      <point x="1174" y="577" type="line"/>
      <point x="618" y="577" type="line"/>
      <point x="618" y="400" type="line" smooth="yes"/>
      <point x="618" y="366"/>
      <point x="628" y="285"/>
      <point x="639" y="245" type="qcurve" smooth="yes" name="inserted"/>
      <point x="650" y="204"/>
      <point x="689" y="128"/>
      <point x="720" y="99" type="qcurve" smooth="yes" name="inserted"/>
      <point x="750" y="70"/>
      <point x="835" y="34"/>
      <point x="893" y="34" type="qcurve" smooth="yes"/>
      <point x="933" y="34"/>
      <point x="1003" y="56"/>
      <point x="1032" y="74" type="qcurve" smooth="yes" name="inserted"/>
      <point x="1061" y="92"/>
      <point x="1109" y="139"/>
      <point x="1129" y="164" type="qcurve"/>
      <point x="1157" y="122" type="line"/>
      <point x="1134" y="90"/>
      <point x="1082" y="39"/>
      <point x="1051" y="21" type="qcurve" smooth="yes"/>
      <point x="1018" y="1"/>
      <point x="939" y="-20"/>
    </contour>
    <contour>
      <point x="311" y="32" type="qcurve" smooth="yes"/>
      <point x="358" y="32"/>
      <point x="441" y="66"/>
      <point x="474" y="94" type="qcurve" smooth="yes" name="inserted"/>
      <point x="507" y="122"/>
      <point x="557" y="194"/>
      <point x="579" y="254" type="qcurve"/>
      <point x="575" y="274"/>
      <point x="564" y="344"/>
      <point x="564" y="426" type="qcurve" smooth="yes"/>
      <point x="564" y="456"/>
      <point x="564" y="527"/>
      <point x="564" y="575" type="qcurve"/>
      <point x="366" y="575" type="line" smooth="yes"/>
      <point x="303" y="574"/>
      <point x="206" y="526"/>
      <point x="173" y="486" type="qcurve" smooth="yes" name="inserted"/>
      <point x="140" y="446"/>
      <point x="106" y="340"/>
      <point x="106" y="280" type="qcurve" smooth="yes"/>
      <point x="106" y="232"/>
      <point x="131" y="142"/>
      <point x="156" y="108" type="qcurve" smooth="yes" name="inserted"/>
      <point x="181" y="73"/>
      <point x="258" y="32"/>
    </contour>
    <contour>
      <point x="1125" y="632" type="line"/>
      <point x="1123" y="724" type="line" smooth="yes"/>
      <point x="1120" y="774"/>
      <point x="1100" y="888"/>
      <point x="1074" y="936" type="qcurve" smooth="yes" name="inserted"/>
      <point x="1048" y="984"/>
      <point x="956" y="1048"/>
      <point x="882" y="1048" type="qcurve" smooth="yes"/>
      <point x="827" y="1048"/>
      <point x="745" y="1008"/>
      <point x="716" y="976" type="qcurve" smooth="yes" name="inserted"/>
      <point x="687" y="943"/>
      <point x="649" y="859"/>
      <point x="638" y="814" type="qcurve" smooth="yes" name="inserted"/>
      <point x="627" y="769"/>
      <point x="618" y="680"/>
      <point x="618" y="644" type="qcurve" smooth="yes"/>
      <point x="618" y="632" type="line"/>
    </contour>
  </outline>
</glyph>
<glyph name="eth" format="2">
  <advance width="1229"/>
  <unicode hex="00F0"/>
  <outline>
    <contour>
      <point x="746" y="1301" type="line"/>
      <point x="873" y="1173"/>
      <point x="1009" y="833"/>
      <point x="1010" y="615" type="qcurve"/>
      <point x="1010" y="535" type="line"/>
      <point x="1009" y="471"/>
      <point x="984" y="338"/>
      <point x="958.5" y="276.5" type="qcurve" smooth="yes" name="inserted"/>
      <point x="933" y="215"/>
      <point x="856" y="107"/>
      <point x="804.0" y="67.0" type="qcurve" smooth="yes" name="inserted"/>
      <point x="752" y="27"/>
      <point x="619" y="-20"/>
      <point x="538" y="-20" type="qcurve" smooth="yes"/>
      <point x="445" y="-20"/>
      <point x="284" y="56"/>
      <point x="225.5" y="122.0" type="qcurve" smooth="yes" name="inserted"/>
      <point x="167" y="188"/>
      <point x="99" y="364"/>
      <point x="99" y="465" type="qcurve" smooth="yes"/>
      <point x="99" y="568"/>
      <point x="161" y="746"/>
      <point x="221.0" y="812.0" type="qcurve" smooth="yes" name="inserted"/>
      <point x="281" y="878"/>
      <point x="456" y="953"/>
      <point x="569" y="953" type="qcurve" smooth="yes"/>
      <point x="679.0" y="953.0"/>
      <point x="883.9999999999999" y="862.0"/>
      <point x="944" y="776" type="qcurve"/>
      <point x="921" y="931"/>
      <point x="796" y="1177"/>
      <point x="696" y="1274" type="qcurve"/>
      <point x="461" y="1149" type="line"/>
      <point x="432" y="1197" type="line"/>
      <point x="652" y="1314" type="line"/>
      <point x="574" y="1380"/>
      <point x="385" y="1485"/>
      <point x="273" y="1527" type="qcurve"/>
      <point x="293" y="1577" type="line"/>
      <point x="415" y="1532"/>
      <point x="620" y="1415"/>
      <point x="703" y="1341" type="qcurve"/>
      <point x="928" y="1461" type="line"/>
      <point x="958" y="1413" type="line"/>
    </contour>
    <contour>
      <point x="542" y="38" type="qcurve" smooth="yes"/>
      <point x="615" y="38"/>
      <point x="733" y="81"/>
      <point x="779.0" y="117.0" type="qcurve" smooth="yes" name="inserted"/>
      <point x="825" y="153"/>
      <point x="891" y="250"/>
      <point x="912.5" y="305.5" type="qcurve" smooth="yes" name="inserted"/>
      <point x="934" y="361"/>
      <point x="955" y="478"/>
      <point x="956" y="535" type="qcurve"/>
      <point x="956" y="617" type="line"/>
      <point x="956.0" y="634" name="inserted"/>
      <point x="954.5" y="666.0"/>
      <point x="953" y="682" type="qcurve"/>
      <point x="904.818917920069" y="788.3998895931811"/>
      <point x="674.6031050138854" y="895.0"/>
      <point x="569" y="895" type="qcurve" smooth="yes"/>
      <point x="469" y="895"/>
      <point x="315" y="828"/>
      <point x="262.0" y="770.0" type="qcurve" smooth="yes" name="inserted"/>
      <point x="209" y="712"/>
      <point x="155" y="555"/>
      <point x="155" y="465" type="qcurve" smooth="yes"/>
      <point x="155" y="375"/>
      <point x="215" y="219"/>
      <point x="267.0" y="161.5" type="qcurve" smooth="yes" name="inserted"/>
      <point x="319" y="104"/>
      <point x="460" y="38"/>
    </contour>
  </outline>
</glyph>
<glyph name="divide" format="2">
  <advance width="1229"/>
  <unicode hex="00F7"/>
  <outline>
    <contour>
      <point x="1113" y="686" type="line"/>
      <point x="115" y="686" type="line"/>
      <point x="115" y="738" type="line"/>
      <point x="1113" y="738" type="line"/>
    </contour>
    <contour>
      <point x="571" y="1079" type="qcurve" smooth="yes"/>
      <point x="571" y="1101"/>
      <point x="604" y="1135"/>
      <point x="626" y="1135" type="qcurve" smooth="yes"/>
      <point x="648" y="1135"/>
      <point x="682" y="1101"/>
      <point x="682" y="1079" type="qcurve" smooth="yes"/>
      <point x="682" y="1057"/>
      <point x="648" y="1024"/>
      <point x="626" y="1024" type="qcurve" smooth="yes"/>
      <point x="604" y="1024"/>
      <point x="571" y="1057"/>
    </contour>
    <contour>
      <point x="571" y="301" type="qcurve" smooth="yes"/>
      <point x="571" y="323"/>
      <point x="604" y="357"/>
      <point x="626" y="357" type="qcurve" smooth="yes"/>
      <point x="648" y="357"/>
      <point x="682" y="323"/>
      <point x="682" y="301" type="qcurve" smooth="yes"/>
      <point x="682" y="279"/>
      <point x="648" y="246"/>
      <point x="626" y="246" type="qcurve" smooth="yes"/>
      <point x="604" y="246"/>
      <point x="571" y="279"/>
    </contour>
  </outline>
</glyph>
<glyph name="thorn" format="2">
  <advance width="1229"/>
  <unicode hex="00FE"/>
  <outline>
    <contour>
      <point x="1049" y="531" type="line" smooth="yes"/>
      <point x="1049.0" y="432"/>
      <point x="1000" y="226"/>
      <point x="948" y="147" type="qcurve" smooth="yes"/>
      <point x="898" y="73"/>
      <point x="748" y="-20"/>
      <point x="643" y="-20" type="qcurve" smooth="yes"/>
      <point x="591" y="-20"/>
      <point x="485" y="4"/>
      <point x="437" y="27" type="qcurve" smooth="yes" name="inserted"/>
      <point x="388" y="50"/>
      <point x="304" y="117"/>
      <point x="274" y="161" type="qcurve"/>
      <point x="274" y="-416" type="line"/>
      <point x="220" y="-416" type="line"/>
      <point x="220" y="1536" type="line"/>
      <point x="274" y="1536" type="line"/>
      <point x="274" y="898" type="line"/>
      <point x="302" y="944"/>
      <point x="383" y="1020"/>
      <point x="431" y="1047" type="qcurve" smooth="yes" name="inserted"/>
      <point x="479" y="1073"/>
      <point x="586" y="1102"/>
      <point x="641" y="1102" type="qcurve" smooth="yes"/>
      <point x="740" y="1102"/>
      <point x="893" y="1018"/>
      <point x="941" y="947" type="qcurve" smooth="yes"/>
      <point x="996" y="866"/>
      <point x="1049.0" y="657.0"/>
      <point x="1049" y="552" type="qcurve" smooth="yes"/>
    </contour>
    <contour>
      <point x="994" y="552" type="line" smooth="yes"/>
      <point x="994.0" y="645.0"/>
      <point x="946" y="847"/>
      <point x="898" y="915" type="qcurve" smooth="yes"/>
      <point x="857" y="974"/>
      <point x="727" y="1048"/>
      <point x="642" y="1048" type="qcurve" smooth="yes"/>
      <point x="579" y="1048"/>
      <point x="464" y="1010"/>
      <point x="416" y="976" type="qcurve" smooth="yes" name="inserted"/>
      <point x="367" y="942"/>
      <point x="294" y="846"/>
      <point x="274" y="788" type="qcurve"/>
      <point x="274" y="258" type="line"/>
      <point x="295" y="204"/>
      <point x="373" y="120"/>
      <point x="423" y="92" type="qcurve" smooth="yes" name="inserted"/>
      <point x="473" y="63"/>
      <point x="587" y="34"/>
      <point x="644" y="34" type="qcurve" smooth="yes"/>
      <point x="740" y="34"/>
      <point x="870" y="120"/>
      <point x="910" y="186" type="qcurve" smooth="yes"/>
      <point x="956" y="256"/>
      <point x="992" y="442"/>
      <point x="994" y="531" type="qcurve" smooth="yes"/>
    </contour>
  </outline>
</glyph>
<glyph name="Aogonek" format="2">
  <advance width="1229"/>
  <unicode hex="0104"/>
  <outline>
    <contour>
      <point x="661" y="1456" type="line"/>
      <point x="1138" y="0" type="line"/>
      <point x="1135" y="-2" type="line"/>
      <point x="1106" y="-24"/>
      <point x="1040" y="-74"/>
      <point x="1010" y="-104" type="qcurve" smooth="yes" name="inserted"/>
      <point x="980" y="-134"/>
      <point x="939" y="-205"/>
      <point x="939" y="-246" type="qcurve" smooth="yes"/>
      <point x="940" y="-291"/>
      <point x="994" y="-340"/>
      <point x="1039" y="-341" type="qcurve" smooth="yes"/>
      <point x="1071" y="-342"/>
      <point x="1129" y="-320"/>
      <point x="1155" y="-303" type="qcurve"/>
      <point x="1171" y="-351" type="line"/>
      <point x="1141" y="-372"/>
      <point x="1076" y="-395"/>
      <point x="1039" y="-395" type="qcurve" smooth="yes"/>
      <point x="1005" y="-395"/>
      <point x="948" y="-374"/>
      <point x="928" y="-355" type="qcurve" smooth="yes" name="inserted"/>
      <point x="908" y="-336"/>
      <point x="885" y="-281"/>
      <point x="885" y="-246" type="qcurve" smooth="yes"/>
      <point x="885" y="-206"/>
      <point x="923" y="-133"/>
      <point x="952" y="-101" type="qcurve" smooth="yes" name="inserted"/>
      <point x="981" y="-70"/>
      <point x="1049" y="-15"/>
      <point x="1079" y="8" type="qcurve"/>
      <point x="939" y="435" type="line"/>
      <point x="320" y="435" type="line"/>
      <point x="178" y="0" type="line"/>
      <point x="122" y="0" type="line"/>
      <point x="599" y="1456" type="line"/>
    </contour>
    <contour>
      <point x="337" y="489" type="line"/>
      <point x="922" y="489" type="line"/>
      <point x="630" y="1382" type="line"/>
    </contour>
  </outline>
</glyph>
<glyph name="Dcroat" format="2">
  <advance width="1259"/>
  <unicode hex="0110"/>
  <outline>
    <contour>
      <point x="230" y="0" type="line"/>
      <point x="230" y="713" type="line"/>
      <point x="-45" y="713" type="line"/>
      <point x="-45" y="767" type="line"/>
      <point x="230" y="767" type="line"/>
      <point x="230" y="1456" type="line"/>
      <point x="596" y="1456" type="line" smooth="yes"/>
      <point x="711" y="1453"/>
      <point x="904" y="1358"/>
      <point x="965" y="1288" type="qcurve" smooth="yes"/>
      <point x="1053" y="1186"/>
      <point x="1138" y="948"/>
      <point x="1140" y="817" type="qcurve" smooth="yes"/>
      <point x="1140" y="639" type="line" smooth="yes"/>
      <point x="1140.0" y="515"/>
      <point x="1058" y="282"/>
      <point x="980" y="186" type="qcurve" smooth="yes"/>
      <point x="911" y="102"/>
      <point x="716.5873885277105" y="2.8373503182990714"/>
      <point x="596" y="0" type="qcurve" smooth="yes"/>
    </contour>
    <contour>
      <point x="542" y="713" type="line"/>
      <point x="282" y="713" type="line"/>
      <point x="282" y="54" type="line"/>
      <point x="596" y="54" type="line" smooth="yes"/>
      <point x="708.5126737084885" y="56.8849403514997"/>
      <point x="883" y="151"/>
      <point x="945" y="227" type="qcurve" smooth="yes"/>
      <point x="1012" y="309"/>
      <point x="1084.4229455803145" y="525.4520817826366"/>
      <point x="1086" y="639" type="qcurve" smooth="yes"/>
      <point x="1086" y="820" type="line" smooth="yes"/>
      <point x="1084" y="940"/>
      <point x="998" y="1166"/>
      <point x="921" y="1253" type="qcurve" smooth="yes"/>
      <point x="864" y="1318"/>
      <point x="695" y="1402"/>
      <point x="596" y="1402" type="qcurve" smooth="yes"/>
      <point x="282" y="1402" type="line"/>
      <point x="282" y="767" type="line"/>
      <point x="542" y="767" type="line"/>
    </contour>
  </outline>
</glyph>
<glyph name="dcroat" format="2">
  <advance width="1229"/>
  <unicode hex="0111"/>
  <outline>
    <contour>
      <point x="1175" y="1281" type="line"/>
      <point x="990" y="1281" type="line"/>
      <point x="990" y="0" type="line"/>
      <point x="936" y="0" type="line"/>
      <point x="936" y="162" type="line"/>
      <point x="908" y="118"/>
      <point x="829" y="51"/>
      <point x="783" y="28" type="qcurve" smooth="yes" name="inserted"/>
      <point x="736" y="4"/>
      <point x="636" y="-20"/>
      <point x="587" y="-20" type="qcurve" smooth="yes"/>
      <point x="482" y="-20.0"/>
      <point x="329" y="64"/>
      <point x="280" y="128" type="qcurve" smooth="yes"/>
      <point x="218" y="209"/>
      <point x="161.0" y="427"/>
      <point x="161" y="531" type="qcurve" smooth="yes"/>
      <point x="161" y="552" type="line" smooth="yes"/>
      <point x="161" y="647"/>
      <point x="205" y="843"/>
      <point x="257" y="922" type="qcurve" smooth="yes"/>
      <point x="307" y="1002"/>
      <point x="470" y="1102"/>
      <point x="589" y="1102" type="qcurve" smooth="yes"/>
      <point x="642" y="1102"/>
      <point x="743" y="1073"/>
      <point x="788" y="1046" type="qcurve" smooth="yes" name="inserted"/>
      <point x="833" y="1019"/>
      <point x="909" y="943"/>
      <point x="936" y="896" type="qcurve"/>
      <point x="936" y="1281" type="line"/>
      <point x="588" y="1281" type="line"/>
      <point x="588" y="1335" type="line"/>
      <point x="936" y="1335" type="line"/>
      <point x="936" y="1536" type="line"/>
      <point x="990" y="1536" type="line"/>
      <point x="990" y="1335" type="line"/>
      <point x="1175" y="1335" type="line"/>
    </contour>
    <contour>
      <point x="217" y="531" type="line" smooth="yes"/>
      <point x="217.0" y="440"/>
      <point x="260" y="256"/>
      <point x="314" y="172" type="qcurve" smooth="yes"/>
      <point x="351" y="114"/>
      <point x="490" y="34.0"/>
      <point x="586" y="34" type="qcurve" smooth="yes"/>
      <point x="639" y="34"/>
      <point x="746" y="63"/>
      <point x="793" y="91" type="qcurve" smooth="yes" name="inserted"/>
      <point x="840" y="119"/>
      <point x="915" y="202"/>
      <point x="936" y="255" type="qcurve"/>
      <point x="936" y="790" type="line"/>
      <point x="917" y="848"/>
      <point x="847" y="943"/>
      <point x="802" y="977" type="qcurve" smooth="yes" name="inserted"/>
      <point x="756" y="1011"/>
      <point x="647" y="1048"/>
      <point x="588" y="1048" type="qcurve" smooth="yes"/>
      <point x="478" y="1048"/>
      <point x="334" y="949"/>
      <point x="294" y="878" type="qcurve" smooth="yes"/>
      <point x="253" y="806"/>
      <point x="217" y="633"/>
      <point x="217" y="552" type="qcurve" smooth="yes"/>
    </contour>
  </outline>
</glyph>
<glyph name="Hbar" format="2">
  <advance width="1229"/>
  <unicode hex="0126"/>
  <outline>
    <contour>
      <point x="1045" y="1081" type="line"/>
      <point x="1195" y="1081" type="line"/>
      <point x="1195" y="1028" type="line"/>
      <point x="1045" y="1028" type="line"/>
      <point x="1045" y="0" type="line"/>
      <point x="994" y="0" type="line"/>
      <point x="994" y="722" type="line"/>
      <point x="222" y="722" type="line"/>
      <point x="222" y="0" type="line"/>
      <point x="171" y="0" type="line"/>
      <point x="171" y="1028" type="line"/>
      <point x="48" y="1028" type="line"/>
      <point x="48" y="1081" type="line"/>
      <point x="171" y="1081" type="line"/>
      <point x="171" y="1456" type="line"/>
      <point x="222" y="1456" type="line"/>
      <point x="222" y="1081" type="line"/>
      <point x="994" y="1081" type="line"/>
      <point x="994" y="1456" type="line"/>
      <point x="1045" y="1456" type="line"/>
    </contour>
    <contour>
      <point x="222" y="776" type="line"/>
      <point x="994" y="776" type="line"/>
      <point x="994" y="1028" type="line"/>
      <point x="222" y="1028" type="line"/>
    </contour>
  </outline>
</glyph>
<glyph name="hbar" format="2">
  <advance width="1229"/>
  <unicode hex="0127"/>
  <outline>
    <contour>
      <point x="593" y="1281" type="line"/>
      <point x="283" y="1281" type="line"/>
      <point x="283" y="821" type="line"/>
      <point x="309" y="881"/>
      <point x="389" y="984"/>
      <point x="441" y="1022" type="qcurve" smooth="yes" name="inserted"/>
      <point x="492" y="1059"/>
      <point x="616" y="1102"/>
      <point x="687" y="1102" type="qcurve" smooth="yes"/>
      <point x="780" y="1102"/>
      <point x="916" y="1042"/>
      <point x="960.0" y="989" type="qcurve" smooth="yes" name="inserted"/>
      <point x="1004" y="935"/>
      <point x="1047" y="787"/>
      <point x="1048" y="700" type="qcurve" smooth="yes"/>
      <point x="1048" y="0" type="line"/>
      <point x="993" y="0" type="line"/>
      <point x="993" y="700" type="line" smooth="yes"/>
      <point x="992" y="776"/>
      <point x="957" y="905"/>
      <point x="920" y="952" type="qcurve" smooth="yes" name="inserted"/>
      <point x="882" y="998"/>
      <point x="766" y="1050"/>
      <point x="684" y="1049" type="qcurve" smooth="yes"/>
      <point x="611" y="1048"/>
      <point x="479" y="992"/>
      <point x="426" y="945.0" type="qcurve" smooth="yes" name="inserted"/>
      <point x="372" y="898"/>
      <point x="298" y="772"/>
      <point x="283" y="702" type="qcurve"/>
      <point x="283" y="0" type="line"/>
      <point x="228" y="0" type="line"/>
      <point x="228" y="1281" type="line"/>
      <point x="6" y="1281" type="line"/>
      <point x="6" y="1335" type="line"/>
      <point x="228" y="1335" type="line"/>
      <point x="228" y="1536" type="line"/>
      <point x="283" y="1536" type="line"/>
      <point x="283" y="1335" type="line"/>
      <point x="593" y="1335" type="line"/>
    </contour>
  </outline>
</glyph>
<glyph name="kgreenlandic" format="2">
  <advance width="1229"/>
  <unicode hex="0138"/>
  <outline>
    <contour>
      <point x="489" y="533" type="line"/>
      <point x="296" y="354" type="line"/>
      <point x="296" y="0" type="line"/>
      <point x="241" y="0" type="line"/>
      <point x="241" y="1082" type="line"/>
      <point x="296" y="1082" type="line"/>
      <point x="296" y="423" type="line"/>
      <point x="479" y="602" type="line"/>
      <point x="978" y="1082" type="line"/>
      <point x="1048" y="1082" type="line"/>
      <point x="529" y="572" type="line"/>
      <point x="1112" y="0" type="line"/>
      <point x="1038" y="0" type="line"/>
    </contour>
  </outline>
</glyph>
<glyph name="eng" format="2">
  <advance width="1229"/>
  <unicode hex="014B"/>
  <outline>
    <contour>
      <point x="224" y="0" type="line"/>
      <point x="224" y="1082" type="line"/>
      <point x="272" y="1082" type="line"/>
      <point x="278" y="851" type="line"/>
      <point x="278" y="843" type="line"/>
      <point x="301" y="899"/>
      <point x="369" y="994"/>
      <point x="415.0" y="1028.5" type="qcurve" smooth="yes" name="inserted"/>
      <point x="461" y="1063"/>
      <point x="580" y="1102"/>
      <point x="654" y="1102" type="qcurve" smooth="yes"/>
      <point x="756" y="1102"/>
      <point x="892" y="1024"/>
      <point x="932.5" y="959.0" type="qcurve" smooth="yes" name="inserted"/>
      <point x="973" y="894"/>
      <point x="1007" y="726"/>
      <point x="1008" y="637" type="qcurve" smooth="yes"/>
      <point x="1008" y="-89" type="line" smooth="yes"/>
      <point x="1008.0" y="-157"/>
      <point x="974" y="-282"/>
      <point x="939.5" y="-330.0" type="qcurve" smooth="yes" name="inserted"/>
      <point x="905" y="-378"/>
      <point x="798" y="-437"/>
      <point x="723" y="-437" type="qcurve" smooth="yes"/>
      <point x="689" y="-437"/>
      <point x="623" y="-426"/>
      <point x="590" y="-417" type="qcurve"/>
      <point x="603" y="-365" type="line"/>
      <point x="632" y="-373"/>
      <point x="692" y="-384"/>
      <point x="723" y="-384" type="qcurve" smooth="yes"/>
      <point x="786" y="-384"/>
      <point x="873" y="-333"/>
      <point x="900.5" y="-291.5" type="qcurve" smooth="yes" name="inserted"/>
      <point x="928" y="-250"/>
      <point x="953" y="-144"/>
      <point x="954" y="-89" type="qcurve" smooth="yes"/>
      <point x="954" y="639" type="line" smooth="yes"/>
      <point x="953" y="714"/>
      <point x="926" y="861"/>
      <point x="892.0" y="919.0" type="qcurve" smooth="yes" name="inserted"/>
      <point x="858" y="977"/>
      <point x="743" y="1048"/>
      <point x="655" y="1048" type="qcurve" smooth="yes"/>
      <point x="566" y="1048"/>
      <point x="434" y="985"/>
      <point x="388.5" y="932.5" type="qcurve" smooth="yes" name="inserted"/>
      <point x="343" y="880"/>
      <point x="289" y="742"/>
      <point x="278" y="666" type="qcurve"/>
      <point x="278" y="0" type="line"/>
    </contour>
  </outline>
</glyph>
<glyph name="OE" format="2">
  <advance width="1229"/>
  <unicode hex="0152"/>
  <outline>
    <contour>
      <point x="1193" y="0" type="line"/>
      <point x="704" y="0" type="line"/>
      <point x="648" y="-6"/>
      <point x="539" y="-11"/>
      <point x="482" y="-11" type="qcurve" smooth="yes"/>
      <point x="362" y="-11"/>
      <point x="199" y="113"/>
      <point x="154" y="203" type="qcurve" smooth="yes"/>
      <point x="109" y="290"/>
      <point x="73" y="495"/>
      <point x="73" y="576" type="qcurve" smooth="yes"/>
      <point x="73" y="880" type="line" smooth="yes"/>
      <point x="73.0" y="971"/>
      <point x="113" y="1177"/>
      <point x="159" y="1263" type="qcurve" smooth="yes"/>
      <point x="205" y="1350"/>
      <point x="360.00860892452624" y="1464.5543205894523"/>
      <point x="480" y="1466" type="qcurve" smooth="yes"/>
      <point x="537" y="1467"/>
      <point x="648" y="1463"/>
      <point x="704" y="1456" type="qcurve"/>
      <point x="1193" y="1456" type="line"/>
      <point x="1193" y="1402" type="line"/>
      <point x="709" y="1402" type="line"/>
      <point x="709" y="776" type="line"/>
      <point x="1127" y="776" type="line"/>
      <point x="1127" y="722" type="line"/>
      <point x="709" y="722" type="line"/>
      <point x="709" y="54" type="line"/>
      <point x="1193" y="54" type="line"/>
    </contour>
    <contour>
      <point x="482" y="43" type="qcurve" smooth="yes"/>
      <point x="527" y="42"/>
      <point x="616" y="42"/>
      <point x="661" y="47" type="qcurve"/>
      <point x="661" y="1408" type="line"/>
      <point x="616" y="1413"/>
      <point x="527" y="1413"/>
      <point x="481" y="1412" type="qcurve" smooth="yes"/>
      <point x="373.06156268401617" y="1410.560820835787"/>
      <point x="236" y="1303"/>
      <point x="199" y="1231" type="qcurve" smooth="yes"/>
      <point x="155" y="1146"/>
      <point x="127.0" y="953.7588025674527"/>
      <point x="127" y="882" type="qcurve" smooth="yes"/>
      <point x="127" y="576" type="line" smooth="yes"/>
      <point x="127" y="506"/>
      <point x="154" y="321"/>
      <point x="195" y="236" type="qcurve" smooth="yes"/>
      <point x="233" y="158"/>
      <point x="372" y="44"/>
    </contour>
  </outline>
</glyph>
<glyph name="tbar" format="2">
  <advance width="1229"/>
  <unicode hex="0167"/>
  <outline>
    <contour>
      <point x="573" y="1374" type="line"/>
      <point x="572" y="1082" type="line"/>
      <point x="962" y="1082" type="line"/>
      <point x="962" y="1027" type="line"/>
      <point x="572" y="1027" type="line"/>
      <point x="572" y="688" type="line"/>
      <point x="860" y="688" type="line"/>
      <point x="860" y="634" type="line"/>
      <point x="572" y="634" type="line"/>
      <point x="572" y="259" type="line" smooth="yes"/>
      <point x="574" y="196"/>
      <point x="615" y="111"/>
      <point x="651" y="85" type="qcurve" smooth="yes" name="inserted"/>
      <point x="687" y="58"/>
      <point x="784" y="34"/>
      <point x="842" y="34" type="qcurve" smooth="yes"/>
      <point x="864" y="34"/>
      <point x="907" y="35"/>
      <point x="928" y="37" type="qcurve" smooth="yes"/>
      <point x="946" y="38"/>
      <point x="983" y="41"/>
      <point x="1001" y="43" type="qcurve"/>
      <point x="1012" y="-8" type="line"/>
      <point x="992" y="-12"/>
      <point x="952" y="-17"/>
      <point x="932" y="-18" type="qcurve" smooth="yes"/>
      <point x="911" y="-19"/>
      <point x="868" y="-20"/>
      <point x="847" y="-20" type="qcurve" smooth="yes"/>
      <point x="775" y="-20"/>
      <point x="655" y="9"/>
      <point x="611" y="42" type="qcurve" smooth="yes" name="inserted"/>
      <point x="567" y="75"/>
      <point x="517" y="181"/>
      <point x="515" y="259" type="qcurve" smooth="yes"/>
      <point x="515" y="634" type="line"/>
      <point x="273" y="634" type="line"/>
      <point x="273" y="688" type="line"/>
      <point x="515" y="688" type="line"/>
      <point x="515" y="1027" type="line"/>
      <point x="197" y="1027" type="line"/>
      <point x="197" y="1082" type="line"/>
      <point x="515" y="1082" type="line"/>
      <point x="515" y="1374" type="line"/>
    </contour>
  </outline>
</glyph>
<glyph name="Uogonek" format="2">
  <advance width="1229"/>
  <unicode hex="0172"/>
  <outline>
    <contour>
      <point x="1054" y="1456" type="line"/>
      <point x="1055" y="469" type="line" smooth="yes"/>
      <point x="1055" y="397"/>
      <point x="1020" y="262"/>
      <point x="988.5" y="203.5" type="qcurve" smooth="yes" name="inserted"/>
      <point x="957" y="145"/>
      <point x="866" y="52"/>
      <point x="807" y="23" type="qcurve"/>
      <point x="778" y="2"/>
      <point x="713" y="-48"/>
      <point x="685.0" y="-77.5" type="qcurve" smooth="yes" name="inserted"/>
      <point x="657" y="-107"/>
      <point x="621" y="-174"/>
      <point x="621" y="-213" type="qcurve" smooth="yes"/>
      <point x="622" y="-258"/>
      <point x="676" y="-307"/>
      <point x="721" y="-308" type="qcurve" smooth="yes"/>
      <point x="753" y="-309"/>
      <point x="811" y="-287"/>
      <point x="837" y="-270" type="qcurve"/>
      <point x="853" y="-318" type="line"/>
      <point x="823" y="-339"/>
      <point x="758" y="-362"/>
      <point x="721" y="-362" type="qcurve" smooth="yes"/>
      <point x="687" y="-362"/>
      <point x="630" y="-341"/>
      <point x="610.0" y="-322.0" type="qcurve" smooth="yes" name="inserted"/>
      <point x="590" y="-303"/>
      <point x="567" y="-248"/>
      <point x="567" y="-213" type="qcurve" smooth="yes"/>
      <point x="567" y="-183"/>
      <point x="588" y="-129"/>
      <point x="605.0" y="-104.0" type="qcurve" smooth="yes" name="inserted"/>
      <point x="622" y="-79"/>
      <point x="666" y="-34"/>
      <point x="690" y="-14" type="qcurve"/>
      <point x="672.0" y="-17.0" name="inserted"/>
      <point x="635.0" y="-20.0"/>
      <point x="616" y="-20" type="qcurve" smooth="yes"/>
      <point x="512" y="-20"/>
      <point x="350" y="60"/>
      <point x="294.0" y="127.5" type="qcurve" smooth="yes" name="inserted"/>
      <point x="238" y="195"/>
      <point x="177" y="372"/>
      <point x="176" y="469" type="qcurve" smooth="yes"/>
      <point x="177" y="1456" type="line"/>
      <point x="228" y="1456" type="line"/>
      <point x="229" y="469" type="line" smooth="yes"/>
      <point x="230" y="384"/>
      <point x="283" y="227"/>
      <point x="332.5" y="166.5" type="qcurve" smooth="yes" name="inserted"/>
      <point x="382" y="106"/>
      <point x="525" y="34"/>
      <point x="616" y="34" type="qcurve" smooth="yes"/>
      <point x="707" y="34"/>
      <point x="849" y="107"/>
      <point x="898.0" y="167.5" type="qcurve" smooth="yes" name="inserted"/>
      <point x="947" y="228"/>
      <point x="999" y="385"/>
      <point x="1001" y="469" type="qcurve" smooth="yes"/>
      <point x="1002" y="1456" type="line"/>
    </contour>
  </outline>
</glyph>
<glyph name="Ohorn" format="2">
  <advance width="1229"/>
  <unicode hex="01A0"/>
  <outline>
    <contour>
      <point x="1086" y="619" type="line" smooth="yes"/>
      <point x="1086.0" y="507.0"/>
      <point x="1026" y="268"/>
      <point x="963" y="172" type="qcurve" smooth="yes"/>
      <point x="906" y="91"/>
      <point x="734" y="-20"/>
      <point x="616" y="-20" type="qcurve" smooth="yes"/>
      <point x="494.8144662990608" y="-20.0"/>
      <point x="318" y="94"/>
      <point x="261" y="184" type="qcurve" smooth="yes"/>
      <point x="200" y="281"/>
      <point x="142.0" y="510.0"/>
      <point x="142" y="619" type="qcurve" smooth="yes"/>
      <point x="142" y="837" type="line" smooth="yes"/>
      <point x="142.0" y="951.0"/>
      <point x="204" y="1194"/>
      <point x="270" y="1289" type="qcurve" smooth="yes"/>
      <point x="327" y="1371"/>
      <point x="496" y="1476"/>
      <point x="614" y="1476" type="qcurve" smooth="yes"/>
      <point x="681" y="1476"/>
      <point x="793" y="1440"/>
      <point x="840" y="1409" type="qcurve" smooth="yes" name="inserted"/>
      <point x="886" y="1377"/>
      <point x="960" y="1290"/>
      <point x="988" y="1239" type="qcurve"/>
      <point x="1049" y="1245"/>
      <point x="1123" y="1298"/>
      <point x="1143" y="1339" type="qcurve" smooth="yes" name="inserted"/>
      <point x="1163" y="1380"/>
      <point x="1178" y="1484"/>
      <point x="1181" y="1541" type="qcurve"/>
      <point x="1232" y="1541" type="line"/>
      <point x="1233" y="1476"/>
      <point x="1213" y="1357"/>
      <point x="1188" y="1310" type="qcurve" smooth="yes" name="inserted"/>
      <point x="1163" y="1263"/>
      <point x="1077" y="1199"/>
      <point x="1013" y="1188" type="qcurve"/>
      <point x="1050" y="1105"/>
      <point x="1086.0" y="924"/>
      <point x="1086" y="837" type="qcurve" smooth="yes"/>
    </contour>
    <contour>
      <point x="1033" y="839" type="line" smooth="yes"/>
      <point x="1033.0" y="936"/>
      <point x="985" y="1144"/>
      <point x="935" y="1230" type="qcurve" smooth="yes"/>
      <point x="885" y="1314"/>
      <point x="726" y="1422"/>
      <point x="614" y="1422" type="qcurve" smooth="yes"/>
      <point x="505" y="1422"/>
      <point x="352" y="1323"/>
      <point x="302" y="1242" type="qcurve" smooth="yes"/>
      <point x="251" y="1159"/>
      <point x="197.0" y="938"/>
      <point x="197" y="839" type="qcurve" smooth="yes"/>
      <point x="197" y="619" type="line" smooth="yes"/>
      <point x="197.0" y="522"/>
      <point x="244" y="314"/>
      <point x="295" y="228" type="qcurve" smooth="yes"/>
      <point x="344" y="145"/>
      <point x="502.8152606958517" y="34.0"/>
      <point x="616" y="34" type="qcurve" smooth="yes"/>
      <point x="722" y="34"/>
      <point x="873" y="131"/>
      <point x="923" y="206" type="qcurve" smooth="yes"/>
      <point x="978" y="293"/>
      <point x="1033.0" y="516"/>
      <point x="1033" y="619" type="qcurve" smooth="yes"/>
    </contour>
  </outline>
</glyph>
<glyph name="ohorn" format="2">
  <advance width="1229"/>
  <unicode hex="01A1"/>
  <outline>
    <contour>
      <point x="114" y="562" type="line" smooth="yes"/>
      <point x="115" y="666"/>
      <point x="179" y="861"/>
      <point x="239.0" y="936.0" type="qcurve" smooth="yes" name="inserted"/>
      <point x="299" y="1011"/>
      <point x="474" y="1102"/>
      <point x="587" y="1102" type="qcurve" smooth="yes"/>
      <point x="698" y="1102"/>
      <point x="868" y="1015"/>
      <point x="929" y="948" type="qcurve"/>
      <point x="1015" y="961"/>
      <point x="1077" y="997"/>
      <point x="1095" y="1020.0" type="qcurve" smooth="yes" name="inserted"/>
      <point x="1118" y="1051"/>
      <point x="1138" y="1139"/>
      <point x="1140" y="1196" type="qcurve"/>
      <point x="1194" y="1196" type="line"/>
      <point x="1193" y="1131"/>
      <point x="1167" y="1028"/>
      <point x="1140" y="990.0" type="qcurve" smooth="yes" name="inserted"/>
      <point x="1112" y="952"/>
      <point x="1024" y="907"/>
      <point x="962" y="901" type="qcurve"/>
      <point x="1010" y="829"/>
      <point x="1059" y="655"/>
      <point x="1061" y="562" type="qcurve" smooth="yes"/>
      <point x="1061" y="520" type="line"/>
      <point x="1060" y="416"/>
      <point x="997" y="221"/>
      <point x="937.0" y="146.0" type="qcurve" smooth="yes" name="inserted"/>
      <point x="877" y="71"/>
      <point x="702" y="-20"/>
      <point x="589" y="-20" type="qcurve" smooth="yes"/>
      <point x="476" y="-20"/>
      <point x="300" y="70"/>
      <point x="240" y="145.0" type="qcurve" smooth="yes" name="inserted"/>
      <point x="179" y="220"/>
      <point x="115" y="415"/>
      <point x="114" y="520" type="qcurve" smooth="yes"/>
    </contour>
    <contour>
      <point x="168" y="520" type="line" smooth="yes"/>
      <point x="169" y="428"/>
      <point x="226" y="253"/>
      <point x="279.5" y="185.0" type="qcurve" smooth="yes" name="inserted"/>
      <point x="333" y="117"/>
      <point x="489" y="34"/>
      <point x="589" y="34" type="qcurve" smooth="yes"/>
      <point x="689" y="34"/>
      <point x="843" y="117"/>
      <point x="896.5" y="185.5" type="qcurve" smooth="yes" name="inserted"/>
      <point x="950" y="254"/>
      <point x="1006" y="428"/>
      <point x="1007" y="520" type="qcurve" smooth="yes"/>
      <point x="1007" y="562" type="line" smooth="yes"/>
      <point x="1006" y="653"/>
      <point x="949" y="828"/>
      <point x="895.5" y="896.0" type="qcurve" smooth="yes" name="inserted"/>
      <point x="842" y="964"/>
      <point x="686" y="1048"/>
      <point x="587" y="1048" type="qcurve" smooth="yes"/>
      <point x="488" y="1048"/>
      <point x="333" y="964"/>
      <point x="279.5" y="896.0" type="qcurve" smooth="yes" name="inserted"/>
      <point x="226" y="828"/>
      <point x="169" y="653"/>
      <point x="168" y="562" type="qcurve"/>
    </contour>
  </outline>
</glyph>
<glyph name="Uhorn" format="2">
  <advance width="1229"/>
  <unicode hex="01AF"/>
  <outline>
    <contour>
      <point x="1054" y="1456" type="line"/>
      <point x="1054" y="1251" type="line"/>
      <point x="1112" y="1260"/>
      <point x="1183" y="1312"/>
      <point x="1203.5" y="1351.5" type="qcurve" smooth="yes" name="inserted"/>
      <point x="1224" y="1391"/>
      <point x="1240" y="1493"/>
      <point x="1243" y="1551" type="qcurve"/>
      <point x="1295" y="1551" type="line"/>
      <point x="1296" y="1482"/>
      <point x="1272" y="1361"/>
      <point x="1244.0" y="1314.0" type="qcurve" smooth="yes" name="inserted"/>
      <point x="1216" y="1267"/>
      <point x="1123" y="1206"/>
      <point x="1054" y="1197" type="qcurve"/>
      <point x="1055" y="469" type="line" smooth="yes"/>
      <point x="1055" y="372"/>
      <point x="994" y="195"/>
      <point x="937.5" y="127.5" type="qcurve" smooth="yes" name="inserted"/>
      <point x="881" y="60"/>
      <point x="719" y="-20"/>
      <point x="616" y="-20" type="qcurve" smooth="yes"/>
      <point x="512" y="-20"/>
      <point x="350" y="60"/>
      <point x="294.0" y="127.5" type="qcurve" smooth="yes" name="inserted"/>
      <point x="238" y="195"/>
      <point x="177" y="372"/>
      <point x="176" y="469" type="qcurve" smooth="yes"/>
      <point x="177" y="1456" type="line"/>
      <point x="228" y="1456" type="line"/>
      <point x="229" y="469" type="line" smooth="yes"/>
      <point x="230" y="384"/>
      <point x="283" y="227"/>
      <point x="332.5" y="166.5" type="qcurve" smooth="yes" name="inserted"/>
      <point x="382" y="106"/>
      <point x="525" y="34"/>
      <point x="616" y="34" type="qcurve" smooth="yes"/>
      <point x="707" y="34"/>
      <point x="849" y="107"/>
      <point x="898.0" y="167.5" type="qcurve" smooth="yes" name="inserted"/>
      <point x="947" y="228"/>
      <point x="999" y="385"/>
      <point x="1001" y="469" type="qcurve" smooth="yes"/>
      <point x="1002" y="1456" type="line"/>
    </contour>
  </outline>
</glyph>
<glyph name="uni0237" format="2">
  <advance width="1229"/>
  <unicode hex="0237"/>
  <outline>
    <contour>
      <point x="271" y="1082" type="line"/>
      <point x="785" y="1082" type="line"/>
      <point x="785" y="6" type="line" smooth="yes"/>
      <point x="785" y="-93"/>
      <point x="732" y="-257"/>
      <point x="681.0" y="-315.0" type="qcurve" smooth="yes" name="inserted"/>
      <point x="630" y="-373"/>
      <point x="484" y="-437"/>
      <point x="391" y="-437" type="qcurve" smooth="yes"/>
      <point x="362" y="-437"/>
      <point x="312" y="-435"/>
      <point x="288.0" y="-433.0" type="qcurve" smooth="yes" name="inserted"/>
      <point x="264" y="-431"/>
      <point x="215" y="-425"/>
      <point x="187" y="-420" type="qcurve"/>
      <point x="191" y="-372" type="line"/>
      <point x="210" y="-375"/>
      <point x="265" y="-380"/>
      <point x="292.5" y="-381.5" type="qcurve" smooth="yes" name="inserted"/>
      <point x="320" y="-383"/>
      <point x="371" y="-384"/>
      <point x="387" y="-384" type="qcurve" smooth="yes"/>
      <point x="455" y="-384"/>
      <point x="580" y="-343"/>
      <point x="627.5" y="-296.5" type="qcurve" smooth="yes" name="inserted"/>
      <point x="675" y="-250"/>
      <point x="731" y="-102"/>
      <point x="731" y="6" type="qcurve" smooth="yes"/>
      <point x="731" y="1028" type="line"/>
      <point x="271" y="1028" type="line"/>
    </contour>
  </outline>
</glyph>
<glyph name="schwa" format="2">
  <advance width="1229"/>
  <unicode hex="0259"/>
  <outline>
    <contour>
      <point x="617" y="1102" type="qcurve" smooth="yes"/>
      <point x="715.5630880683443" y="1100.5919558847381"/>
      <point x="880" y="1023"/>
      <point x="942" y="957" type="qcurve" smooth="yes"/>
      <point x="1011" y="884"/>
      <point x="1088.4137931034484" y="685.6896551724137"/>
      <point x="1090" y="581" type="qcurve" smooth="yes"/>
      <point x="1090" y="517" type="line"/>
      <point x="1089" y="416"/>
      <point x="1024" y="223"/>
      <point x="964" y="147" type="qcurve" smooth="yes" name="inserted"/>
      <point x="903" y="71"/>
      <point x="729" y="-21"/>
      <point x="620" y="-21" type="qcurve" smooth="yes"/>
      <point x="524" y="-21"/>
      <point x="366" y="47"/>
      <point x="310" y="106" type="qcurve" smooth="yes" name="inserted"/>
      <point x="253" y="165"/>
      <point x="190" y="327"/>
      <point x="189" y="421" type="qcurve" smooth="yes"/>
      <point x="189" y="504" type="line"/>
      <point x="1035" y="504" type="line"/>
      <point x="1036" y="510"/>
      <point x="1036" y="550"/>
      <point x="1036" y="581" type="qcurve"/>
      <point x="1033.6470588235293" y="685.7058823529411"/>
      <point x="960" y="861"/>
      <point x="905" y="920" type="qcurve" smooth="yes"/>
      <point x="850" y="978"/>
      <point x="706" y="1047"/>
      <point x="617" y="1048" type="qcurve" smooth="yes"/>
      <point x="567" y="1048"/>
      <point x="469" y="1036"/>
      <point x="423" y="1021" type="qcurve" smooth="yes" name="inserted"/>
      <point x="377" y="1005"/>
      <point x="294" y="954"/>
      <point x="260" y="916" type="qcurve"/>
      <point x="231" y="958" type="line"/>
      <point x="269" y="997"/>
      <point x="356" y="1052"/>
      <point x="404" y="1069" type="qcurve" smooth="yes"/>
      <point x="453" y="1087"/>
      <point x="561" y="1103"/>
    </contour>
    <contour>
      <point x="620" y="33" type="qcurve" smooth="yes"/>
      <point x="710" y="33"/>
      <point x="853" y="102"/>
      <point x="905.0" y="160.0" type="qcurve" smooth="yes" name="inserted"/>
      <point x="957" y="218"/>
      <point x="1021" y="369"/>
      <point x="1031" y="450" type="qcurve"/>
      <point x="243" y="450" type="line"/>
      <point x="243" y="417" type="line" smooth="yes"/>
      <point x="244" y="336"/>
      <point x="301" y="196"/>
      <point x="350.5" y="144.5" type="qcurve" smooth="yes" name="inserted"/>
      <point x="400" y="93"/>
      <point x="538" y="33"/>
    </contour>
  </outline>
</glyph>
<glyph name="circumflex" format="2">
  <advance width="1229"/>
  <unicode hex="02C6"/>
  <outline>
    <contour>
      <point x="890" y="1274" type="line"/>
      <point x="890" y="1264" type="line"/>
      <point x="822" y="1264" type="line"/>
      <point x="635" y="1460" type="line"/>
      <point x="450" y="1264" type="line"/>
      <point x="386" y="1264" type="line"/>
      <point x="386" y="1278" type="line"/>
      <point x="616" y="1517" type="line"/>
      <point x="656" y="1517" type="line"/>
    </contour>
  </outline>
</glyph>
<glyph name="ring" format="2">
  <advance width="1229"/>
  <unicode hex="02DA"/>
  <outline>
    <contour>
      <point x="450" y="1382" type="qcurve" smooth="yes"/>
      <point x="450" y="1416"/>
      <point x="474" y="1479"/>
      <point x="496.0" y="1503.0" type="qcurve" smooth="yes" name="inserted"/>
      <point x="518" y="1527"/>
      <point x="578" y="1556"/>
      <point x="613" y="1556" type="qcurve" smooth="yes"/>
      <point x="648" y="1556"/>
      <point x="708" y="1527"/>
      <point x="730.0" y="1503.0" type="qcurve" smooth="yes" name="inserted"/>
      <point x="752" y="1479"/>
      <point x="777" y="1416"/>
      <point x="777" y="1382" type="qcurve" smooth="yes"/>
      <point x="777" y="1348"/>
      <point x="752" y="1286"/>
      <point x="730.0" y="1263.0" type="qcurve" smooth="yes" name="inserted"/>
      <point x="708" y="1240"/>
      <point x="648" y="1212"/>
      <point x="613" y="1212" type="qcurve" smooth="yes"/>
      <point x="578" y="1212"/>
      <point x="518" y="1240"/>
      <point x="496.5" y="1263.0" type="qcurve" smooth="yes" name="inserted"/>
      <point x="475" y="1286"/>
      <point x="450" y="1348"/>
    </contour>
    <contour>
      <point x="504" y="1382" type="qcurve" smooth="yes"/>
      <point x="504" y="1359"/>
      <point x="520" y="1317"/>
      <point x="534.5" y="1301.0" type="qcurve" smooth="yes" name="inserted"/>
      <point x="549" y="1285"/>
      <point x="589" y="1266"/>
      <point x="613" y="1266" type="qcurve" smooth="yes"/>
      <point x="637" y="1266"/>
      <point x="678" y="1285"/>
      <point x="692.5" y="1301.0" type="qcurve" smooth="yes" name="inserted"/>
      <point x="707" y="1317"/>
      <point x="723" y="1359"/>
      <point x="723" y="1382" type="qcurve" smooth="yes"/>
      <point x="723" y="1406"/>
      <point x="707" y="1449"/>
      <point x="692.5" y="1465.5" type="qcurve" smooth="yes" name="inserted"/>
      <point x="678" y="1482"/>
      <point x="638" y="1502"/>
      <point x="613" y="1502" type="qcurve" smooth="yes"/>
      <point x="589" y="1502"/>
      <point x="548" y="1482"/>
      <point x="534.0" y="1466" type="qcurve" smooth="yes" name="inserted"/>
      <point x="520" y="1449"/>
      <point x="504" y="1406"/>
    </contour>
  </outline>
</glyph>
<glyph name="hook" format="2">
  <advance width="1229"/>
  <unicode hex="0309"/>
  <outline>
    <contour>
      <point x="-646" y="1227" type="line"/>
      <point x="-646" y="1326" type="line"/>
      <point x="-620" y="1329"/>
      <point x="-554" y="1338"/>
      <point x="-524.5" y="1349.5" type="qcurve" smooth="yes" name="inserted"/>
      <point x="-495" y="1361"/>
      <point x="-456" y="1404"/>
      <point x="-457" y="1440" type="qcurve" smooth="yes"/>
      <point x="-458" y="1479"/>
      <point x="-512" y="1522"/>
      <point x="-549.0" y="1533.0" type="qcurve" smooth="yes" name="inserted"/>
      <point x="-586" y="1544"/>
      <point x="-666" y="1549"/>
      <point x="-693" y="1550" type="qcurve"/>
      <point x="-686" y="1599" type="line"/>
      <point x="-649" y="1598"/>
      <point x="-551" y="1586"/>
      <point x="-507.0" y="1569.0" type="qcurve" smooth="yes" name="inserted"/>
      <point x="-463" y="1552"/>
      <point x="-401" y="1491"/>
      <point x="-401" y="1440" type="qcurve" smooth="yes"/>
      <point x="-401" y="1398"/>
      <point x="-436" y="1341"/>
      <point x="-464.0" y="1322.5" type="qcurve" smooth="yes" name="inserted"/>
      <point x="-492" y="1304"/>
      <point x="-563" y="1285"/>
      <point x="-598" y="1281" type="qcurve"/>
      <point x="-598" y="1227" type="line"/>
    </contour>
  </outline>
</glyph>
<glyph name="uni030F" format="2">
  <advance width="1229"/>
  <unicode hex="030F"/>
  <outline>
    <contour>
      <point x="-936" y="1252" type="line"/>
      <point x="-1009" y="1252" type="line"/>
      <point x="-1307" y="1518" type="line"/>
      <point x="-1227" y="1518" type="line"/>
    </contour>
    <contour>
      <point x="-711" y="1252" type="line"/>
      <point x="-780" y="1252" type="line"/>
      <point x="-1033" y="1518" type="line"/>
      <point x="-957" y="1518" type="line"/>
    </contour>
  </outline>
</glyph>
<glyph name="tonos" format="2">
  <advance width="1229"/>
  <unicode hex="0384"/>
  <outline>
    <contour>
      <point x="709" y="1578" type="line"/>
      <point x="776" y="1578" type="line"/>
      <point x="659" y="1305" type="line"/>
      <point x="603" y="1305" type="line"/>
    </contour>
  </outline>
</glyph>
<glyph name="Delta" format="2">
  <advance width="1229"/>
  <unicode hex="0394"/>
  <unicode hex="2206"/>
  <outline>
    <contour>
      <point x="603" y="1456" type="line"/>
      <point x="662" y="1456" type="line"/>
      <point x="1187" y="0" type="line"/>
      <point x="79" y="0" type="line"/>
    </contour>
    <contour>
      <point x="153" y="54" type="line"/>
      <point x="1110" y="54" type="line"/>
      <point x="654" y="1325" type="line"/>
      <point x="632" y="1395" type="line"/>
      <point x="610" y="1325" type="line"/>
    </contour>
  </outline>
</glyph>
<glyph name="Theta" format="2">
  <advance width="1229"/>
  <unicode hex="0398"/>
  <outline>
    <contour>
      <point x="855" y="691" type="line"/>
      <point x="343" y="691" type="line"/>
      <point x="343" y="744" type="line"/>
      <point x="855" y="744" type="line"/>
    </contour>
    <contour>
      <point x="1086" y="619" type="line" smooth="yes"/>
      <point x="1086.0" y="505.1596714401874"/>
      <point x="1023.7756053065959" y="262.00609107211926"/>
      <point x="960" y="169" type="qcurve" smooth="yes"/>
      <point x="904.0179591438549" y="85.02693871578255"/>
      <point x="732.2149127849209" y="-20.0"/>
      <point x="616" y="-20" type="qcurve" smooth="yes"/>
      <point x="496.4715033119683" y="-20.0"/>
      <point x="319.6273766492642" y="90.65063708646265"/>
      <point x="264" y="179" type="qcurve" smooth="yes"/>
      <point x="202.62713212498716" y="271.0593018125193"/>
      <point x="143.558760415163" y="508.3280105234272"/>
      <point x="142" y="619" type="qcurve" smooth="yes"/>
      <point x="142" y="837" type="line" smooth="yes"/>
      <point x="144" y="947"/>
      <point x="200" y="1177"/>
      <point x="261" y="1274" type="qcurve" smooth="yes"/>
      <point x="315" y="1360"/>
      <point x="491" y="1476"/>
      <point x="614" y="1476" type="qcurve" smooth="yes"/>
      <point x="732" y="1476"/>
      <point x="899" y="1372"/>
      <point x="960" y="1286" type="qcurve" smooth="yes"/>
      <point x="1026" y="1193"/>
      <point x="1084" y="950"/>
      <point x="1086" y="837" type="qcurve" smooth="yes"/>
    </contour>
    <contour>
      <point x="1033" y="839" type="line" smooth="yes"/>
      <point x="1031" y="943"/>
      <point x="976" y="1167"/>
      <point x="918" y="1256" type="qcurve" smooth="yes"/>
      <point x="870" y="1329"/>
      <point x="718" y="1422"/>
      <point x="614" y="1422" type="qcurve" smooth="yes"/>
      <point x="505" y="1422"/>
      <point x="352" y="1319"/>
      <point x="303" y="1244" type="qcurve" smooth="yes"/>
      <point x="249" y="1157"/>
      <point x="197" y="939"/>
      <point x="197" y="839" type="qcurve" smooth="yes"/>
      <point x="197" y="619" type="line" smooth="yes"/>
      <point x="198.56943885418752" y="518.5559133319996"/>
      <point x="246.8777039836232" y="302.43955882538404"/>
      <point x="302" y="217" type="qcurve" smooth="yes"/>
      <point x="350.7162133460153" y="135.80631108997463"/>
      <point x="506.18837387518397" y="34.0"/>
      <point x="616" y="34" type="qcurve" smooth="yes"/>
      <point x="718.1849296913656" y="34.0"/>
      <point x="866.2683730051875" y="126.7562087764133"/>
      <point x="917" y="197" type="qcurve" smooth="yes"/>
      <point x="978.0301586961388" y="286.00231476520247"/>
      <point x="1031.351879634194" y="513.5202965884087"/>
      <point x="1033" y="619" type="qcurve" smooth="yes"/>
    </contour>
  </outline>
</glyph>
<glyph name="Lambda" format="2">
  <advance width="1229"/>
  <unicode hex="039B"/>
  <outline>
    <contour>
      <point x="623" y="1379" type="line"/>
      <point x="159" y="0" type="line"/>
      <point x="102" y="0" type="line"/>
      <point x="592" y="1456" type="line"/>
      <point x="654" y="1456" type="line"/>
      <point x="1145" y="0" type="line"/>
      <point x="1088" y="0" type="line"/>
    </contour>
  </outline>
</glyph>
<glyph name="Sigma" format="2">
  <advance width="1229"/>
  <unicode hex="03A3"/>
  <outline>
    <contour>
      <point x="729" y="768" type="line"/>
      <point x="206" y="54" type="line"/>
      <point x="1122" y="54" type="line"/>
      <point x="1122" y="0" type="line"/>
      <point x="130" y="0" type="line"/>
      <point x="130" y="44" type="line"/>
      <point x="677" y="787" type="line"/>
      <point x="130" y="1412" type="line"/>
      <point x="130" y="1456" type="line"/>
      <point x="1062" y="1456" type="line"/>
      <point x="1062" y="1403" type="line"/>
      <point x="213" y="1403" type="line"/>
      <point x="729" y="815" type="line"/>
    </contour>
  </outline>
</glyph>
<glyph name="Phi" format="2">
  <advance width="1229"/>
  <unicode hex="03A6"/>
  <outline>
    <contour>
      <point x="640" y="1266" type="line"/>
      <point x="750" y="1263"/>
      <point x="934" y="1180"/>
      <point x="1000.5" y="1109.0" type="qcurve" smooth="yes" name="inserted"/>
      <point x="1067" y="1038"/>
      <point x="1141" y="848"/>
      <point x="1141" y="739" type="qcurve" smooth="yes"/>
      <point x="1141" y="629"/>
      <point x="1067" y="438"/>
      <point x="1001.0" y="366.5" type="qcurve" smooth="yes" name="inserted"/>
      <point x="935" y="295"/>
      <point x="751" y="211"/>
      <point x="640" y="209" type="qcurve"/>
      <point x="640" y="0" type="line"/>
      <point x="588" y="0" type="line"/>
      <point x="588" y="209" type="line"/>
      <point x="478" y="212"/>
      <point x="294" y="295"/>
      <point x="228.0" y="366.0" type="qcurve" smooth="yes" name="inserted"/>
      <point x="162" y="437"/>
      <point x="89" y="627"/>
      <point x="89" y="737" type="qcurve" smooth="yes"/>
      <point x="89" y="846"/>
      <point x="162" y="1036"/>
      <point x="228.0" y="1107.5" type="qcurve" smooth="yes" name="inserted"/>
      <point x="294" y="1179"/>
      <point x="478" y="1263"/>
      <point x="588" y="1266" type="qcurve"/>
      <point x="588" y="1456" type="line"/>
      <point x="640" y="1456" type="line"/>
    </contour>
    <contour>
      <point x="144" y="737" type="qcurve" smooth="yes"/>
      <point x="144" y="638"/>
      <point x="208" y="467"/>
      <point x="267" y="404" type="qcurve" smooth="yes" name="inserted"/>
      <point x="325" y="340"/>
      <point x="488" y="265"/>
      <point x="588" y="263" type="qcurve"/>
      <point x="588" y="1212" type="line"/>
      <point x="489" y="1209"/>
      <point x="325" y="1134"/>
      <point x="267" y="1070.0" type="qcurve" smooth="yes" name="inserted"/>
      <point x="208" y="1006"/>
      <point x="144" y="835"/>
    </contour>
    <contour>
      <point x="1087" y="739" type="qcurve" smooth="yes"/>
      <point x="1087" y="838"/>
      <point x="1022" y="1009"/>
      <point x="963.0" y="1073" type="qcurve" smooth="yes" name="inserted"/>
      <point x="904" y="1136"/>
      <point x="740" y="1210"/>
      <point x="640" y="1212" type="qcurve"/>
      <point x="640" y="263" type="line"/>
      <point x="740" y="264"/>
      <point x="905" y="339"/>
      <point x="964.0" y="404" type="qcurve" smooth="yes" name="inserted"/>
      <point x="1023" y="468"/>
      <point x="1087" y="640"/>
    </contour>
  </outline>
</glyph>
<glyph name="Omega" format="2">
  <advance width="1229"/>
  <unicode hex="03A9"/>
  <unicode hex="2126"/>
  <outline>
    <contour>
      <point x="708" y="78" type="line"/>
      <point x="799" y="127"/>
      <point x="925" y="269"/>
      <point x="965" y="355" type="qcurve" smooth="yes" name="inserted"/>
      <point x="1004" y="441"/>
      <point x="1039" y="633"/>
      <point x="1040" y="732" type="qcurve" smooth="yes"/>
      <point x="1040" y="851" type="line" smooth="yes"/>
      <point x="1038.4016033066434" y="953.2973883748211"/>
      <point x="979" y="1168"/>
      <point x="922" y="1256" type="qcurve" smooth="yes"/>
      <point x="877" y="1325"/>
      <point x="715.9797129045745" y="1422.0"/>
      <point x="611" y="1422" type="qcurve" smooth="yes"/>
      <point x="490.53487297959987" y="1422.0"/>
      <point x="323" y="1299"/>
      <point x="274" y="1210" type="qcurve" smooth="yes"/>
      <point x="230" y="1130"/>
      <point x="184.0" y="940.0049768019261"/>
      <point x="184" y="851" type="qcurve" smooth="yes"/>
      <point x="184" y="732" type="line" smooth="yes"/>
      <point x="185" y="633"/>
      <point x="222" y="440"/>
      <point x="262" y="355" type="qcurve" smooth="yes" name="inserted"/>
      <point x="302" y="269"/>
      <point x="430" y="127"/>
      <point x="522" y="78" type="qcurve"/>
      <point x="522" y="0" type="line"/>
      <point x="116" y="0" type="line"/>
      <point x="116" y="54" type="line"/>
      <point x="454" y="54" type="line"/>
      <point x="368" y="106"/>
      <point x="246" y="257"/>
      <point x="207" y="347" type="qcurve" smooth="yes" name="inserted"/>
      <point x="168" y="436"/>
      <point x="131" y="633"/>
      <point x="130" y="732" type="qcurve" smooth="yes"/>
      <point x="130" y="849" type="line" smooth="yes"/>
      <point x="130.0" y="951.0661566674137"/>
      <point x="180" y="1162"/>
      <point x="230" y="1248" type="qcurve" smooth="yes"/>
      <point x="291" y="1352"/>
      <point x="476.41556295660575" y="1476.0"/>
      <point x="611" y="1476" type="qcurve" smooth="yes"/>
      <point x="732.3333333333331" y="1476.0"/>
      <point x="909" y="1372"/>
      <point x="969" y="1285" type="qcurve" smooth="yes"/>
      <point x="1032" y="1193"/>
      <point x="1092.4425332020926" y="962.6950762472469"/>
      <point x="1094" y="849" type="qcurve" smooth="yes"/>
      <point x="1094" y="732" type="line"/>
      <point x="1093" y="633"/>
      <point x="1057" y="437"/>
      <point x="1018" y="348" type="qcurve" smooth="yes" name="inserted"/>
      <point x="979" y="258"/>
      <point x="857" y="107"/>
      <point x="772" y="54" type="qcurve"/>
      <point x="1113" y="54" type="line"/>
      <point x="1113" y="0" type="line"/>
      <point x="708" y="0" type="line"/>
    </contour>
  </outline>
</glyph>
<glyph name="epsilon" format="2">
  <advance width="1229"/>
  <unicode hex="03B5"/>
  <outline>
    <contour>
      <point x="170" y="290" type="qcurve" smooth="yes"/>
      <point x="170" y="352"/>
      <point x="215" y="442"/>
      <point x="254" y="474" type="qcurve" smooth="yes" name="inserted"/>
      <point x="292" y="505"/>
      <point x="391" y="543"/>
      <point x="445" y="554" type="qcurve"/>
      <point x="396" y="566"/>
      <point x="304" y="606"/>
      <point x="269" y="636" type="qcurve" smooth="yes" name="inserted"/>
      <point x="234" y="666"/>
      <point x="191" y="748"/>
      <point x="191" y="802" type="qcurve" smooth="yes"/>
      <point x="191.0" y="883.0452015586519"/>
      <point x="266" y="995"/>
      <point x="326" y="1030" type="qcurve" smooth="yes"/>
      <point x="394" y="1069"/>
      <point x="561.364788176439" y="1102.0"/>
      <point x="637" y="1102" type="qcurve" smooth="yes"/>
      <point x="710" y="1102"/>
      <point x="860" y="1069"/>
      <point x="923" y="1033" type="qcurve" smooth="yes" name="inserted"/>
      <point x="985" y="996"/>
      <point x="1070" y="881"/>
      <point x="1078" y="799" type="qcurve"/>
      <point x="1021" y="799" type="line"/>
      <point x="1019" y="869"/>
      <point x="942" y="965"/>
      <point x="885" y="994" type="qcurve" smooth="yes" name="inserted"/>
      <point x="828" y="1023"/>
      <point x="695" y="1048"/>
      <point x="637" y="1048" type="qcurve" smooth="yes"/>
      <point x="561" y="1048.0"/>
      <point x="410" y="1019"/>
      <point x="356" y="986" type="qcurve" smooth="yes"/>
      <point x="305" y="955"/>
      <point x="248.0" y="868.3528031610513"/>
      <point x="248" y="805" type="qcurve" smooth="yes"/>
      <point x="248" y="756"/>
      <point x="286" y="684"/>
      <point x="317" y="659" type="qcurve" smooth="yes" name="inserted"/>
      <point x="348" y="634"/>
      <point x="429" y="604"/>
      <point x="473" y="596" type="qcurve" smooth="yes" name="inserted"/>
      <point x="517" y="587"/>
      <point x="604" y="580"/>
      <point x="641" y="580" type="qcurve" smooth="yes"/>
      <point x="826" y="580" type="line"/>
      <point x="826" y="525" type="line"/>
      <point x="641" y="525" type="line" smooth="yes"/>
      <point x="601" y="525"/>
      <point x="508" y="519"/>
      <point x="462" y="511" type="qcurve" smooth="yes" name="inserted"/>
      <point x="415" y="502"/>
      <point x="329" y="470"/>
      <point x="296" y="444" type="qcurve" smooth="yes" name="inserted"/>
      <point x="263" y="417"/>
      <point x="224" y="340"/>
      <point x="224" y="287" type="qcurve" smooth="yes"/>
      <point x="224" y="229"/>
      <point x="275" y="138"/>
      <point x="321" y="111" type="qcurve" smooth="yes"/>
      <point x="398" y="66"/>
      <point x="564" y="35"/>
      <point x="637" y="35" type="qcurve" smooth="yes"/>
      <point x="700" y="35"/>
      <point x="847" y="64"/>
      <point x="907" y="98" type="qcurve" smooth="yes"/>
      <point x="965" y="127"/>
      <point x="1040" y="228"/>
      <point x="1041" y="301" type="qcurve"/>
      <point x="1098" y="301" type="line"/>
      <point x="1090" y="214"/>
      <point x="1003" y="91"/>
      <point x="938" y="53" type="qcurve" smooth="yes" name="inserted"/>
      <point x="873" y="15"/>
      <point x="715" y="-20"/>
      <point x="637" y="-20" type="qcurve" smooth="yes"/>
      <point x="556" y="-20"/>
      <point x="384" y="15"/>
      <point x="300" y="66" type="qcurve" smooth="yes"/>
      <point x="251" y="96"/>
      <point x="170" y="209"/>
    </contour>
  </outline>
</glyph>
<glyph name="zeta" format="2">
  <advance width="1229"/>
  <unicode hex="03B6"/>
  <outline>
    <contour>
      <point x="1066" y="1456" type="line"/>
      <point x="1065" y="1419" type="line"/>
      <point x="572" y="840" type="line" smooth="yes"/>
      <point x="528" y="788"/>
      <point x="439" y="673"/>
      <point x="404" y="611" type="qcurve" smooth="yes" name="inserted"/>
      <point x="368" y="548"/>
      <point x="325" y="413"/>
      <point x="326" y="341" type="qcurve" smooth="yes"/>
      <point x="327" y="284"/>
      <point x="386" y="198"/>
      <point x="427" y="171" type="qcurve" smooth="yes"/>
      <point x="476" y="139"/>
      <point x="598" y="98"/>
      <point x="659" y="84" type="qcurve" smooth="yes"/>
      <point x="815" y="47" type="line" smooth="yes"/>
      <point x="852" y="38"/>
      <point x="933" y="14"/>
      <point x="968" y="-6" type="qcurve" smooth="yes" name="inserted"/>
      <point x="1002" y="-27"/>
      <point x="1047" y="-89"/>
      <point x="1047" y="-136" type="qcurve" smooth="yes"/>
      <point x="1047" y="-177"/>
      <point x="1020" y="-254"/>
      <point x="997" y="-287" type="qcurve" smooth="yes" name="inserted"/>
      <point x="974" y="-320"/>
      <point x="912" y="-374"/>
      <point x="877" y="-392" type="qcurve"/>
      <point x="838" y="-361" type="line"/>
      <point x="868" y="-345"/>
      <point x="925" y="-297"/>
      <point x="947" y="-268" type="qcurve" smooth="yes" name="inserted"/>
      <point x="968" y="-239"/>
      <point x="994" y="-171"/>
      <point x="994" y="-135" type="qcurve" smooth="yes"/>
      <point x="993" y="-100"/>
      <point x="955" y="-56"/>
      <point x="927" y="-42" type="qcurve" smooth="yes" name="inserted"/>
      <point x="899" y="-28"/>
      <point x="835" y="-12"/>
      <point x="808" y="-6" type="qcurve" smooth="yes"/>
      <point x="646" y="32" type="line" smooth="yes"/>
      <point x="575" y="49"/>
      <point x="432" y="104"/>
      <point x="393" y="131" type="qcurve" smooth="yes"/>
      <point x="339" y="168"/>
      <point x="275" y="269"/>
      <point x="273" y="341" type="qcurve" smooth="yes"/>
      <point x="272" y="419"/>
      <point x="318" y="564"/>
      <point x="356" y="632" type="qcurve" smooth="yes" name="inserted"/>
      <point x="393" y="699"/>
      <point x="487" y="823"/>
      <point x="535" y="879" type="qcurve" smooth="yes"/>
      <point x="979" y="1403" type="line"/>
      <point x="122" y="1403" type="line"/>
      <point x="122" y="1456" type="line"/>
    </contour>
  </outline>
</glyph>
<glyph name="theta" format="2">
  <advance width="1229"/>
  <unicode hex="03B8"/>
  <outline>
    <contour>
      <point x="619" y="-20" type="qcurve" smooth="yes"/>
      <point x="538" y="-20"/>
      <point x="414" y="35"/>
      <point x="368.5" y="81.0" type="qcurve" smooth="yes" name="inserted"/>
      <point x="281" y="170"/>
      <point x="207.0" y="461.341301044505"/>
      <point x="207" y="594" type="qcurve" smooth="yes"/>
      <point x="207" y="862" type="line" smooth="yes"/>
      <point x="207.0" y="991.7583270535018"/>
      <point x="280" y="1285"/>
      <point x="367.5" y="1375.5" type="qcurve" smooth="yes" name="inserted"/>
      <point x="413" y="1422"/>
      <point x="536" y="1477"/>
      <point x="617" y="1477" type="qcurve" smooth="yes"/>
      <point x="698" y="1477"/>
      <point x="823" y="1424"/>
      <point x="867.5" y="1375.5" type="qcurve" smooth="yes" name="inserted"/>
      <point x="954" y="1281"/>
      <point x="1027.0" y="1004.0"/>
      <point x="1027" y="862" type="qcurve" smooth="yes"/>
      <point x="1027" y="594" type="line" smooth="yes"/>
      <point x="1027.0" y="460.84955777008315"/>
      <point x="957" y="179"/>
      <point x="868.5" y="81.0" type="qcurve" smooth="yes" name="inserted"/>
      <point x="825" y="33"/>
      <point x="700" y="-20"/>
    </contour>
    <contour>
      <point x="619" y="34" type="qcurve" smooth="yes"/>
      <point x="691" y="34"/>
      <point x="800" y="86"/>
      <point x="839.0" y="129.5" type="qcurve" smooth="yes" name="inserted"/>
      <point x="916.273228241161" y="215.68936996129491"/>
      <point x="971.9810109626953" y="480.9176248736376"/>
      <point x="974" y="596" type="qcurve" smooth="yes"/>
      <point x="974" y="695" type="line"/>
      <point x="261" y="695" type="line"/>
      <point x="261" y="596" type="line" smooth="yes"/>
      <point x="261.0" y="482.0"/>
      <point x="324.0" y="207.0"/>
      <point x="398.0" y="129.0" type="qcurve" smooth="yes" name="inserted"/>
      <point x="438" y="86"/>
      <point x="547" y="34"/>
    </contour>
    <contour>
      <point x="261" y="749" type="line"/>
      <point x="974" y="749" type="line"/>
      <point x="974" y="862" type="line" smooth="yes"/>
      <point x="974.0" y="976.0"/>
      <point x="916" y="1243"/>
      <point x="838.0" y="1329.0" type="qcurve" smooth="yes" name="inserted"/>
      <point x="799" y="1372"/>
      <point x="689" y="1423"/>
      <point x="617" y="1423" type="qcurve" smooth="yes"/>
      <point x="544" y="1423"/>
      <point x="435" y="1372"/>
      <point x="396" y="1329" type="qcurve" smooth="yes" name="inserted"/>
      <point x="319" y="1243"/>
      <point x="261.0" y="975"/>
      <point x="261" y="862" type="qcurve" smooth="yes"/>
    </contour>
  </outline>
</glyph>
<glyph name="iota" format="2">
  <advance width="1229"/>
  <unicode hex="03B9"/>
  <outline>
    <contour>
      <point x="231" y="1082" type="line"/>
      <point x="605" y="1083" type="line"/>
      <point x="606" y="259" type="line" smooth="yes"/>
      <point x="606" y="196"/>
      <point x="647" y="108"/>
      <point x="684" y="81" type="qcurve" smooth="yes" name="inserted"/>
      <point x="721" y="53"/>
      <point x="821" y="27"/>
      <point x="879" y="27" type="qcurve" smooth="yes"/>
      <point x="919" y="27"/>
      <point x="996" y="38"/>
      <point x="1035" y="43" type="qcurve"/>
      <point x="1044" y="-3" type="line"/>
      <point x="1021" y="-8"/>
      <point x="976" y="-14"/>
      <point x="954" y="-17" type="qcurve" smooth="yes"/>
      <point x="936" y="-18"/>
      <point x="899" y="-20"/>
      <point x="881" y="-20" type="qcurve" smooth="yes"/>
      <point x="809" y="-20"/>
      <point x="689" y="9"/>
      <point x="645" y="42" type="qcurve" smooth="yes" name="inserted"/>
      <point x="601" y="75"/>
      <point x="548" y="181"/>
      <point x="548" y="259" type="qcurve" smooth="yes"/>
      <point x="545" y="1027" type="line"/>
      <point x="231" y="1027" type="line"/>
    </contour>
  </outline>
</glyph>
<glyph name="xi" format="2">
  <advance width="1229"/>
  <unicode hex="03BE"/>
  <outline>
    <contour>
      <point x="1042" y="1377" type="line"/>
      <point x="972" y="1400"/>
      <point x="826" y="1423"/>
      <point x="752" y="1423" type="qcurve" smooth="yes"/>
      <point x="679.7408786435968" y="1423.0"/>
      <point x="522.3684654480853" y="1391.3552909050532"/>
      <point x="461" y="1353" type="qcurve" smooth="yes"/>
      <point x="411.3636363636363" y="1318.6363636363637"/>
      <point x="346.0" y="1221.1612903225805"/>
      <point x="346" y="1148" type="qcurve" smooth="yes"/>
      <point x="346" y="1092"/>
      <point x="386" y="1011"/>
      <point x="420" y="983" type="qcurve" smooth="yes" name="inserted"/>
      <point x="454" y="954"/>
      <point x="542" y="918"/>
      <point x="591" y="908" type="qcurve" smooth="yes" name="inserted"/>
      <point x="639" y="898"/>
      <point x="736" y="891"/>
      <point x="779" y="891" type="qcurve" smooth="yes"/>
      <point x="909" y="891" type="line"/>
      <point x="909" y="835" type="line"/>
      <point x="779" y="835" type="line" smooth="yes"/>
      <point x="717" y="834"/>
      <point x="592" y="816"/>
      <point x="535" y="797" type="qcurve" smooth="yes" name="inserted"/>
      <point x="477" y="777"/>
      <point x="376" y="716"/>
      <point x="339" y="673" type="qcurve" smooth="yes" name="inserted"/>
      <point x="301" y="630"/>
      <point x="258" y="517"/>
      <point x="258" y="445" type="qcurve" smooth="yes"/>
      <point x="258" y="380"/>
      <point x="299" y="278"/>
      <point x="331" y="237" type="qcurve" smooth="yes" name="inserted"/>
      <point x="378" y="177"/>
      <point x="552" y="89"/>
      <point x="640" y="66" type="qcurve" smooth="yes"/>
      <point x="807" y="22" type="line" smooth="yes"/>
      <point x="841" y="13"/>
      <point x="918" y="-10"/>
      <point x="951" y="-29" type="qcurve" smooth="yes" name="inserted"/>
      <point x="984" y="-48"/>
      <point x="1027" y="-107"/>
      <point x="1027" y="-150" type="qcurve" smooth="yes"/>
      <point x="1027" y="-188"/>
      <point x="999" y="-253"/>
      <point x="977" y="-280" type="qcurve" smooth="yes" name="inserted"/>
      <point x="954" y="-308"/>
      <point x="896" y="-353"/>
      <point x="866" y="-370" type="qcurve"/>
      <point x="832" y="-337" type="line"/>
      <point x="857" y="-322"/>
      <point x="908" y="-283"/>
      <point x="929" y="-260" type="qcurve" smooth="yes" name="inserted"/>
      <point x="949" y="-237"/>
      <point x="974" y="-181"/>
      <point x="974" y="-149" type="qcurve" smooth="yes"/>
      <point x="974" y="-119"/>
      <point x="936" y="-79"/>
      <point x="909" y="-66" type="qcurve" smooth="yes" name="inserted"/>
      <point x="882" y="-53"/>
      <point x="822" y="-37"/>
      <point x="800" y="-31" type="qcurve" smooth="yes"/>
      <point x="624" y="15" type="line" smooth="yes"/>
      <point x="540" y="37"/>
      <point x="348.0" y="137"/>
      <point x="282" y="213" type="qcurve" smooth="yes" name="inserted"/>
      <point x="243" y="257"/>
      <point x="203" y="376"/>
      <point x="203" y="449" type="qcurve" smooth="yes"/>
      <point x="203" y="538"/>
      <point x="264" y="675"/>
      <point x="316" y="726" type="qcurve" smooth="yes" name="inserted"/>
      <point x="367" y="776"/>
      <point x="504" y="843"/>
      <point x="580" y="861" type="qcurve"/>
      <point x="524" y="874"/>
      <point x="420" y="919"/>
      <point x="380" y="954" type="qcurve" smooth="yes" name="inserted"/>
      <point x="339" y="988"/>
      <point x="290" y="1082"/>
      <point x="290" y="1144" type="qcurve" smooth="yes"/>
      <point x="290.0" y="1232.724734793541"/>
      <point x="363.9179128919639" y="1356.0609467673112"/>
      <point x="426" y="1394" type="qcurve" smooth="yes"/>
      <point x="492.02394647923796" y="1438.8962836058818"/>
      <point x="669.701790936409" y="1476.0"/>
      <point x="755" y="1476" type="qcurve" smooth="yes"/>
      <point x="830" y="1476"/>
      <point x="977" y="1452"/>
      <point x="1048" y="1427" type="qcurve"/>
    </contour>
  </outline>
</glyph>
